G04 #@! TF.GenerationSoftware,KiCad,Pcbnew,(5.0.0)*
G04 #@! TF.CreationDate,2018-12-24T14:00:07+09:00*
G04 #@! TF.ProjectId,mykeyboard,6D796B6579626F6172642E6B69636164,rev?*
G04 #@! TF.SameCoordinates,Original*
G04 #@! TF.FileFunction,Copper,L1,Top,Signal*
G04 #@! TF.FilePolarity,Positive*
%FSLAX46Y46*%
G04 Gerber Fmt 4.6, Leading zero omitted, Abs format (unit mm)*
G04 Created by KiCad (PCBNEW (5.0.0)) date 12/24/18 14:00:07*
%MOMM*%
%LPD*%
G01*
G04 APERTURE LIST*
G04 #@! TA.AperFunction,ComponentPad*
%ADD10C,2.200000*%
G04 #@! TD*
G04 #@! TA.AperFunction,Conductor*
%ADD11C,0.100000*%
G04 #@! TD*
G04 #@! TA.AperFunction,SMDPad,CuDef*
%ADD12C,0.950000*%
G04 #@! TD*
G04 #@! TA.AperFunction,ComponentPad*
%ADD13C,2.000000*%
G04 #@! TD*
G04 #@! TA.AperFunction,ComponentPad*
%ADD14O,1.700000X1.700000*%
G04 #@! TD*
G04 #@! TA.AperFunction,ComponentPad*
%ADD15R,1.700000X1.700000*%
G04 #@! TD*
G04 #@! TA.AperFunction,ViaPad*
%ADD16C,0.800000*%
G04 #@! TD*
G04 #@! TA.AperFunction,Conductor*
%ADD17C,0.250000*%
G04 #@! TD*
G04 #@! TA.AperFunction,Conductor*
%ADD18C,0.254000*%
G04 #@! TD*
G04 APERTURE END LIST*
D10*
G04 #@! TO.P,SW_DOWN1,2*
G04 #@! TO.N,/D3*
X101600000Y-80645000D03*
G04 #@! TO.P,SW_DOWN1,1*
G04 #@! TO.N,GND*
X107950000Y-78105000D03*
G04 #@! TD*
G04 #@! TO.P,SW_LEFT1,2*
G04 #@! TO.N,/D4*
X82550000Y-80645000D03*
G04 #@! TO.P,SW_LEFT1,1*
G04 #@! TO.N,GND*
X88900000Y-78105000D03*
G04 #@! TD*
G04 #@! TO.P,SW_RIGHT1,2*
G04 #@! TO.N,/D5*
X120650000Y-80645000D03*
G04 #@! TO.P,SW_RIGHT1,1*
G04 #@! TO.N,GND*
X127000000Y-78105000D03*
G04 #@! TD*
G04 #@! TO.P,SW_UP1,2*
G04 #@! TO.N,/D2*
X101600000Y-61595000D03*
G04 #@! TO.P,SW_UP1,1*
G04 #@! TO.N,GND*
X107950000Y-59055000D03*
G04 #@! TD*
D11*
G04 #@! TO.N,Net-(D2-Pad2)*
G04 #@! TO.C,D2*
G36*
X122815779Y-50276144D02*
X122838834Y-50279563D01*
X122861443Y-50285227D01*
X122883387Y-50293079D01*
X122904457Y-50303044D01*
X122924448Y-50315026D01*
X122943168Y-50328910D01*
X122960438Y-50344562D01*
X122976090Y-50361832D01*
X122989974Y-50380552D01*
X123001956Y-50400543D01*
X123011921Y-50421613D01*
X123019773Y-50443557D01*
X123025437Y-50466166D01*
X123028856Y-50489221D01*
X123030000Y-50512500D01*
X123030000Y-51087500D01*
X123028856Y-51110779D01*
X123025437Y-51133834D01*
X123019773Y-51156443D01*
X123011921Y-51178387D01*
X123001956Y-51199457D01*
X122989974Y-51219448D01*
X122976090Y-51238168D01*
X122960438Y-51255438D01*
X122943168Y-51271090D01*
X122924448Y-51284974D01*
X122904457Y-51296956D01*
X122883387Y-51306921D01*
X122861443Y-51314773D01*
X122838834Y-51320437D01*
X122815779Y-51323856D01*
X122792500Y-51325000D01*
X122317500Y-51325000D01*
X122294221Y-51323856D01*
X122271166Y-51320437D01*
X122248557Y-51314773D01*
X122226613Y-51306921D01*
X122205543Y-51296956D01*
X122185552Y-51284974D01*
X122166832Y-51271090D01*
X122149562Y-51255438D01*
X122133910Y-51238168D01*
X122120026Y-51219448D01*
X122108044Y-51199457D01*
X122098079Y-51178387D01*
X122090227Y-51156443D01*
X122084563Y-51133834D01*
X122081144Y-51110779D01*
X122080000Y-51087500D01*
X122080000Y-50512500D01*
X122081144Y-50489221D01*
X122084563Y-50466166D01*
X122090227Y-50443557D01*
X122098079Y-50421613D01*
X122108044Y-50400543D01*
X122120026Y-50380552D01*
X122133910Y-50361832D01*
X122149562Y-50344562D01*
X122166832Y-50328910D01*
X122185552Y-50315026D01*
X122205543Y-50303044D01*
X122226613Y-50293079D01*
X122248557Y-50285227D01*
X122271166Y-50279563D01*
X122294221Y-50276144D01*
X122317500Y-50275000D01*
X122792500Y-50275000D01*
X122815779Y-50276144D01*
X122815779Y-50276144D01*
G37*
D12*
G04 #@! TD*
G04 #@! TO.P,D2,2*
G04 #@! TO.N,Net-(D2-Pad2)*
X122555000Y-50800000D03*
D11*
G04 #@! TO.N,GND*
G04 #@! TO.C,D2*
G36*
X122815779Y-52026144D02*
X122838834Y-52029563D01*
X122861443Y-52035227D01*
X122883387Y-52043079D01*
X122904457Y-52053044D01*
X122924448Y-52065026D01*
X122943168Y-52078910D01*
X122960438Y-52094562D01*
X122976090Y-52111832D01*
X122989974Y-52130552D01*
X123001956Y-52150543D01*
X123011921Y-52171613D01*
X123019773Y-52193557D01*
X123025437Y-52216166D01*
X123028856Y-52239221D01*
X123030000Y-52262500D01*
X123030000Y-52837500D01*
X123028856Y-52860779D01*
X123025437Y-52883834D01*
X123019773Y-52906443D01*
X123011921Y-52928387D01*
X123001956Y-52949457D01*
X122989974Y-52969448D01*
X122976090Y-52988168D01*
X122960438Y-53005438D01*
X122943168Y-53021090D01*
X122924448Y-53034974D01*
X122904457Y-53046956D01*
X122883387Y-53056921D01*
X122861443Y-53064773D01*
X122838834Y-53070437D01*
X122815779Y-53073856D01*
X122792500Y-53075000D01*
X122317500Y-53075000D01*
X122294221Y-53073856D01*
X122271166Y-53070437D01*
X122248557Y-53064773D01*
X122226613Y-53056921D01*
X122205543Y-53046956D01*
X122185552Y-53034974D01*
X122166832Y-53021090D01*
X122149562Y-53005438D01*
X122133910Y-52988168D01*
X122120026Y-52969448D01*
X122108044Y-52949457D01*
X122098079Y-52928387D01*
X122090227Y-52906443D01*
X122084563Y-52883834D01*
X122081144Y-52860779D01*
X122080000Y-52837500D01*
X122080000Y-52262500D01*
X122081144Y-52239221D01*
X122084563Y-52216166D01*
X122090227Y-52193557D01*
X122098079Y-52171613D01*
X122108044Y-52150543D01*
X122120026Y-52130552D01*
X122133910Y-52111832D01*
X122149562Y-52094562D01*
X122166832Y-52078910D01*
X122185552Y-52065026D01*
X122205543Y-52053044D01*
X122226613Y-52043079D01*
X122248557Y-52035227D01*
X122271166Y-52029563D01*
X122294221Y-52026144D01*
X122317500Y-52025000D01*
X122792500Y-52025000D01*
X122815779Y-52026144D01*
X122815779Y-52026144D01*
G37*
D12*
G04 #@! TD*
G04 #@! TO.P,D2,1*
G04 #@! TO.N,GND*
X122555000Y-52550000D03*
D11*
G04 #@! TO.N,Net-(D3-Pad2)*
G04 #@! TO.C,D3*
G36*
X131705779Y-50276144D02*
X131728834Y-50279563D01*
X131751443Y-50285227D01*
X131773387Y-50293079D01*
X131794457Y-50303044D01*
X131814448Y-50315026D01*
X131833168Y-50328910D01*
X131850438Y-50344562D01*
X131866090Y-50361832D01*
X131879974Y-50380552D01*
X131891956Y-50400543D01*
X131901921Y-50421613D01*
X131909773Y-50443557D01*
X131915437Y-50466166D01*
X131918856Y-50489221D01*
X131920000Y-50512500D01*
X131920000Y-51087500D01*
X131918856Y-51110779D01*
X131915437Y-51133834D01*
X131909773Y-51156443D01*
X131901921Y-51178387D01*
X131891956Y-51199457D01*
X131879974Y-51219448D01*
X131866090Y-51238168D01*
X131850438Y-51255438D01*
X131833168Y-51271090D01*
X131814448Y-51284974D01*
X131794457Y-51296956D01*
X131773387Y-51306921D01*
X131751443Y-51314773D01*
X131728834Y-51320437D01*
X131705779Y-51323856D01*
X131682500Y-51325000D01*
X131207500Y-51325000D01*
X131184221Y-51323856D01*
X131161166Y-51320437D01*
X131138557Y-51314773D01*
X131116613Y-51306921D01*
X131095543Y-51296956D01*
X131075552Y-51284974D01*
X131056832Y-51271090D01*
X131039562Y-51255438D01*
X131023910Y-51238168D01*
X131010026Y-51219448D01*
X130998044Y-51199457D01*
X130988079Y-51178387D01*
X130980227Y-51156443D01*
X130974563Y-51133834D01*
X130971144Y-51110779D01*
X130970000Y-51087500D01*
X130970000Y-50512500D01*
X130971144Y-50489221D01*
X130974563Y-50466166D01*
X130980227Y-50443557D01*
X130988079Y-50421613D01*
X130998044Y-50400543D01*
X131010026Y-50380552D01*
X131023910Y-50361832D01*
X131039562Y-50344562D01*
X131056832Y-50328910D01*
X131075552Y-50315026D01*
X131095543Y-50303044D01*
X131116613Y-50293079D01*
X131138557Y-50285227D01*
X131161166Y-50279563D01*
X131184221Y-50276144D01*
X131207500Y-50275000D01*
X131682500Y-50275000D01*
X131705779Y-50276144D01*
X131705779Y-50276144D01*
G37*
D12*
G04 #@! TD*
G04 #@! TO.P,D3,2*
G04 #@! TO.N,Net-(D3-Pad2)*
X131445000Y-50800000D03*
D11*
G04 #@! TO.N,Net-(D3-Pad1)*
G04 #@! TO.C,D3*
G36*
X131705779Y-52026144D02*
X131728834Y-52029563D01*
X131751443Y-52035227D01*
X131773387Y-52043079D01*
X131794457Y-52053044D01*
X131814448Y-52065026D01*
X131833168Y-52078910D01*
X131850438Y-52094562D01*
X131866090Y-52111832D01*
X131879974Y-52130552D01*
X131891956Y-52150543D01*
X131901921Y-52171613D01*
X131909773Y-52193557D01*
X131915437Y-52216166D01*
X131918856Y-52239221D01*
X131920000Y-52262500D01*
X131920000Y-52837500D01*
X131918856Y-52860779D01*
X131915437Y-52883834D01*
X131909773Y-52906443D01*
X131901921Y-52928387D01*
X131891956Y-52949457D01*
X131879974Y-52969448D01*
X131866090Y-52988168D01*
X131850438Y-53005438D01*
X131833168Y-53021090D01*
X131814448Y-53034974D01*
X131794457Y-53046956D01*
X131773387Y-53056921D01*
X131751443Y-53064773D01*
X131728834Y-53070437D01*
X131705779Y-53073856D01*
X131682500Y-53075000D01*
X131207500Y-53075000D01*
X131184221Y-53073856D01*
X131161166Y-53070437D01*
X131138557Y-53064773D01*
X131116613Y-53056921D01*
X131095543Y-53046956D01*
X131075552Y-53034974D01*
X131056832Y-53021090D01*
X131039562Y-53005438D01*
X131023910Y-52988168D01*
X131010026Y-52969448D01*
X130998044Y-52949457D01*
X130988079Y-52928387D01*
X130980227Y-52906443D01*
X130974563Y-52883834D01*
X130971144Y-52860779D01*
X130970000Y-52837500D01*
X130970000Y-52262500D01*
X130971144Y-52239221D01*
X130974563Y-52216166D01*
X130980227Y-52193557D01*
X130988079Y-52171613D01*
X130998044Y-52150543D01*
X131010026Y-52130552D01*
X131023910Y-52111832D01*
X131039562Y-52094562D01*
X131056832Y-52078910D01*
X131075552Y-52065026D01*
X131095543Y-52053044D01*
X131116613Y-52043079D01*
X131138557Y-52035227D01*
X131161166Y-52029563D01*
X131184221Y-52026144D01*
X131207500Y-52025000D01*
X131682500Y-52025000D01*
X131705779Y-52026144D01*
X131705779Y-52026144D01*
G37*
D12*
G04 #@! TD*
G04 #@! TO.P,D3,1*
G04 #@! TO.N,Net-(D3-Pad1)*
X131445000Y-52550000D03*
D11*
G04 #@! TO.N,Net-(D4-Pad2)*
G04 #@! TO.C,D4*
G36*
X127260779Y-50276144D02*
X127283834Y-50279563D01*
X127306443Y-50285227D01*
X127328387Y-50293079D01*
X127349457Y-50303044D01*
X127369448Y-50315026D01*
X127388168Y-50328910D01*
X127405438Y-50344562D01*
X127421090Y-50361832D01*
X127434974Y-50380552D01*
X127446956Y-50400543D01*
X127456921Y-50421613D01*
X127464773Y-50443557D01*
X127470437Y-50466166D01*
X127473856Y-50489221D01*
X127475000Y-50512500D01*
X127475000Y-51087500D01*
X127473856Y-51110779D01*
X127470437Y-51133834D01*
X127464773Y-51156443D01*
X127456921Y-51178387D01*
X127446956Y-51199457D01*
X127434974Y-51219448D01*
X127421090Y-51238168D01*
X127405438Y-51255438D01*
X127388168Y-51271090D01*
X127369448Y-51284974D01*
X127349457Y-51296956D01*
X127328387Y-51306921D01*
X127306443Y-51314773D01*
X127283834Y-51320437D01*
X127260779Y-51323856D01*
X127237500Y-51325000D01*
X126762500Y-51325000D01*
X126739221Y-51323856D01*
X126716166Y-51320437D01*
X126693557Y-51314773D01*
X126671613Y-51306921D01*
X126650543Y-51296956D01*
X126630552Y-51284974D01*
X126611832Y-51271090D01*
X126594562Y-51255438D01*
X126578910Y-51238168D01*
X126565026Y-51219448D01*
X126553044Y-51199457D01*
X126543079Y-51178387D01*
X126535227Y-51156443D01*
X126529563Y-51133834D01*
X126526144Y-51110779D01*
X126525000Y-51087500D01*
X126525000Y-50512500D01*
X126526144Y-50489221D01*
X126529563Y-50466166D01*
X126535227Y-50443557D01*
X126543079Y-50421613D01*
X126553044Y-50400543D01*
X126565026Y-50380552D01*
X126578910Y-50361832D01*
X126594562Y-50344562D01*
X126611832Y-50328910D01*
X126630552Y-50315026D01*
X126650543Y-50303044D01*
X126671613Y-50293079D01*
X126693557Y-50285227D01*
X126716166Y-50279563D01*
X126739221Y-50276144D01*
X126762500Y-50275000D01*
X127237500Y-50275000D01*
X127260779Y-50276144D01*
X127260779Y-50276144D01*
G37*
D12*
G04 #@! TD*
G04 #@! TO.P,D4,2*
G04 #@! TO.N,Net-(D4-Pad2)*
X127000000Y-50800000D03*
D11*
G04 #@! TO.N,Net-(D4-Pad1)*
G04 #@! TO.C,D4*
G36*
X127260779Y-52026144D02*
X127283834Y-52029563D01*
X127306443Y-52035227D01*
X127328387Y-52043079D01*
X127349457Y-52053044D01*
X127369448Y-52065026D01*
X127388168Y-52078910D01*
X127405438Y-52094562D01*
X127421090Y-52111832D01*
X127434974Y-52130552D01*
X127446956Y-52150543D01*
X127456921Y-52171613D01*
X127464773Y-52193557D01*
X127470437Y-52216166D01*
X127473856Y-52239221D01*
X127475000Y-52262500D01*
X127475000Y-52837500D01*
X127473856Y-52860779D01*
X127470437Y-52883834D01*
X127464773Y-52906443D01*
X127456921Y-52928387D01*
X127446956Y-52949457D01*
X127434974Y-52969448D01*
X127421090Y-52988168D01*
X127405438Y-53005438D01*
X127388168Y-53021090D01*
X127369448Y-53034974D01*
X127349457Y-53046956D01*
X127328387Y-53056921D01*
X127306443Y-53064773D01*
X127283834Y-53070437D01*
X127260779Y-53073856D01*
X127237500Y-53075000D01*
X126762500Y-53075000D01*
X126739221Y-53073856D01*
X126716166Y-53070437D01*
X126693557Y-53064773D01*
X126671613Y-53056921D01*
X126650543Y-53046956D01*
X126630552Y-53034974D01*
X126611832Y-53021090D01*
X126594562Y-53005438D01*
X126578910Y-52988168D01*
X126565026Y-52969448D01*
X126553044Y-52949457D01*
X126543079Y-52928387D01*
X126535227Y-52906443D01*
X126529563Y-52883834D01*
X126526144Y-52860779D01*
X126525000Y-52837500D01*
X126525000Y-52262500D01*
X126526144Y-52239221D01*
X126529563Y-52216166D01*
X126535227Y-52193557D01*
X126543079Y-52171613D01*
X126553044Y-52150543D01*
X126565026Y-52130552D01*
X126578910Y-52111832D01*
X126594562Y-52094562D01*
X126611832Y-52078910D01*
X126630552Y-52065026D01*
X126650543Y-52053044D01*
X126671613Y-52043079D01*
X126693557Y-52035227D01*
X126716166Y-52029563D01*
X126739221Y-52026144D01*
X126762500Y-52025000D01*
X127237500Y-52025000D01*
X127260779Y-52026144D01*
X127260779Y-52026144D01*
G37*
D12*
G04 #@! TD*
G04 #@! TO.P,D4,1*
G04 #@! TO.N,Net-(D4-Pad1)*
X127000000Y-52550000D03*
D13*
G04 #@! TO.P,SW_RST1,1*
G04 #@! TO.N,GND*
X93345000Y-58270000D03*
G04 #@! TO.P,SW_RST1,2*
G04 #@! TO.N,/RST*
X88845000Y-58270000D03*
G04 #@! TO.P,SW_RST1,1*
G04 #@! TO.N,GND*
X93345000Y-64770000D03*
G04 #@! TO.P,SW_RST1,2*
G04 #@! TO.N,/RST*
X88845000Y-64770000D03*
G04 #@! TD*
D14*
G04 #@! TO.P,J2,6*
G04 #@! TO.N,GND*
X76835000Y-57785000D03*
G04 #@! TO.P,J2,5*
G04 #@! TO.N,/RST*
X76835000Y-60325000D03*
G04 #@! TO.P,J2,4*
G04 #@! TO.N,/MISO*
X76835000Y-62865000D03*
G04 #@! TO.P,J2,3*
G04 #@! TO.N,/MOSI*
X76835000Y-65405000D03*
G04 #@! TO.P,J2,2*
G04 #@! TO.N,/SCK*
X76835000Y-67945000D03*
D15*
G04 #@! TO.P,J2,1*
G04 #@! TO.N,/VCC*
X76835000Y-70485000D03*
G04 #@! TD*
D16*
G04 #@! TO.N,GND*
X120015000Y-55880000D03*
X135890000Y-61595000D03*
X135890000Y-57785000D03*
X127635000Y-62865000D03*
X132715000Y-62865000D03*
X132715000Y-69850000D03*
X126365000Y-69850000D03*
X123825000Y-55880000D03*
G04 #@! TO.N,/VCC*
X97155000Y-69215000D03*
X97155000Y-66040000D03*
X124980608Y-70480312D03*
X132830000Y-71120000D03*
X125095000Y-64770000D03*
G04 #@! TO.N,Net-(D2-Pad2)*
X122555000Y-49530000D03*
G04 #@! TO.N,Net-(D3-Pad1)*
X132715000Y-59055000D03*
G04 #@! TO.N,Net-(D3-Pad2)*
X131445000Y-49530000D03*
G04 #@! TO.N,Net-(D4-Pad2)*
X127000000Y-49530000D03*
G04 #@! TO.N,Net-(D4-Pad1)*
X120650000Y-65000000D03*
G04 #@! TO.N,/UVCC*
X99695000Y-55245000D03*
X119380000Y-65000000D03*
X121375000Y-71120000D03*
G04 #@! TO.N,Net-(J1-Pad2)*
X97790000Y-58420000D03*
X101600000Y-71755000D03*
G04 #@! TO.N,Net-(J1-Pad3)*
X96520000Y-59690000D03*
X100330000Y-69215000D03*
G04 #@! TO.N,/RST*
X97880000Y-62865000D03*
G04 #@! TO.N,/D4*
X136250009Y-64770000D03*
X137795000Y-64770000D03*
G04 #@! TO.N,/D2*
X130810000Y-59055000D03*
X123825000Y-59055000D03*
G04 #@! TD*
D17*
G04 #@! TO.N,GND*
X122555000Y-52550000D02*
X121440000Y-52550000D01*
X121440000Y-52550000D02*
X120805000Y-52550000D01*
X120805000Y-52550000D02*
X120015000Y-53340000D01*
X120015000Y-53340000D02*
X120015000Y-55880000D01*
X122555000Y-52550000D02*
X123670000Y-52550000D01*
X135890000Y-61595000D02*
X135890000Y-57785000D01*
X93345000Y-73660000D02*
X88900000Y-78105000D01*
X93345000Y-64770000D02*
X93345000Y-73660000D01*
X88900000Y-78105000D02*
X107950000Y-78105000D01*
X127000000Y-78105000D02*
X107950000Y-78105000D01*
X107950000Y-59055000D02*
X107950000Y-78105000D01*
X127635000Y-68580000D02*
X126365000Y-69850000D01*
X127635000Y-62865000D02*
X127635000Y-68580000D01*
X127635000Y-62865000D02*
X132715000Y-62865000D01*
X132715000Y-62865000D02*
X132715000Y-69850000D01*
X123825000Y-52705000D02*
X123670000Y-52550000D01*
X123825000Y-55880000D02*
X123825000Y-52705000D01*
G04 #@! TO.N,/VCC*
X97155000Y-69215000D02*
X97155000Y-66040000D01*
X124980608Y-70480312D02*
X125620296Y-71120000D01*
X125620296Y-71120000D02*
X132830000Y-71120000D01*
X124980608Y-70480312D02*
X124980608Y-64884392D01*
X124980608Y-64884392D02*
X125095000Y-64770000D01*
G04 #@! TO.N,Net-(D2-Pad2)*
X122555000Y-50800000D02*
X122555000Y-49530000D01*
G04 #@! TO.N,Net-(D3-Pad1)*
X131445000Y-52550000D02*
X131445000Y-57785000D01*
X132715000Y-59055000D02*
X131445000Y-57785000D01*
G04 #@! TO.N,Net-(D3-Pad2)*
X131445000Y-50800000D02*
X131445000Y-49530000D01*
G04 #@! TO.N,Net-(D4-Pad2)*
X127000000Y-50800000D02*
X127000000Y-49530000D01*
G04 #@! TO.N,Net-(D4-Pad1)*
X127000000Y-52550000D02*
X127000000Y-53975000D01*
X127000000Y-53975000D02*
X122555000Y-58420000D01*
X122555000Y-58420000D02*
X122555000Y-60325000D01*
X122555000Y-60325000D02*
X120650000Y-62230000D01*
X120650000Y-62230000D02*
X120650000Y-65000000D01*
G04 #@! TO.N,/UVCC*
X99695000Y-55245000D02*
X107315000Y-55245000D01*
X117070000Y-65000000D02*
X116840000Y-64770000D01*
X119380000Y-65000000D02*
X117070000Y-65000000D01*
X107315000Y-55245000D02*
X116840000Y-64770000D01*
X117070000Y-65000000D02*
X117070000Y-66815000D01*
X117070000Y-66815000D02*
X121375000Y-71120000D01*
G04 #@! TO.N,Net-(J1-Pad2)*
X101055001Y-63588591D02*
X100780009Y-63313599D01*
X101600000Y-71755000D02*
X101055001Y-71210001D01*
X101055001Y-71210001D02*
X101055001Y-63588591D01*
X100780009Y-63313599D02*
X97790000Y-60323590D01*
X97790000Y-60323590D02*
X97790000Y-58420000D01*
G04 #@! TO.N,Net-(J1-Pad3)*
X100330000Y-63500000D02*
X96520000Y-59690000D01*
X100330000Y-69215000D02*
X100330000Y-63500000D01*
G04 #@! TO.N,/RST*
X90750000Y-62865000D02*
X88845000Y-64770000D01*
X97880000Y-62865000D02*
X90750000Y-62865000D01*
G04 #@! TO.N,/D4*
X136250009Y-64770000D02*
X137795000Y-64770000D01*
G04 #@! TO.N,/D2*
X123825000Y-59055000D02*
X130810000Y-59055000D01*
G04 #@! TD*
D18*
G04 #@! TO.N,GND*
G36*
X144018000Y-50217606D02*
X144018000Y-90117394D01*
X140282394Y-93853000D01*
X70537606Y-93853000D01*
X66802000Y-90117394D01*
X66802000Y-89725431D01*
X68250000Y-89725431D01*
X68250000Y-90614569D01*
X68590259Y-91436026D01*
X69218974Y-92064741D01*
X70040431Y-92405000D01*
X70929569Y-92405000D01*
X71751026Y-92064741D01*
X72379741Y-91436026D01*
X72720000Y-90614569D01*
X72720000Y-89725431D01*
X138100000Y-89725431D01*
X138100000Y-90614569D01*
X138440259Y-91436026D01*
X139068974Y-92064741D01*
X139890431Y-92405000D01*
X140779569Y-92405000D01*
X141601026Y-92064741D01*
X142229741Y-91436026D01*
X142570000Y-90614569D01*
X142570000Y-89725431D01*
X142229741Y-88903974D01*
X141601026Y-88275259D01*
X140779569Y-87935000D01*
X139890431Y-87935000D01*
X139068974Y-88275259D01*
X138440259Y-88903974D01*
X138100000Y-89725431D01*
X72720000Y-89725431D01*
X72379741Y-88903974D01*
X71751026Y-88275259D01*
X70929569Y-87935000D01*
X70040431Y-87935000D01*
X69218974Y-88275259D01*
X68590259Y-88903974D01*
X68250000Y-89725431D01*
X66802000Y-89725431D01*
X66802000Y-82660866D01*
X83725000Y-82660866D01*
X83725000Y-83709134D01*
X84126155Y-84677608D01*
X84867392Y-85418845D01*
X85835866Y-85820000D01*
X86884134Y-85820000D01*
X87852608Y-85418845D01*
X88593845Y-84677608D01*
X88995000Y-83709134D01*
X88995000Y-82660866D01*
X102775000Y-82660866D01*
X102775000Y-83709134D01*
X103176155Y-84677608D01*
X103917392Y-85418845D01*
X104885866Y-85820000D01*
X105934134Y-85820000D01*
X106902608Y-85418845D01*
X107643845Y-84677608D01*
X108045000Y-83709134D01*
X108045000Y-82660866D01*
X121825000Y-82660866D01*
X121825000Y-83709134D01*
X122226155Y-84677608D01*
X122967392Y-85418845D01*
X123935866Y-85820000D01*
X124984134Y-85820000D01*
X125952608Y-85418845D01*
X126693845Y-84677608D01*
X127095000Y-83709134D01*
X127095000Y-82660866D01*
X126693845Y-81692392D01*
X125952608Y-80951155D01*
X124984134Y-80550000D01*
X123935866Y-80550000D01*
X122967392Y-80951155D01*
X122226155Y-81692392D01*
X121825000Y-82660866D01*
X108045000Y-82660866D01*
X107643845Y-81692392D01*
X106902608Y-80951155D01*
X105934134Y-80550000D01*
X104885866Y-80550000D01*
X103917392Y-80951155D01*
X103176155Y-81692392D01*
X102775000Y-82660866D01*
X88995000Y-82660866D01*
X88593845Y-81692392D01*
X87852608Y-80951155D01*
X86884134Y-80550000D01*
X85835866Y-80550000D01*
X84867392Y-80951155D01*
X84126155Y-81692392D01*
X83725000Y-82660866D01*
X66802000Y-82660866D01*
X66802000Y-80299887D01*
X80815000Y-80299887D01*
X80815000Y-80990113D01*
X81079138Y-81627799D01*
X81567201Y-82115862D01*
X82204887Y-82380000D01*
X82895113Y-82380000D01*
X83532799Y-82115862D01*
X84020862Y-81627799D01*
X84285000Y-80990113D01*
X84285000Y-80299887D01*
X99865000Y-80299887D01*
X99865000Y-80990113D01*
X100129138Y-81627799D01*
X100617201Y-82115862D01*
X101254887Y-82380000D01*
X101945113Y-82380000D01*
X102582799Y-82115862D01*
X103070862Y-81627799D01*
X103335000Y-80990113D01*
X103335000Y-80299887D01*
X118915000Y-80299887D01*
X118915000Y-80990113D01*
X119179138Y-81627799D01*
X119667201Y-82115862D01*
X120304887Y-82380000D01*
X120995113Y-82380000D01*
X121632799Y-82115862D01*
X122120862Y-81627799D01*
X122385000Y-80990113D01*
X122385000Y-80299887D01*
X122120862Y-79662201D01*
X121788529Y-79329868D01*
X125954737Y-79329868D01*
X126065641Y-79607099D01*
X126711593Y-79850323D01*
X127401453Y-79827836D01*
X127934359Y-79607099D01*
X128045263Y-79329868D01*
X127000000Y-78284605D01*
X125954737Y-79329868D01*
X121788529Y-79329868D01*
X121632799Y-79174138D01*
X120995113Y-78910000D01*
X120304887Y-78910000D01*
X119667201Y-79174138D01*
X119179138Y-79662201D01*
X118915000Y-80299887D01*
X103335000Y-80299887D01*
X103070862Y-79662201D01*
X102738529Y-79329868D01*
X106904737Y-79329868D01*
X107015641Y-79607099D01*
X107661593Y-79850323D01*
X108351453Y-79827836D01*
X108884359Y-79607099D01*
X108995263Y-79329868D01*
X107950000Y-78284605D01*
X106904737Y-79329868D01*
X102738529Y-79329868D01*
X102582799Y-79174138D01*
X101945113Y-78910000D01*
X101254887Y-78910000D01*
X100617201Y-79174138D01*
X100129138Y-79662201D01*
X99865000Y-80299887D01*
X84285000Y-80299887D01*
X84020862Y-79662201D01*
X83688529Y-79329868D01*
X87854737Y-79329868D01*
X87965641Y-79607099D01*
X88611593Y-79850323D01*
X89301453Y-79827836D01*
X89834359Y-79607099D01*
X89945263Y-79329868D01*
X88900000Y-78284605D01*
X87854737Y-79329868D01*
X83688529Y-79329868D01*
X83532799Y-79174138D01*
X82895113Y-78910000D01*
X82204887Y-78910000D01*
X81567201Y-79174138D01*
X81079138Y-79662201D01*
X80815000Y-80299887D01*
X66802000Y-80299887D01*
X66802000Y-77816593D01*
X87154677Y-77816593D01*
X87177164Y-78506453D01*
X87397901Y-79039359D01*
X87675132Y-79150263D01*
X88720395Y-78105000D01*
X89079605Y-78105000D01*
X90124868Y-79150263D01*
X90402099Y-79039359D01*
X90645323Y-78393407D01*
X90626521Y-77816593D01*
X106204677Y-77816593D01*
X106227164Y-78506453D01*
X106447901Y-79039359D01*
X106725132Y-79150263D01*
X107770395Y-78105000D01*
X108129605Y-78105000D01*
X109174868Y-79150263D01*
X109452099Y-79039359D01*
X109695323Y-78393407D01*
X109676521Y-77816593D01*
X125254677Y-77816593D01*
X125277164Y-78506453D01*
X125497901Y-79039359D01*
X125775132Y-79150263D01*
X126820395Y-78105000D01*
X127179605Y-78105000D01*
X128224868Y-79150263D01*
X128502099Y-79039359D01*
X128745323Y-78393407D01*
X128722836Y-77703547D01*
X128502099Y-77170641D01*
X128224868Y-77059737D01*
X127179605Y-78105000D01*
X126820395Y-78105000D01*
X125775132Y-77059737D01*
X125497901Y-77170641D01*
X125254677Y-77816593D01*
X109676521Y-77816593D01*
X109672836Y-77703547D01*
X109452099Y-77170641D01*
X109174868Y-77059737D01*
X108129605Y-78105000D01*
X107770395Y-78105000D01*
X106725132Y-77059737D01*
X106447901Y-77170641D01*
X106204677Y-77816593D01*
X90626521Y-77816593D01*
X90622836Y-77703547D01*
X90402099Y-77170641D01*
X90124868Y-77059737D01*
X89079605Y-78105000D01*
X88720395Y-78105000D01*
X87675132Y-77059737D01*
X87397901Y-77170641D01*
X87154677Y-77816593D01*
X66802000Y-77816593D01*
X66802000Y-76880132D01*
X87854737Y-76880132D01*
X88900000Y-77925395D01*
X89945263Y-76880132D01*
X106904737Y-76880132D01*
X107950000Y-77925395D01*
X108995263Y-76880132D01*
X125954737Y-76880132D01*
X127000000Y-77925395D01*
X128045263Y-76880132D01*
X127934359Y-76602901D01*
X127288407Y-76359677D01*
X126598547Y-76382164D01*
X126065641Y-76602901D01*
X125954737Y-76880132D01*
X108995263Y-76880132D01*
X108884359Y-76602901D01*
X108238407Y-76359677D01*
X107548547Y-76382164D01*
X107015641Y-76602901D01*
X106904737Y-76880132D01*
X89945263Y-76880132D01*
X89834359Y-76602901D01*
X89188407Y-76359677D01*
X88498547Y-76382164D01*
X87965641Y-76602901D01*
X87854737Y-76880132D01*
X66802000Y-76880132D01*
X66802000Y-60325000D01*
X75320908Y-60325000D01*
X75436161Y-60904418D01*
X75764375Y-61395625D01*
X76062761Y-61595000D01*
X75764375Y-61794375D01*
X75436161Y-62285582D01*
X75320908Y-62865000D01*
X75436161Y-63444418D01*
X75764375Y-63935625D01*
X76062761Y-64135000D01*
X75764375Y-64334375D01*
X75436161Y-64825582D01*
X75320908Y-65405000D01*
X75436161Y-65984418D01*
X75764375Y-66475625D01*
X76062761Y-66675000D01*
X75764375Y-66874375D01*
X75436161Y-67365582D01*
X75320908Y-67945000D01*
X75436161Y-68524418D01*
X75764375Y-69015625D01*
X75782619Y-69027816D01*
X75737235Y-69036843D01*
X75527191Y-69177191D01*
X75386843Y-69387235D01*
X75337560Y-69635000D01*
X75337560Y-71335000D01*
X75386843Y-71582765D01*
X75527191Y-71792809D01*
X75737235Y-71933157D01*
X75985000Y-71982440D01*
X77685000Y-71982440D01*
X77932765Y-71933157D01*
X78142809Y-71792809D01*
X78283157Y-71582765D01*
X78332440Y-71335000D01*
X78332440Y-69635000D01*
X78283157Y-69387235D01*
X78142809Y-69177191D01*
X77932765Y-69036843D01*
X77887381Y-69027816D01*
X77905625Y-69015625D01*
X78233839Y-68524418D01*
X78349092Y-67945000D01*
X78233839Y-67365582D01*
X77905625Y-66874375D01*
X77607239Y-66675000D01*
X77905625Y-66475625D01*
X78233839Y-65984418D01*
X78349092Y-65405000D01*
X78233839Y-64825582D01*
X77979394Y-64444778D01*
X87210000Y-64444778D01*
X87210000Y-65095222D01*
X87458914Y-65696153D01*
X87918847Y-66156086D01*
X88519778Y-66405000D01*
X89170222Y-66405000D01*
X89771153Y-66156086D01*
X90004707Y-65922532D01*
X92372073Y-65922532D01*
X92470736Y-66189387D01*
X93080461Y-66415908D01*
X93730460Y-66391856D01*
X94219264Y-66189387D01*
X94317927Y-65922532D01*
X94229521Y-65834126D01*
X96120000Y-65834126D01*
X96120000Y-66245874D01*
X96277569Y-66626280D01*
X96395001Y-66743712D01*
X96395000Y-68511289D01*
X96277569Y-68628720D01*
X96120000Y-69009126D01*
X96120000Y-69420874D01*
X96277569Y-69801280D01*
X96568720Y-70092431D01*
X96949126Y-70250000D01*
X97360874Y-70250000D01*
X97741280Y-70092431D01*
X98032431Y-69801280D01*
X98190000Y-69420874D01*
X98190000Y-69009126D01*
X98032431Y-68628720D01*
X97915000Y-68511289D01*
X97915000Y-66743711D01*
X98032431Y-66626280D01*
X98190000Y-66245874D01*
X98190000Y-65834126D01*
X98032431Y-65453720D01*
X97741280Y-65162569D01*
X97360874Y-65005000D01*
X96949126Y-65005000D01*
X96568720Y-65162569D01*
X96277569Y-65453720D01*
X96120000Y-65834126D01*
X94229521Y-65834126D01*
X93345000Y-64949605D01*
X92372073Y-65922532D01*
X90004707Y-65922532D01*
X90231086Y-65696153D01*
X90480000Y-65095222D01*
X90480000Y-64444778D01*
X90411177Y-64278625D01*
X91064802Y-63625000D01*
X92135980Y-63625000D01*
X92078186Y-63682794D01*
X92192466Y-63797074D01*
X91925613Y-63895736D01*
X91699092Y-64505461D01*
X91723144Y-65155460D01*
X91925613Y-65644264D01*
X92192468Y-65742927D01*
X93165395Y-64770000D01*
X93151253Y-64755858D01*
X93330858Y-64576253D01*
X93345000Y-64590395D01*
X93359143Y-64576253D01*
X93538748Y-64755858D01*
X93524605Y-64770000D01*
X94497532Y-65742927D01*
X94764387Y-65644264D01*
X94990908Y-65034539D01*
X94966856Y-64384540D01*
X94764387Y-63895736D01*
X94497534Y-63797074D01*
X94611814Y-63682794D01*
X94554020Y-63625000D01*
X97176289Y-63625000D01*
X97293720Y-63742431D01*
X97674126Y-63900000D01*
X98085874Y-63900000D01*
X98466280Y-63742431D01*
X98757431Y-63451280D01*
X98888954Y-63133755D01*
X99570001Y-63814803D01*
X99570000Y-68511289D01*
X99452569Y-68628720D01*
X99295000Y-69009126D01*
X99295000Y-69420874D01*
X99452569Y-69801280D01*
X99743720Y-70092431D01*
X100124126Y-70250000D01*
X100295001Y-70250000D01*
X100295001Y-71135154D01*
X100280113Y-71210001D01*
X100295001Y-71284848D01*
X100295001Y-71284852D01*
X100339097Y-71506537D01*
X100507072Y-71757930D01*
X100565000Y-71796636D01*
X100565000Y-71960874D01*
X100722569Y-72341280D01*
X101013720Y-72632431D01*
X101394126Y-72790000D01*
X101805874Y-72790000D01*
X102186280Y-72632431D01*
X102477431Y-72341280D01*
X102635000Y-71960874D01*
X102635000Y-71549126D01*
X102477431Y-71168720D01*
X102186280Y-70877569D01*
X101815001Y-70723781D01*
X101815001Y-63663437D01*
X101825458Y-63610866D01*
X102775000Y-63610866D01*
X102775000Y-64659134D01*
X103176155Y-65627608D01*
X103917392Y-66368845D01*
X104885866Y-66770000D01*
X105934134Y-66770000D01*
X106902608Y-66368845D01*
X107643845Y-65627608D01*
X108045000Y-64659134D01*
X108045000Y-63610866D01*
X107643845Y-62642392D01*
X106902608Y-61901155D01*
X105934134Y-61500000D01*
X104885866Y-61500000D01*
X103917392Y-61901155D01*
X103176155Y-62642392D01*
X102775000Y-63610866D01*
X101825458Y-63610866D01*
X101829889Y-63588590D01*
X101815001Y-63513743D01*
X101815001Y-63513739D01*
X101778453Y-63330000D01*
X101945113Y-63330000D01*
X102582799Y-63065862D01*
X103070862Y-62577799D01*
X103335000Y-61940113D01*
X103335000Y-61249887D01*
X103070862Y-60612201D01*
X102738529Y-60279868D01*
X106904737Y-60279868D01*
X107015641Y-60557099D01*
X107661593Y-60800323D01*
X108351453Y-60777836D01*
X108884359Y-60557099D01*
X108995263Y-60279868D01*
X107950000Y-59234605D01*
X106904737Y-60279868D01*
X102738529Y-60279868D01*
X102582799Y-60124138D01*
X101945113Y-59860000D01*
X101254887Y-59860000D01*
X100617201Y-60124138D01*
X100129138Y-60612201D01*
X99865000Y-61249887D01*
X99865000Y-61323788D01*
X98550000Y-60008789D01*
X98550000Y-59123711D01*
X98667431Y-59006280D01*
X98766712Y-58766593D01*
X106204677Y-58766593D01*
X106227164Y-59456453D01*
X106447901Y-59989359D01*
X106725132Y-60100263D01*
X107770395Y-59055000D01*
X106725132Y-58009737D01*
X106447901Y-58120641D01*
X106204677Y-58766593D01*
X98766712Y-58766593D01*
X98825000Y-58625874D01*
X98825000Y-58214126D01*
X98667431Y-57833720D01*
X98376280Y-57542569D01*
X97995874Y-57385000D01*
X97584126Y-57385000D01*
X97203720Y-57542569D01*
X96912569Y-57833720D01*
X96755000Y-58214126D01*
X96755000Y-58625874D01*
X96775595Y-58675595D01*
X96725874Y-58655000D01*
X96314126Y-58655000D01*
X95933720Y-58812569D01*
X95642569Y-59103720D01*
X95485000Y-59484126D01*
X95485000Y-59895874D01*
X95642569Y-60276280D01*
X95933720Y-60567431D01*
X96314126Y-60725000D01*
X96480199Y-60725000D01*
X97611245Y-61856046D01*
X97293720Y-61987569D01*
X97176289Y-62105000D01*
X90824848Y-62105000D01*
X90750000Y-62090112D01*
X90675152Y-62105000D01*
X90675148Y-62105000D01*
X90501605Y-62139520D01*
X90453462Y-62149096D01*
X90266418Y-62274076D01*
X90202071Y-62317071D01*
X90159671Y-62380527D01*
X89336375Y-63203823D01*
X89170222Y-63135000D01*
X88519778Y-63135000D01*
X87918847Y-63383914D01*
X87458914Y-63843847D01*
X87210000Y-64444778D01*
X77979394Y-64444778D01*
X77905625Y-64334375D01*
X77607239Y-64135000D01*
X77905625Y-63935625D01*
X78233839Y-63444418D01*
X78349092Y-62865000D01*
X78233839Y-62285582D01*
X77905625Y-61794375D01*
X77607239Y-61595000D01*
X77905625Y-61395625D01*
X78233839Y-60904418D01*
X78349092Y-60325000D01*
X78233839Y-59745582D01*
X77905625Y-59254375D01*
X77586522Y-59041157D01*
X77716358Y-58980183D01*
X78106645Y-58551924D01*
X78276476Y-58141890D01*
X78172454Y-57944778D01*
X87210000Y-57944778D01*
X87210000Y-58595222D01*
X87458914Y-59196153D01*
X87918847Y-59656086D01*
X88519778Y-59905000D01*
X89170222Y-59905000D01*
X89771153Y-59656086D01*
X90004707Y-59422532D01*
X92372073Y-59422532D01*
X92470736Y-59689387D01*
X93080461Y-59915908D01*
X93730460Y-59891856D01*
X94219264Y-59689387D01*
X94317927Y-59422532D01*
X93345000Y-58449605D01*
X92372073Y-59422532D01*
X90004707Y-59422532D01*
X90231086Y-59196153D01*
X90480000Y-58595222D01*
X90480000Y-58005461D01*
X91699092Y-58005461D01*
X91723144Y-58655460D01*
X91925613Y-59144264D01*
X92192468Y-59242927D01*
X93165395Y-58270000D01*
X93524605Y-58270000D01*
X94497532Y-59242927D01*
X94764387Y-59144264D01*
X94990908Y-58534539D01*
X94966856Y-57884540D01*
X94764387Y-57395736D01*
X94497532Y-57297073D01*
X93524605Y-58270000D01*
X93165395Y-58270000D01*
X92192468Y-57297073D01*
X91925613Y-57395736D01*
X91699092Y-58005461D01*
X90480000Y-58005461D01*
X90480000Y-57944778D01*
X90231086Y-57343847D01*
X90004707Y-57117468D01*
X92372073Y-57117468D01*
X93345000Y-58090395D01*
X94317927Y-57117468D01*
X94219264Y-56850613D01*
X93609539Y-56624092D01*
X92959540Y-56648144D01*
X92470736Y-56850613D01*
X92372073Y-57117468D01*
X90004707Y-57117468D01*
X89771153Y-56883914D01*
X89170222Y-56635000D01*
X88519778Y-56635000D01*
X87918847Y-56883914D01*
X87458914Y-57343847D01*
X87210000Y-57944778D01*
X78172454Y-57944778D01*
X78155155Y-57912000D01*
X76962000Y-57912000D01*
X76962000Y-57932000D01*
X76708000Y-57932000D01*
X76708000Y-57912000D01*
X75514845Y-57912000D01*
X75393524Y-58141890D01*
X75563355Y-58551924D01*
X75953642Y-58980183D01*
X76083478Y-59041157D01*
X75764375Y-59254375D01*
X75436161Y-59745582D01*
X75320908Y-60325000D01*
X66802000Y-60325000D01*
X66802000Y-57428110D01*
X75393524Y-57428110D01*
X75514845Y-57658000D01*
X76708000Y-57658000D01*
X76708000Y-56464181D01*
X76962000Y-56464181D01*
X76962000Y-57658000D01*
X78155155Y-57658000D01*
X78276476Y-57428110D01*
X78106645Y-57018076D01*
X77716358Y-56589817D01*
X77191892Y-56343514D01*
X76962000Y-56464181D01*
X76708000Y-56464181D01*
X76478108Y-56343514D01*
X75953642Y-56589817D01*
X75563355Y-57018076D01*
X75393524Y-57428110D01*
X66802000Y-57428110D01*
X66802000Y-55039126D01*
X98660000Y-55039126D01*
X98660000Y-55450874D01*
X98817569Y-55831280D01*
X99108720Y-56122431D01*
X99489126Y-56280000D01*
X99900874Y-56280000D01*
X100281280Y-56122431D01*
X100398711Y-56005000D01*
X107000199Y-56005000D01*
X108345019Y-57349820D01*
X108238407Y-57309677D01*
X107548547Y-57332164D01*
X107015641Y-57552901D01*
X106904737Y-57830132D01*
X107950000Y-58875395D01*
X107964143Y-58861253D01*
X108143748Y-59040858D01*
X108129605Y-59055000D01*
X109174868Y-60100263D01*
X109452099Y-59989359D01*
X109695323Y-59343407D01*
X109673648Y-58678449D01*
X116310000Y-65314802D01*
X116310001Y-66740148D01*
X116295112Y-66815000D01*
X116310001Y-66889852D01*
X116354097Y-67111537D01*
X116522072Y-67362929D01*
X116585528Y-67405329D01*
X120340000Y-71159803D01*
X120340000Y-71325874D01*
X120497569Y-71706280D01*
X120788720Y-71997431D01*
X121169126Y-72155000D01*
X121580874Y-72155000D01*
X121961280Y-71997431D01*
X122252431Y-71706280D01*
X122410000Y-71325874D01*
X122410000Y-70914126D01*
X122252431Y-70533720D01*
X121993149Y-70274438D01*
X123945608Y-70274438D01*
X123945608Y-70686186D01*
X124103177Y-71066592D01*
X124394328Y-71357743D01*
X124774734Y-71515312D01*
X124940806Y-71515312D01*
X125029968Y-71604475D01*
X125072367Y-71667929D01*
X125135820Y-71710327D01*
X125135822Y-71710329D01*
X125259263Y-71792809D01*
X125323759Y-71835904D01*
X125545444Y-71880000D01*
X125545448Y-71880000D01*
X125620295Y-71894888D01*
X125695142Y-71880000D01*
X132126289Y-71880000D01*
X132243720Y-71997431D01*
X132624126Y-72155000D01*
X133035874Y-72155000D01*
X133416280Y-71997431D01*
X133707431Y-71706280D01*
X133865000Y-71325874D01*
X133865000Y-70914126D01*
X133707431Y-70533720D01*
X133416280Y-70242569D01*
X133035874Y-70085000D01*
X132624126Y-70085000D01*
X132243720Y-70242569D01*
X132126289Y-70360000D01*
X126015608Y-70360000D01*
X126015608Y-70274438D01*
X125858039Y-69894032D01*
X125740608Y-69776601D01*
X125740608Y-65588103D01*
X125972431Y-65356280D01*
X126130000Y-64975874D01*
X126130000Y-64564126D01*
X135215009Y-64564126D01*
X135215009Y-64975874D01*
X135372578Y-65356280D01*
X135663729Y-65647431D01*
X136044135Y-65805000D01*
X136455883Y-65805000D01*
X136836289Y-65647431D01*
X136953720Y-65530000D01*
X137091289Y-65530000D01*
X137208720Y-65647431D01*
X137589126Y-65805000D01*
X138000874Y-65805000D01*
X138381280Y-65647431D01*
X138672431Y-65356280D01*
X138830000Y-64975874D01*
X138830000Y-64564126D01*
X138672431Y-64183720D01*
X138381280Y-63892569D01*
X138000874Y-63735000D01*
X137589126Y-63735000D01*
X137208720Y-63892569D01*
X137091289Y-64010000D01*
X136953720Y-64010000D01*
X136836289Y-63892569D01*
X136455883Y-63735000D01*
X136044135Y-63735000D01*
X135663729Y-63892569D01*
X135372578Y-64183720D01*
X135215009Y-64564126D01*
X126130000Y-64564126D01*
X125972431Y-64183720D01*
X125681280Y-63892569D01*
X125300874Y-63735000D01*
X124889126Y-63735000D01*
X124508720Y-63892569D01*
X124217569Y-64183720D01*
X124060000Y-64564126D01*
X124060000Y-64975874D01*
X124217569Y-65356280D01*
X124220609Y-65359320D01*
X124220608Y-69776601D01*
X124103177Y-69894032D01*
X123945608Y-70274438D01*
X121993149Y-70274438D01*
X121961280Y-70242569D01*
X121580874Y-70085000D01*
X121414803Y-70085000D01*
X117830000Y-66500199D01*
X117830000Y-65760000D01*
X118676289Y-65760000D01*
X118793720Y-65877431D01*
X119174126Y-66035000D01*
X119585874Y-66035000D01*
X119966280Y-65877431D01*
X120015000Y-65828711D01*
X120063720Y-65877431D01*
X120444126Y-66035000D01*
X120855874Y-66035000D01*
X121236280Y-65877431D01*
X121527431Y-65586280D01*
X121685000Y-65205874D01*
X121685000Y-64794126D01*
X121527431Y-64413720D01*
X121410000Y-64296289D01*
X121410000Y-62544801D01*
X123039473Y-60915329D01*
X123102929Y-60872929D01*
X123201772Y-60725000D01*
X123270904Y-60621538D01*
X123281666Y-60567431D01*
X123315000Y-60399852D01*
X123315000Y-60399848D01*
X123329888Y-60325000D01*
X123315000Y-60250152D01*
X123315000Y-59964027D01*
X123619126Y-60090000D01*
X124030874Y-60090000D01*
X124411280Y-59932431D01*
X124528711Y-59815000D01*
X130106289Y-59815000D01*
X130223720Y-59932431D01*
X130604126Y-60090000D01*
X131015874Y-60090000D01*
X131396280Y-59932431D01*
X131687431Y-59641280D01*
X131762500Y-59460047D01*
X131837569Y-59641280D01*
X132128720Y-59932431D01*
X132509126Y-60090000D01*
X132920874Y-60090000D01*
X133301280Y-59932431D01*
X133592431Y-59641280D01*
X133750000Y-59260874D01*
X133750000Y-58849126D01*
X133592431Y-58468720D01*
X133301280Y-58177569D01*
X132920874Y-58020000D01*
X132754802Y-58020000D01*
X132205000Y-57470199D01*
X132205000Y-53532235D01*
X132308247Y-53463247D01*
X132500078Y-53176152D01*
X132567440Y-52837500D01*
X132567440Y-52262500D01*
X132500078Y-51923848D01*
X132333803Y-51675000D01*
X132500078Y-51426152D01*
X132567440Y-51087500D01*
X132567440Y-50512500D01*
X132500078Y-50173848D01*
X132375693Y-49987693D01*
X132480000Y-49735874D01*
X132480000Y-49720431D01*
X138100000Y-49720431D01*
X138100000Y-50609569D01*
X138440259Y-51431026D01*
X139068974Y-52059741D01*
X139890431Y-52400000D01*
X140779569Y-52400000D01*
X141601026Y-52059741D01*
X142229741Y-51431026D01*
X142570000Y-50609569D01*
X142570000Y-49720431D01*
X142229741Y-48898974D01*
X141601026Y-48270259D01*
X140779569Y-47930000D01*
X139890431Y-47930000D01*
X139068974Y-48270259D01*
X138440259Y-48898974D01*
X138100000Y-49720431D01*
X132480000Y-49720431D01*
X132480000Y-49324126D01*
X132322431Y-48943720D01*
X132031280Y-48652569D01*
X131650874Y-48495000D01*
X131239126Y-48495000D01*
X130858720Y-48652569D01*
X130567569Y-48943720D01*
X130410000Y-49324126D01*
X130410000Y-49735874D01*
X130514307Y-49987693D01*
X130389922Y-50173848D01*
X130322560Y-50512500D01*
X130322560Y-51087500D01*
X130389922Y-51426152D01*
X130556197Y-51675000D01*
X130389922Y-51923848D01*
X130322560Y-52262500D01*
X130322560Y-52837500D01*
X130389922Y-53176152D01*
X130581753Y-53463247D01*
X130685000Y-53532235D01*
X130685001Y-57710148D01*
X130670112Y-57785000D01*
X130685001Y-57859852D01*
X130716856Y-58020000D01*
X130604126Y-58020000D01*
X130223720Y-58177569D01*
X130106289Y-58295000D01*
X124528711Y-58295000D01*
X124411280Y-58177569D01*
X124030874Y-58020000D01*
X124029801Y-58020000D01*
X127484473Y-54565329D01*
X127547929Y-54522929D01*
X127715904Y-54271537D01*
X127760000Y-54049852D01*
X127760000Y-54049848D01*
X127774888Y-53975001D01*
X127760000Y-53900154D01*
X127760000Y-53532235D01*
X127863247Y-53463247D01*
X128055078Y-53176152D01*
X128122440Y-52837500D01*
X128122440Y-52262500D01*
X128055078Y-51923848D01*
X127888803Y-51675000D01*
X128055078Y-51426152D01*
X128122440Y-51087500D01*
X128122440Y-50512500D01*
X128055078Y-50173848D01*
X127930693Y-49987693D01*
X128035000Y-49735874D01*
X128035000Y-49324126D01*
X127877431Y-48943720D01*
X127586280Y-48652569D01*
X127205874Y-48495000D01*
X126794126Y-48495000D01*
X126413720Y-48652569D01*
X126122569Y-48943720D01*
X125965000Y-49324126D01*
X125965000Y-49735874D01*
X126069307Y-49987693D01*
X125944922Y-50173848D01*
X125877560Y-50512500D01*
X125877560Y-51087500D01*
X125944922Y-51426152D01*
X126111197Y-51675000D01*
X125944922Y-51923848D01*
X125877560Y-52262500D01*
X125877560Y-52837500D01*
X125944922Y-53176152D01*
X126136753Y-53463247D01*
X126240001Y-53532235D01*
X126240001Y-53660197D01*
X122070530Y-57829669D01*
X122007071Y-57872071D01*
X121839096Y-58123464D01*
X121795000Y-58345149D01*
X121795000Y-58345153D01*
X121780112Y-58420000D01*
X121795000Y-58494847D01*
X121795001Y-60010197D01*
X120165530Y-61639669D01*
X120102071Y-61682071D01*
X119934096Y-61933464D01*
X119890000Y-62155149D01*
X119890000Y-62155153D01*
X119875112Y-62230000D01*
X119890000Y-62304847D01*
X119890001Y-64090973D01*
X119585874Y-63965000D01*
X119174126Y-63965000D01*
X118793720Y-64122569D01*
X118676289Y-64240000D01*
X117384802Y-64240000D01*
X107905331Y-54760530D01*
X107862929Y-54697071D01*
X107611537Y-54529096D01*
X107389852Y-54485000D01*
X107389847Y-54485000D01*
X107315000Y-54470112D01*
X107240153Y-54485000D01*
X100398711Y-54485000D01*
X100281280Y-54367569D01*
X99900874Y-54210000D01*
X99489126Y-54210000D01*
X99108720Y-54367569D01*
X98817569Y-54658720D01*
X98660000Y-55039126D01*
X66802000Y-55039126D01*
X66802000Y-52835750D01*
X121445000Y-52835750D01*
X121445000Y-53201309D01*
X121541673Y-53434698D01*
X121720301Y-53613327D01*
X121953690Y-53710000D01*
X122269250Y-53710000D01*
X122428000Y-53551250D01*
X122428000Y-52677000D01*
X122682000Y-52677000D01*
X122682000Y-53551250D01*
X122840750Y-53710000D01*
X123156310Y-53710000D01*
X123389699Y-53613327D01*
X123568327Y-53434698D01*
X123665000Y-53201309D01*
X123665000Y-52835750D01*
X123506250Y-52677000D01*
X122682000Y-52677000D01*
X122428000Y-52677000D01*
X121603750Y-52677000D01*
X121445000Y-52835750D01*
X66802000Y-52835750D01*
X66802000Y-50217606D01*
X67299175Y-49720431D01*
X68250000Y-49720431D01*
X68250000Y-50609569D01*
X68590259Y-51431026D01*
X69218974Y-52059741D01*
X70040431Y-52400000D01*
X70929569Y-52400000D01*
X71751026Y-52059741D01*
X72379741Y-51431026D01*
X72720000Y-50609569D01*
X72720000Y-50512500D01*
X121432560Y-50512500D01*
X121432560Y-51087500D01*
X121499922Y-51426152D01*
X121612435Y-51594540D01*
X121541673Y-51665302D01*
X121445000Y-51898691D01*
X121445000Y-52264250D01*
X121603750Y-52423000D01*
X122428000Y-52423000D01*
X122428000Y-52403000D01*
X122682000Y-52403000D01*
X122682000Y-52423000D01*
X123506250Y-52423000D01*
X123665000Y-52264250D01*
X123665000Y-51898691D01*
X123568327Y-51665302D01*
X123497565Y-51594540D01*
X123610078Y-51426152D01*
X123677440Y-51087500D01*
X123677440Y-50512500D01*
X123610078Y-50173848D01*
X123485693Y-49987693D01*
X123590000Y-49735874D01*
X123590000Y-49324126D01*
X123432431Y-48943720D01*
X123141280Y-48652569D01*
X122760874Y-48495000D01*
X122349126Y-48495000D01*
X121968720Y-48652569D01*
X121677569Y-48943720D01*
X121520000Y-49324126D01*
X121520000Y-49735874D01*
X121624307Y-49987693D01*
X121499922Y-50173848D01*
X121432560Y-50512500D01*
X72720000Y-50512500D01*
X72720000Y-49720431D01*
X72379741Y-48898974D01*
X71751026Y-48270259D01*
X70929569Y-47930000D01*
X70040431Y-47930000D01*
X69218974Y-48270259D01*
X68590259Y-48898974D01*
X68250000Y-49720431D01*
X67299175Y-49720431D01*
X70537606Y-46482000D01*
X140282394Y-46482000D01*
X144018000Y-50217606D01*
X144018000Y-50217606D01*
G37*
X144018000Y-50217606D02*
X144018000Y-90117394D01*
X140282394Y-93853000D01*
X70537606Y-93853000D01*
X66802000Y-90117394D01*
X66802000Y-89725431D01*
X68250000Y-89725431D01*
X68250000Y-90614569D01*
X68590259Y-91436026D01*
X69218974Y-92064741D01*
X70040431Y-92405000D01*
X70929569Y-92405000D01*
X71751026Y-92064741D01*
X72379741Y-91436026D01*
X72720000Y-90614569D01*
X72720000Y-89725431D01*
X138100000Y-89725431D01*
X138100000Y-90614569D01*
X138440259Y-91436026D01*
X139068974Y-92064741D01*
X139890431Y-92405000D01*
X140779569Y-92405000D01*
X141601026Y-92064741D01*
X142229741Y-91436026D01*
X142570000Y-90614569D01*
X142570000Y-89725431D01*
X142229741Y-88903974D01*
X141601026Y-88275259D01*
X140779569Y-87935000D01*
X139890431Y-87935000D01*
X139068974Y-88275259D01*
X138440259Y-88903974D01*
X138100000Y-89725431D01*
X72720000Y-89725431D01*
X72379741Y-88903974D01*
X71751026Y-88275259D01*
X70929569Y-87935000D01*
X70040431Y-87935000D01*
X69218974Y-88275259D01*
X68590259Y-88903974D01*
X68250000Y-89725431D01*
X66802000Y-89725431D01*
X66802000Y-82660866D01*
X83725000Y-82660866D01*
X83725000Y-83709134D01*
X84126155Y-84677608D01*
X84867392Y-85418845D01*
X85835866Y-85820000D01*
X86884134Y-85820000D01*
X87852608Y-85418845D01*
X88593845Y-84677608D01*
X88995000Y-83709134D01*
X88995000Y-82660866D01*
X102775000Y-82660866D01*
X102775000Y-83709134D01*
X103176155Y-84677608D01*
X103917392Y-85418845D01*
X104885866Y-85820000D01*
X105934134Y-85820000D01*
X106902608Y-85418845D01*
X107643845Y-84677608D01*
X108045000Y-83709134D01*
X108045000Y-82660866D01*
X121825000Y-82660866D01*
X121825000Y-83709134D01*
X122226155Y-84677608D01*
X122967392Y-85418845D01*
X123935866Y-85820000D01*
X124984134Y-85820000D01*
X125952608Y-85418845D01*
X126693845Y-84677608D01*
X127095000Y-83709134D01*
X127095000Y-82660866D01*
X126693845Y-81692392D01*
X125952608Y-80951155D01*
X124984134Y-80550000D01*
X123935866Y-80550000D01*
X122967392Y-80951155D01*
X122226155Y-81692392D01*
X121825000Y-82660866D01*
X108045000Y-82660866D01*
X107643845Y-81692392D01*
X106902608Y-80951155D01*
X105934134Y-80550000D01*
X104885866Y-80550000D01*
X103917392Y-80951155D01*
X103176155Y-81692392D01*
X102775000Y-82660866D01*
X88995000Y-82660866D01*
X88593845Y-81692392D01*
X87852608Y-80951155D01*
X86884134Y-80550000D01*
X85835866Y-80550000D01*
X84867392Y-80951155D01*
X84126155Y-81692392D01*
X83725000Y-82660866D01*
X66802000Y-82660866D01*
X66802000Y-80299887D01*
X80815000Y-80299887D01*
X80815000Y-80990113D01*
X81079138Y-81627799D01*
X81567201Y-82115862D01*
X82204887Y-82380000D01*
X82895113Y-82380000D01*
X83532799Y-82115862D01*
X84020862Y-81627799D01*
X84285000Y-80990113D01*
X84285000Y-80299887D01*
X99865000Y-80299887D01*
X99865000Y-80990113D01*
X100129138Y-81627799D01*
X100617201Y-82115862D01*
X101254887Y-82380000D01*
X101945113Y-82380000D01*
X102582799Y-82115862D01*
X103070862Y-81627799D01*
X103335000Y-80990113D01*
X103335000Y-80299887D01*
X118915000Y-80299887D01*
X118915000Y-80990113D01*
X119179138Y-81627799D01*
X119667201Y-82115862D01*
X120304887Y-82380000D01*
X120995113Y-82380000D01*
X121632799Y-82115862D01*
X122120862Y-81627799D01*
X122385000Y-80990113D01*
X122385000Y-80299887D01*
X122120862Y-79662201D01*
X121788529Y-79329868D01*
X125954737Y-79329868D01*
X126065641Y-79607099D01*
X126711593Y-79850323D01*
X127401453Y-79827836D01*
X127934359Y-79607099D01*
X128045263Y-79329868D01*
X127000000Y-78284605D01*
X125954737Y-79329868D01*
X121788529Y-79329868D01*
X121632799Y-79174138D01*
X120995113Y-78910000D01*
X120304887Y-78910000D01*
X119667201Y-79174138D01*
X119179138Y-79662201D01*
X118915000Y-80299887D01*
X103335000Y-80299887D01*
X103070862Y-79662201D01*
X102738529Y-79329868D01*
X106904737Y-79329868D01*
X107015641Y-79607099D01*
X107661593Y-79850323D01*
X108351453Y-79827836D01*
X108884359Y-79607099D01*
X108995263Y-79329868D01*
X107950000Y-78284605D01*
X106904737Y-79329868D01*
X102738529Y-79329868D01*
X102582799Y-79174138D01*
X101945113Y-78910000D01*
X101254887Y-78910000D01*
X100617201Y-79174138D01*
X100129138Y-79662201D01*
X99865000Y-80299887D01*
X84285000Y-80299887D01*
X84020862Y-79662201D01*
X83688529Y-79329868D01*
X87854737Y-79329868D01*
X87965641Y-79607099D01*
X88611593Y-79850323D01*
X89301453Y-79827836D01*
X89834359Y-79607099D01*
X89945263Y-79329868D01*
X88900000Y-78284605D01*
X87854737Y-79329868D01*
X83688529Y-79329868D01*
X83532799Y-79174138D01*
X82895113Y-78910000D01*
X82204887Y-78910000D01*
X81567201Y-79174138D01*
X81079138Y-79662201D01*
X80815000Y-80299887D01*
X66802000Y-80299887D01*
X66802000Y-77816593D01*
X87154677Y-77816593D01*
X87177164Y-78506453D01*
X87397901Y-79039359D01*
X87675132Y-79150263D01*
X88720395Y-78105000D01*
X89079605Y-78105000D01*
X90124868Y-79150263D01*
X90402099Y-79039359D01*
X90645323Y-78393407D01*
X90626521Y-77816593D01*
X106204677Y-77816593D01*
X106227164Y-78506453D01*
X106447901Y-79039359D01*
X106725132Y-79150263D01*
X107770395Y-78105000D01*
X108129605Y-78105000D01*
X109174868Y-79150263D01*
X109452099Y-79039359D01*
X109695323Y-78393407D01*
X109676521Y-77816593D01*
X125254677Y-77816593D01*
X125277164Y-78506453D01*
X125497901Y-79039359D01*
X125775132Y-79150263D01*
X126820395Y-78105000D01*
X127179605Y-78105000D01*
X128224868Y-79150263D01*
X128502099Y-79039359D01*
X128745323Y-78393407D01*
X128722836Y-77703547D01*
X128502099Y-77170641D01*
X128224868Y-77059737D01*
X127179605Y-78105000D01*
X126820395Y-78105000D01*
X125775132Y-77059737D01*
X125497901Y-77170641D01*
X125254677Y-77816593D01*
X109676521Y-77816593D01*
X109672836Y-77703547D01*
X109452099Y-77170641D01*
X109174868Y-77059737D01*
X108129605Y-78105000D01*
X107770395Y-78105000D01*
X106725132Y-77059737D01*
X106447901Y-77170641D01*
X106204677Y-77816593D01*
X90626521Y-77816593D01*
X90622836Y-77703547D01*
X90402099Y-77170641D01*
X90124868Y-77059737D01*
X89079605Y-78105000D01*
X88720395Y-78105000D01*
X87675132Y-77059737D01*
X87397901Y-77170641D01*
X87154677Y-77816593D01*
X66802000Y-77816593D01*
X66802000Y-76880132D01*
X87854737Y-76880132D01*
X88900000Y-77925395D01*
X89945263Y-76880132D01*
X106904737Y-76880132D01*
X107950000Y-77925395D01*
X108995263Y-76880132D01*
X125954737Y-76880132D01*
X127000000Y-77925395D01*
X128045263Y-76880132D01*
X127934359Y-76602901D01*
X127288407Y-76359677D01*
X126598547Y-76382164D01*
X126065641Y-76602901D01*
X125954737Y-76880132D01*
X108995263Y-76880132D01*
X108884359Y-76602901D01*
X108238407Y-76359677D01*
X107548547Y-76382164D01*
X107015641Y-76602901D01*
X106904737Y-76880132D01*
X89945263Y-76880132D01*
X89834359Y-76602901D01*
X89188407Y-76359677D01*
X88498547Y-76382164D01*
X87965641Y-76602901D01*
X87854737Y-76880132D01*
X66802000Y-76880132D01*
X66802000Y-60325000D01*
X75320908Y-60325000D01*
X75436161Y-60904418D01*
X75764375Y-61395625D01*
X76062761Y-61595000D01*
X75764375Y-61794375D01*
X75436161Y-62285582D01*
X75320908Y-62865000D01*
X75436161Y-63444418D01*
X75764375Y-63935625D01*
X76062761Y-64135000D01*
X75764375Y-64334375D01*
X75436161Y-64825582D01*
X75320908Y-65405000D01*
X75436161Y-65984418D01*
X75764375Y-66475625D01*
X76062761Y-66675000D01*
X75764375Y-66874375D01*
X75436161Y-67365582D01*
X75320908Y-67945000D01*
X75436161Y-68524418D01*
X75764375Y-69015625D01*
X75782619Y-69027816D01*
X75737235Y-69036843D01*
X75527191Y-69177191D01*
X75386843Y-69387235D01*
X75337560Y-69635000D01*
X75337560Y-71335000D01*
X75386843Y-71582765D01*
X75527191Y-71792809D01*
X75737235Y-71933157D01*
X75985000Y-71982440D01*
X77685000Y-71982440D01*
X77932765Y-71933157D01*
X78142809Y-71792809D01*
X78283157Y-71582765D01*
X78332440Y-71335000D01*
X78332440Y-69635000D01*
X78283157Y-69387235D01*
X78142809Y-69177191D01*
X77932765Y-69036843D01*
X77887381Y-69027816D01*
X77905625Y-69015625D01*
X78233839Y-68524418D01*
X78349092Y-67945000D01*
X78233839Y-67365582D01*
X77905625Y-66874375D01*
X77607239Y-66675000D01*
X77905625Y-66475625D01*
X78233839Y-65984418D01*
X78349092Y-65405000D01*
X78233839Y-64825582D01*
X77979394Y-64444778D01*
X87210000Y-64444778D01*
X87210000Y-65095222D01*
X87458914Y-65696153D01*
X87918847Y-66156086D01*
X88519778Y-66405000D01*
X89170222Y-66405000D01*
X89771153Y-66156086D01*
X90004707Y-65922532D01*
X92372073Y-65922532D01*
X92470736Y-66189387D01*
X93080461Y-66415908D01*
X93730460Y-66391856D01*
X94219264Y-66189387D01*
X94317927Y-65922532D01*
X94229521Y-65834126D01*
X96120000Y-65834126D01*
X96120000Y-66245874D01*
X96277569Y-66626280D01*
X96395001Y-66743712D01*
X96395000Y-68511289D01*
X96277569Y-68628720D01*
X96120000Y-69009126D01*
X96120000Y-69420874D01*
X96277569Y-69801280D01*
X96568720Y-70092431D01*
X96949126Y-70250000D01*
X97360874Y-70250000D01*
X97741280Y-70092431D01*
X98032431Y-69801280D01*
X98190000Y-69420874D01*
X98190000Y-69009126D01*
X98032431Y-68628720D01*
X97915000Y-68511289D01*
X97915000Y-66743711D01*
X98032431Y-66626280D01*
X98190000Y-66245874D01*
X98190000Y-65834126D01*
X98032431Y-65453720D01*
X97741280Y-65162569D01*
X97360874Y-65005000D01*
X96949126Y-65005000D01*
X96568720Y-65162569D01*
X96277569Y-65453720D01*
X96120000Y-65834126D01*
X94229521Y-65834126D01*
X93345000Y-64949605D01*
X92372073Y-65922532D01*
X90004707Y-65922532D01*
X90231086Y-65696153D01*
X90480000Y-65095222D01*
X90480000Y-64444778D01*
X90411177Y-64278625D01*
X91064802Y-63625000D01*
X92135980Y-63625000D01*
X92078186Y-63682794D01*
X92192466Y-63797074D01*
X91925613Y-63895736D01*
X91699092Y-64505461D01*
X91723144Y-65155460D01*
X91925613Y-65644264D01*
X92192468Y-65742927D01*
X93165395Y-64770000D01*
X93151253Y-64755858D01*
X93330858Y-64576253D01*
X93345000Y-64590395D01*
X93359143Y-64576253D01*
X93538748Y-64755858D01*
X93524605Y-64770000D01*
X94497532Y-65742927D01*
X94764387Y-65644264D01*
X94990908Y-65034539D01*
X94966856Y-64384540D01*
X94764387Y-63895736D01*
X94497534Y-63797074D01*
X94611814Y-63682794D01*
X94554020Y-63625000D01*
X97176289Y-63625000D01*
X97293720Y-63742431D01*
X97674126Y-63900000D01*
X98085874Y-63900000D01*
X98466280Y-63742431D01*
X98757431Y-63451280D01*
X98888954Y-63133755D01*
X99570001Y-63814803D01*
X99570000Y-68511289D01*
X99452569Y-68628720D01*
X99295000Y-69009126D01*
X99295000Y-69420874D01*
X99452569Y-69801280D01*
X99743720Y-70092431D01*
X100124126Y-70250000D01*
X100295001Y-70250000D01*
X100295001Y-71135154D01*
X100280113Y-71210001D01*
X100295001Y-71284848D01*
X100295001Y-71284852D01*
X100339097Y-71506537D01*
X100507072Y-71757930D01*
X100565000Y-71796636D01*
X100565000Y-71960874D01*
X100722569Y-72341280D01*
X101013720Y-72632431D01*
X101394126Y-72790000D01*
X101805874Y-72790000D01*
X102186280Y-72632431D01*
X102477431Y-72341280D01*
X102635000Y-71960874D01*
X102635000Y-71549126D01*
X102477431Y-71168720D01*
X102186280Y-70877569D01*
X101815001Y-70723781D01*
X101815001Y-63663437D01*
X101825458Y-63610866D01*
X102775000Y-63610866D01*
X102775000Y-64659134D01*
X103176155Y-65627608D01*
X103917392Y-66368845D01*
X104885866Y-66770000D01*
X105934134Y-66770000D01*
X106902608Y-66368845D01*
X107643845Y-65627608D01*
X108045000Y-64659134D01*
X108045000Y-63610866D01*
X107643845Y-62642392D01*
X106902608Y-61901155D01*
X105934134Y-61500000D01*
X104885866Y-61500000D01*
X103917392Y-61901155D01*
X103176155Y-62642392D01*
X102775000Y-63610866D01*
X101825458Y-63610866D01*
X101829889Y-63588590D01*
X101815001Y-63513743D01*
X101815001Y-63513739D01*
X101778453Y-63330000D01*
X101945113Y-63330000D01*
X102582799Y-63065862D01*
X103070862Y-62577799D01*
X103335000Y-61940113D01*
X103335000Y-61249887D01*
X103070862Y-60612201D01*
X102738529Y-60279868D01*
X106904737Y-60279868D01*
X107015641Y-60557099D01*
X107661593Y-60800323D01*
X108351453Y-60777836D01*
X108884359Y-60557099D01*
X108995263Y-60279868D01*
X107950000Y-59234605D01*
X106904737Y-60279868D01*
X102738529Y-60279868D01*
X102582799Y-60124138D01*
X101945113Y-59860000D01*
X101254887Y-59860000D01*
X100617201Y-60124138D01*
X100129138Y-60612201D01*
X99865000Y-61249887D01*
X99865000Y-61323788D01*
X98550000Y-60008789D01*
X98550000Y-59123711D01*
X98667431Y-59006280D01*
X98766712Y-58766593D01*
X106204677Y-58766593D01*
X106227164Y-59456453D01*
X106447901Y-59989359D01*
X106725132Y-60100263D01*
X107770395Y-59055000D01*
X106725132Y-58009737D01*
X106447901Y-58120641D01*
X106204677Y-58766593D01*
X98766712Y-58766593D01*
X98825000Y-58625874D01*
X98825000Y-58214126D01*
X98667431Y-57833720D01*
X98376280Y-57542569D01*
X97995874Y-57385000D01*
X97584126Y-57385000D01*
X97203720Y-57542569D01*
X96912569Y-57833720D01*
X96755000Y-58214126D01*
X96755000Y-58625874D01*
X96775595Y-58675595D01*
X96725874Y-58655000D01*
X96314126Y-58655000D01*
X95933720Y-58812569D01*
X95642569Y-59103720D01*
X95485000Y-59484126D01*
X95485000Y-59895874D01*
X95642569Y-60276280D01*
X95933720Y-60567431D01*
X96314126Y-60725000D01*
X96480199Y-60725000D01*
X97611245Y-61856046D01*
X97293720Y-61987569D01*
X97176289Y-62105000D01*
X90824848Y-62105000D01*
X90750000Y-62090112D01*
X90675152Y-62105000D01*
X90675148Y-62105000D01*
X90501605Y-62139520D01*
X90453462Y-62149096D01*
X90266418Y-62274076D01*
X90202071Y-62317071D01*
X90159671Y-62380527D01*
X89336375Y-63203823D01*
X89170222Y-63135000D01*
X88519778Y-63135000D01*
X87918847Y-63383914D01*
X87458914Y-63843847D01*
X87210000Y-64444778D01*
X77979394Y-64444778D01*
X77905625Y-64334375D01*
X77607239Y-64135000D01*
X77905625Y-63935625D01*
X78233839Y-63444418D01*
X78349092Y-62865000D01*
X78233839Y-62285582D01*
X77905625Y-61794375D01*
X77607239Y-61595000D01*
X77905625Y-61395625D01*
X78233839Y-60904418D01*
X78349092Y-60325000D01*
X78233839Y-59745582D01*
X77905625Y-59254375D01*
X77586522Y-59041157D01*
X77716358Y-58980183D01*
X78106645Y-58551924D01*
X78276476Y-58141890D01*
X78172454Y-57944778D01*
X87210000Y-57944778D01*
X87210000Y-58595222D01*
X87458914Y-59196153D01*
X87918847Y-59656086D01*
X88519778Y-59905000D01*
X89170222Y-59905000D01*
X89771153Y-59656086D01*
X90004707Y-59422532D01*
X92372073Y-59422532D01*
X92470736Y-59689387D01*
X93080461Y-59915908D01*
X93730460Y-59891856D01*
X94219264Y-59689387D01*
X94317927Y-59422532D01*
X93345000Y-58449605D01*
X92372073Y-59422532D01*
X90004707Y-59422532D01*
X90231086Y-59196153D01*
X90480000Y-58595222D01*
X90480000Y-58005461D01*
X91699092Y-58005461D01*
X91723144Y-58655460D01*
X91925613Y-59144264D01*
X92192468Y-59242927D01*
X93165395Y-58270000D01*
X93524605Y-58270000D01*
X94497532Y-59242927D01*
X94764387Y-59144264D01*
X94990908Y-58534539D01*
X94966856Y-57884540D01*
X94764387Y-57395736D01*
X94497532Y-57297073D01*
X93524605Y-58270000D01*
X93165395Y-58270000D01*
X92192468Y-57297073D01*
X91925613Y-57395736D01*
X91699092Y-58005461D01*
X90480000Y-58005461D01*
X90480000Y-57944778D01*
X90231086Y-57343847D01*
X90004707Y-57117468D01*
X92372073Y-57117468D01*
X93345000Y-58090395D01*
X94317927Y-57117468D01*
X94219264Y-56850613D01*
X93609539Y-56624092D01*
X92959540Y-56648144D01*
X92470736Y-56850613D01*
X92372073Y-57117468D01*
X90004707Y-57117468D01*
X89771153Y-56883914D01*
X89170222Y-56635000D01*
X88519778Y-56635000D01*
X87918847Y-56883914D01*
X87458914Y-57343847D01*
X87210000Y-57944778D01*
X78172454Y-57944778D01*
X78155155Y-57912000D01*
X76962000Y-57912000D01*
X76962000Y-57932000D01*
X76708000Y-57932000D01*
X76708000Y-57912000D01*
X75514845Y-57912000D01*
X75393524Y-58141890D01*
X75563355Y-58551924D01*
X75953642Y-58980183D01*
X76083478Y-59041157D01*
X75764375Y-59254375D01*
X75436161Y-59745582D01*
X75320908Y-60325000D01*
X66802000Y-60325000D01*
X66802000Y-57428110D01*
X75393524Y-57428110D01*
X75514845Y-57658000D01*
X76708000Y-57658000D01*
X76708000Y-56464181D01*
X76962000Y-56464181D01*
X76962000Y-57658000D01*
X78155155Y-57658000D01*
X78276476Y-57428110D01*
X78106645Y-57018076D01*
X77716358Y-56589817D01*
X77191892Y-56343514D01*
X76962000Y-56464181D01*
X76708000Y-56464181D01*
X76478108Y-56343514D01*
X75953642Y-56589817D01*
X75563355Y-57018076D01*
X75393524Y-57428110D01*
X66802000Y-57428110D01*
X66802000Y-55039126D01*
X98660000Y-55039126D01*
X98660000Y-55450874D01*
X98817569Y-55831280D01*
X99108720Y-56122431D01*
X99489126Y-56280000D01*
X99900874Y-56280000D01*
X100281280Y-56122431D01*
X100398711Y-56005000D01*
X107000199Y-56005000D01*
X108345019Y-57349820D01*
X108238407Y-57309677D01*
X107548547Y-57332164D01*
X107015641Y-57552901D01*
X106904737Y-57830132D01*
X107950000Y-58875395D01*
X107964143Y-58861253D01*
X108143748Y-59040858D01*
X108129605Y-59055000D01*
X109174868Y-60100263D01*
X109452099Y-59989359D01*
X109695323Y-59343407D01*
X109673648Y-58678449D01*
X116310000Y-65314802D01*
X116310001Y-66740148D01*
X116295112Y-66815000D01*
X116310001Y-66889852D01*
X116354097Y-67111537D01*
X116522072Y-67362929D01*
X116585528Y-67405329D01*
X120340000Y-71159803D01*
X120340000Y-71325874D01*
X120497569Y-71706280D01*
X120788720Y-71997431D01*
X121169126Y-72155000D01*
X121580874Y-72155000D01*
X121961280Y-71997431D01*
X122252431Y-71706280D01*
X122410000Y-71325874D01*
X122410000Y-70914126D01*
X122252431Y-70533720D01*
X121993149Y-70274438D01*
X123945608Y-70274438D01*
X123945608Y-70686186D01*
X124103177Y-71066592D01*
X124394328Y-71357743D01*
X124774734Y-71515312D01*
X124940806Y-71515312D01*
X125029968Y-71604475D01*
X125072367Y-71667929D01*
X125135820Y-71710327D01*
X125135822Y-71710329D01*
X125259263Y-71792809D01*
X125323759Y-71835904D01*
X125545444Y-71880000D01*
X125545448Y-71880000D01*
X125620295Y-71894888D01*
X125695142Y-71880000D01*
X132126289Y-71880000D01*
X132243720Y-71997431D01*
X132624126Y-72155000D01*
X133035874Y-72155000D01*
X133416280Y-71997431D01*
X133707431Y-71706280D01*
X133865000Y-71325874D01*
X133865000Y-70914126D01*
X133707431Y-70533720D01*
X133416280Y-70242569D01*
X133035874Y-70085000D01*
X132624126Y-70085000D01*
X132243720Y-70242569D01*
X132126289Y-70360000D01*
X126015608Y-70360000D01*
X126015608Y-70274438D01*
X125858039Y-69894032D01*
X125740608Y-69776601D01*
X125740608Y-65588103D01*
X125972431Y-65356280D01*
X126130000Y-64975874D01*
X126130000Y-64564126D01*
X135215009Y-64564126D01*
X135215009Y-64975874D01*
X135372578Y-65356280D01*
X135663729Y-65647431D01*
X136044135Y-65805000D01*
X136455883Y-65805000D01*
X136836289Y-65647431D01*
X136953720Y-65530000D01*
X137091289Y-65530000D01*
X137208720Y-65647431D01*
X137589126Y-65805000D01*
X138000874Y-65805000D01*
X138381280Y-65647431D01*
X138672431Y-65356280D01*
X138830000Y-64975874D01*
X138830000Y-64564126D01*
X138672431Y-64183720D01*
X138381280Y-63892569D01*
X138000874Y-63735000D01*
X137589126Y-63735000D01*
X137208720Y-63892569D01*
X137091289Y-64010000D01*
X136953720Y-64010000D01*
X136836289Y-63892569D01*
X136455883Y-63735000D01*
X136044135Y-63735000D01*
X135663729Y-63892569D01*
X135372578Y-64183720D01*
X135215009Y-64564126D01*
X126130000Y-64564126D01*
X125972431Y-64183720D01*
X125681280Y-63892569D01*
X125300874Y-63735000D01*
X124889126Y-63735000D01*
X124508720Y-63892569D01*
X124217569Y-64183720D01*
X124060000Y-64564126D01*
X124060000Y-64975874D01*
X124217569Y-65356280D01*
X124220609Y-65359320D01*
X124220608Y-69776601D01*
X124103177Y-69894032D01*
X123945608Y-70274438D01*
X121993149Y-70274438D01*
X121961280Y-70242569D01*
X121580874Y-70085000D01*
X121414803Y-70085000D01*
X117830000Y-66500199D01*
X117830000Y-65760000D01*
X118676289Y-65760000D01*
X118793720Y-65877431D01*
X119174126Y-66035000D01*
X119585874Y-66035000D01*
X119966280Y-65877431D01*
X120015000Y-65828711D01*
X120063720Y-65877431D01*
X120444126Y-66035000D01*
X120855874Y-66035000D01*
X121236280Y-65877431D01*
X121527431Y-65586280D01*
X121685000Y-65205874D01*
X121685000Y-64794126D01*
X121527431Y-64413720D01*
X121410000Y-64296289D01*
X121410000Y-62544801D01*
X123039473Y-60915329D01*
X123102929Y-60872929D01*
X123201772Y-60725000D01*
X123270904Y-60621538D01*
X123281666Y-60567431D01*
X123315000Y-60399852D01*
X123315000Y-60399848D01*
X123329888Y-60325000D01*
X123315000Y-60250152D01*
X123315000Y-59964027D01*
X123619126Y-60090000D01*
X124030874Y-60090000D01*
X124411280Y-59932431D01*
X124528711Y-59815000D01*
X130106289Y-59815000D01*
X130223720Y-59932431D01*
X130604126Y-60090000D01*
X131015874Y-60090000D01*
X131396280Y-59932431D01*
X131687431Y-59641280D01*
X131762500Y-59460047D01*
X131837569Y-59641280D01*
X132128720Y-59932431D01*
X132509126Y-60090000D01*
X132920874Y-60090000D01*
X133301280Y-59932431D01*
X133592431Y-59641280D01*
X133750000Y-59260874D01*
X133750000Y-58849126D01*
X133592431Y-58468720D01*
X133301280Y-58177569D01*
X132920874Y-58020000D01*
X132754802Y-58020000D01*
X132205000Y-57470199D01*
X132205000Y-53532235D01*
X132308247Y-53463247D01*
X132500078Y-53176152D01*
X132567440Y-52837500D01*
X132567440Y-52262500D01*
X132500078Y-51923848D01*
X132333803Y-51675000D01*
X132500078Y-51426152D01*
X132567440Y-51087500D01*
X132567440Y-50512500D01*
X132500078Y-50173848D01*
X132375693Y-49987693D01*
X132480000Y-49735874D01*
X132480000Y-49720431D01*
X138100000Y-49720431D01*
X138100000Y-50609569D01*
X138440259Y-51431026D01*
X139068974Y-52059741D01*
X139890431Y-52400000D01*
X140779569Y-52400000D01*
X141601026Y-52059741D01*
X142229741Y-51431026D01*
X142570000Y-50609569D01*
X142570000Y-49720431D01*
X142229741Y-48898974D01*
X141601026Y-48270259D01*
X140779569Y-47930000D01*
X139890431Y-47930000D01*
X139068974Y-48270259D01*
X138440259Y-48898974D01*
X138100000Y-49720431D01*
X132480000Y-49720431D01*
X132480000Y-49324126D01*
X132322431Y-48943720D01*
X132031280Y-48652569D01*
X131650874Y-48495000D01*
X131239126Y-48495000D01*
X130858720Y-48652569D01*
X130567569Y-48943720D01*
X130410000Y-49324126D01*
X130410000Y-49735874D01*
X130514307Y-49987693D01*
X130389922Y-50173848D01*
X130322560Y-50512500D01*
X130322560Y-51087500D01*
X130389922Y-51426152D01*
X130556197Y-51675000D01*
X130389922Y-51923848D01*
X130322560Y-52262500D01*
X130322560Y-52837500D01*
X130389922Y-53176152D01*
X130581753Y-53463247D01*
X130685000Y-53532235D01*
X130685001Y-57710148D01*
X130670112Y-57785000D01*
X130685001Y-57859852D01*
X130716856Y-58020000D01*
X130604126Y-58020000D01*
X130223720Y-58177569D01*
X130106289Y-58295000D01*
X124528711Y-58295000D01*
X124411280Y-58177569D01*
X124030874Y-58020000D01*
X124029801Y-58020000D01*
X127484473Y-54565329D01*
X127547929Y-54522929D01*
X127715904Y-54271537D01*
X127760000Y-54049852D01*
X127760000Y-54049848D01*
X127774888Y-53975001D01*
X127760000Y-53900154D01*
X127760000Y-53532235D01*
X127863247Y-53463247D01*
X128055078Y-53176152D01*
X128122440Y-52837500D01*
X128122440Y-52262500D01*
X128055078Y-51923848D01*
X127888803Y-51675000D01*
X128055078Y-51426152D01*
X128122440Y-51087500D01*
X128122440Y-50512500D01*
X128055078Y-50173848D01*
X127930693Y-49987693D01*
X128035000Y-49735874D01*
X128035000Y-49324126D01*
X127877431Y-48943720D01*
X127586280Y-48652569D01*
X127205874Y-48495000D01*
X126794126Y-48495000D01*
X126413720Y-48652569D01*
X126122569Y-48943720D01*
X125965000Y-49324126D01*
X125965000Y-49735874D01*
X126069307Y-49987693D01*
X125944922Y-50173848D01*
X125877560Y-50512500D01*
X125877560Y-51087500D01*
X125944922Y-51426152D01*
X126111197Y-51675000D01*
X125944922Y-51923848D01*
X125877560Y-52262500D01*
X125877560Y-52837500D01*
X125944922Y-53176152D01*
X126136753Y-53463247D01*
X126240001Y-53532235D01*
X126240001Y-53660197D01*
X122070530Y-57829669D01*
X122007071Y-57872071D01*
X121839096Y-58123464D01*
X121795000Y-58345149D01*
X121795000Y-58345153D01*
X121780112Y-58420000D01*
X121795000Y-58494847D01*
X121795001Y-60010197D01*
X120165530Y-61639669D01*
X120102071Y-61682071D01*
X119934096Y-61933464D01*
X119890000Y-62155149D01*
X119890000Y-62155153D01*
X119875112Y-62230000D01*
X119890000Y-62304847D01*
X119890001Y-64090973D01*
X119585874Y-63965000D01*
X119174126Y-63965000D01*
X118793720Y-64122569D01*
X118676289Y-64240000D01*
X117384802Y-64240000D01*
X107905331Y-54760530D01*
X107862929Y-54697071D01*
X107611537Y-54529096D01*
X107389852Y-54485000D01*
X107389847Y-54485000D01*
X107315000Y-54470112D01*
X107240153Y-54485000D01*
X100398711Y-54485000D01*
X100281280Y-54367569D01*
X99900874Y-54210000D01*
X99489126Y-54210000D01*
X99108720Y-54367569D01*
X98817569Y-54658720D01*
X98660000Y-55039126D01*
X66802000Y-55039126D01*
X66802000Y-52835750D01*
X121445000Y-52835750D01*
X121445000Y-53201309D01*
X121541673Y-53434698D01*
X121720301Y-53613327D01*
X121953690Y-53710000D01*
X122269250Y-53710000D01*
X122428000Y-53551250D01*
X122428000Y-52677000D01*
X122682000Y-52677000D01*
X122682000Y-53551250D01*
X122840750Y-53710000D01*
X123156310Y-53710000D01*
X123389699Y-53613327D01*
X123568327Y-53434698D01*
X123665000Y-53201309D01*
X123665000Y-52835750D01*
X123506250Y-52677000D01*
X122682000Y-52677000D01*
X122428000Y-52677000D01*
X121603750Y-52677000D01*
X121445000Y-52835750D01*
X66802000Y-52835750D01*
X66802000Y-50217606D01*
X67299175Y-49720431D01*
X68250000Y-49720431D01*
X68250000Y-50609569D01*
X68590259Y-51431026D01*
X69218974Y-52059741D01*
X70040431Y-52400000D01*
X70929569Y-52400000D01*
X71751026Y-52059741D01*
X72379741Y-51431026D01*
X72720000Y-50609569D01*
X72720000Y-50512500D01*
X121432560Y-50512500D01*
X121432560Y-51087500D01*
X121499922Y-51426152D01*
X121612435Y-51594540D01*
X121541673Y-51665302D01*
X121445000Y-51898691D01*
X121445000Y-52264250D01*
X121603750Y-52423000D01*
X122428000Y-52423000D01*
X122428000Y-52403000D01*
X122682000Y-52403000D01*
X122682000Y-52423000D01*
X123506250Y-52423000D01*
X123665000Y-52264250D01*
X123665000Y-51898691D01*
X123568327Y-51665302D01*
X123497565Y-51594540D01*
X123610078Y-51426152D01*
X123677440Y-51087500D01*
X123677440Y-50512500D01*
X123610078Y-50173848D01*
X123485693Y-49987693D01*
X123590000Y-49735874D01*
X123590000Y-49324126D01*
X123432431Y-48943720D01*
X123141280Y-48652569D01*
X122760874Y-48495000D01*
X122349126Y-48495000D01*
X121968720Y-48652569D01*
X121677569Y-48943720D01*
X121520000Y-49324126D01*
X121520000Y-49735874D01*
X121624307Y-49987693D01*
X121499922Y-50173848D01*
X121432560Y-50512500D01*
X72720000Y-50512500D01*
X72720000Y-49720431D01*
X72379741Y-48898974D01*
X71751026Y-48270259D01*
X70929569Y-47930000D01*
X70040431Y-47930000D01*
X69218974Y-48270259D01*
X68590259Y-48898974D01*
X68250000Y-49720431D01*
X67299175Y-49720431D01*
X70537606Y-46482000D01*
X140282394Y-46482000D01*
X144018000Y-50217606D01*
G04 #@! TD*
M02*
