M48
;DRILL file {KiCad (5.0.0)} date 12/24/18 13:59:52
;FORMAT={-:-/ absolute / metric / decimal}
FMAT,2
METRIC,TZ
T1C0.400
T2C1.000
T3C1.100
T4C1.500
T5C3.200
T6C4.000
%
G90
G05
M71
T1
X96.52Y-59.69
X97.155Y-66.04
X97.155Y-69.215
X97.79Y-58.42
X97.88Y-62.865
X99.695Y-55.245
X100.33Y-69.215
X101.6Y-71.755
X119.38Y-65.
X120.015Y-55.88
X120.65Y-65.
X121.375Y-71.12
X122.555Y-49.53
X123.825Y-55.88
X123.825Y-59.055
X124.981Y-70.48
X125.095Y-64.77
X126.365Y-69.85
X127.Y-49.53
X127.635Y-62.865
X130.81Y-59.055
X131.445Y-49.53
X132.715Y-59.055
X132.715Y-62.865
X132.715Y-69.85
X132.83Y-71.12
X135.89Y-57.785
X135.89Y-61.595
X136.25Y-64.77
X137.795Y-64.77
T2
X76.835Y-57.785
X76.835Y-60.325
X76.835Y-62.865
X76.835Y-65.405
X76.835Y-67.945
X76.835Y-70.485
T3
X88.845Y-58.27
X88.845Y-64.77
X93.345Y-58.27
X93.345Y-64.77
T4
X101.6Y-61.595
X107.95Y-59.055
X120.65Y-80.645
X127.Y-78.105
X82.55Y-80.645
X88.9Y-78.105
X101.6Y-80.645
X107.95Y-78.105
T5
X70.485Y-50.165
X140.335Y-90.17
X70.485Y-90.17
X140.335Y-50.165
T6
X105.41Y-64.135
X124.46Y-83.185
X86.36Y-83.185
X105.41Y-83.185
T0
M30
