G04 #@! TF.GenerationSoftware,KiCad,Pcbnew,(5.0.0)*
G04 #@! TF.CreationDate,2018-12-24T02:24:05+09:00*
G04 #@! TF.ProjectId,mykeyboard,6D796B6579626F6172642E6B69636164,rev?*
G04 #@! TF.SameCoordinates,Original*
G04 #@! TF.FileFunction,Legend,Bot*
G04 #@! TF.FilePolarity,Positive*
%FSLAX46Y46*%
G04 Gerber Fmt 4.6, Leading zero omitted, Abs format (unit mm)*
G04 Created by KiCad (PCBNEW (5.0.0)) date 12/24/18 02:24:05*
%MOMM*%
%LPD*%
G01*
G04 APERTURE LIST*
%ADD10C,0.150000*%
%ADD11C,0.120000*%
G04 APERTURE END LIST*
D10*
X136691666Y-66247142D02*
X136691666Y-66723333D01*
X136977380Y-66151904D02*
X135977380Y-66485238D01*
X136977380Y-66818571D01*
X135977380Y-67009047D02*
X135977380Y-67580476D01*
X136977380Y-67294761D02*
X135977380Y-67294761D01*
X136977380Y-67913809D02*
X136310714Y-67913809D01*
X136405952Y-67913809D02*
X136358333Y-67961428D01*
X136310714Y-68056666D01*
X136310714Y-68199523D01*
X136358333Y-68294761D01*
X136453571Y-68342380D01*
X136977380Y-68342380D01*
X136453571Y-68342380D02*
X136358333Y-68390000D01*
X136310714Y-68485238D01*
X136310714Y-68628095D01*
X136358333Y-68723333D01*
X136453571Y-68770952D01*
X136977380Y-68770952D01*
X136929761Y-69628095D02*
X136977380Y-69532857D01*
X136977380Y-69342380D01*
X136929761Y-69247142D01*
X136834523Y-69199523D01*
X136453571Y-69199523D01*
X136358333Y-69247142D01*
X136310714Y-69342380D01*
X136310714Y-69532857D01*
X136358333Y-69628095D01*
X136453571Y-69675714D01*
X136548809Y-69675714D01*
X136644047Y-69199523D01*
X136310714Y-70532857D02*
X137120238Y-70532857D01*
X137215476Y-70485238D01*
X137263095Y-70437619D01*
X137310714Y-70342380D01*
X137310714Y-70199523D01*
X137263095Y-70104285D01*
X136929761Y-70532857D02*
X136977380Y-70437619D01*
X136977380Y-70247142D01*
X136929761Y-70151904D01*
X136882142Y-70104285D01*
X136786904Y-70056666D01*
X136501190Y-70056666D01*
X136405952Y-70104285D01*
X136358333Y-70151904D01*
X136310714Y-70247142D01*
X136310714Y-70437619D01*
X136358333Y-70532857D01*
X136977380Y-71437619D02*
X136453571Y-71437619D01*
X136358333Y-71390000D01*
X136310714Y-71294761D01*
X136310714Y-71104285D01*
X136358333Y-71009047D01*
X136929761Y-71437619D02*
X136977380Y-71342380D01*
X136977380Y-71104285D01*
X136929761Y-71009047D01*
X136834523Y-70961428D01*
X136739285Y-70961428D01*
X136644047Y-71009047D01*
X136596428Y-71104285D01*
X136596428Y-71342380D01*
X136548809Y-71437619D01*
X135977380Y-71818571D02*
X135977380Y-72437619D01*
X136358333Y-72104285D01*
X136358333Y-72247142D01*
X136405952Y-72342380D01*
X136453571Y-72390000D01*
X136548809Y-72437619D01*
X136786904Y-72437619D01*
X136882142Y-72390000D01*
X136929761Y-72342380D01*
X136977380Y-72247142D01*
X136977380Y-71961428D01*
X136929761Y-71866190D01*
X136882142Y-71818571D01*
X136072619Y-72818571D02*
X136025000Y-72866190D01*
X135977380Y-72961428D01*
X135977380Y-73199523D01*
X136025000Y-73294761D01*
X136072619Y-73342380D01*
X136167857Y-73390000D01*
X136263095Y-73390000D01*
X136405952Y-73342380D01*
X136977380Y-72770952D01*
X136977380Y-73390000D01*
X135977380Y-73818571D02*
X136786904Y-73818571D01*
X136882142Y-73866190D01*
X136929761Y-73913809D01*
X136977380Y-74009047D01*
X136977380Y-74199523D01*
X136929761Y-74294761D01*
X136882142Y-74342380D01*
X136786904Y-74390000D01*
X135977380Y-74390000D01*
X136310714Y-75294761D02*
X136977380Y-75294761D01*
X135929761Y-75056666D02*
X136644047Y-74818571D01*
X136644047Y-75437619D01*
X136596428Y-75818571D02*
X136596428Y-76580476D01*
X136691666Y-77009047D02*
X136691666Y-77485238D01*
X136977380Y-76913809D02*
X135977380Y-77247142D01*
X136977380Y-77580476D01*
X135977380Y-77913809D02*
X136786904Y-77913809D01*
X136882142Y-77961428D01*
X136929761Y-78009047D01*
X136977380Y-78104285D01*
X136977380Y-78294761D01*
X136929761Y-78389999D01*
X136882142Y-78437619D01*
X136786904Y-78485238D01*
X135977380Y-78485238D01*
X81406904Y-57920000D02*
X81502142Y-57872380D01*
X81645000Y-57872380D01*
X81787857Y-57920000D01*
X81883095Y-58015238D01*
X81930714Y-58110476D01*
X81978333Y-58300952D01*
X81978333Y-58443809D01*
X81930714Y-58634285D01*
X81883095Y-58729523D01*
X81787857Y-58824761D01*
X81645000Y-58872380D01*
X81549761Y-58872380D01*
X81406904Y-58824761D01*
X81359285Y-58777142D01*
X81359285Y-58443809D01*
X81549761Y-58443809D01*
X80930714Y-58872380D02*
X80930714Y-57872380D01*
X80359285Y-58872380D01*
X80359285Y-57872380D01*
X79883095Y-58872380D02*
X79883095Y-57872380D01*
X79645000Y-57872380D01*
X79502142Y-57920000D01*
X79406904Y-58015238D01*
X79359285Y-58110476D01*
X79311666Y-58300952D01*
X79311666Y-58443809D01*
X79359285Y-58634285D01*
X79406904Y-58729523D01*
X79502142Y-58824761D01*
X79645000Y-58872380D01*
X79883095Y-58872380D01*
X81192619Y-61412380D02*
X81525952Y-60936190D01*
X81764047Y-61412380D02*
X81764047Y-60412380D01*
X81383095Y-60412380D01*
X81287857Y-60460000D01*
X81240238Y-60507619D01*
X81192619Y-60602857D01*
X81192619Y-60745714D01*
X81240238Y-60840952D01*
X81287857Y-60888571D01*
X81383095Y-60936190D01*
X81764047Y-60936190D01*
X80811666Y-61364761D02*
X80668809Y-61412380D01*
X80430714Y-61412380D01*
X80335476Y-61364761D01*
X80287857Y-61317142D01*
X80240238Y-61221904D01*
X80240238Y-61126666D01*
X80287857Y-61031428D01*
X80335476Y-60983809D01*
X80430714Y-60936190D01*
X80621190Y-60888571D01*
X80716428Y-60840952D01*
X80764047Y-60793333D01*
X80811666Y-60698095D01*
X80811666Y-60602857D01*
X80764047Y-60507619D01*
X80716428Y-60460000D01*
X80621190Y-60412380D01*
X80383095Y-60412380D01*
X80240238Y-60460000D01*
X79954523Y-60412380D02*
X79383095Y-60412380D01*
X79668809Y-61412380D02*
X79668809Y-60412380D01*
X82216428Y-63952380D02*
X82216428Y-62952380D01*
X81883095Y-63666666D01*
X81549761Y-62952380D01*
X81549761Y-63952380D01*
X81073571Y-63952380D02*
X81073571Y-62952380D01*
X80645000Y-63904761D02*
X80502142Y-63952380D01*
X80264047Y-63952380D01*
X80168809Y-63904761D01*
X80121190Y-63857142D01*
X80073571Y-63761904D01*
X80073571Y-63666666D01*
X80121190Y-63571428D01*
X80168809Y-63523809D01*
X80264047Y-63476190D01*
X80454523Y-63428571D01*
X80549761Y-63380952D01*
X80597380Y-63333333D01*
X80645000Y-63238095D01*
X80645000Y-63142857D01*
X80597380Y-63047619D01*
X80549761Y-63000000D01*
X80454523Y-62952380D01*
X80216428Y-62952380D01*
X80073571Y-63000000D01*
X79454523Y-62952380D02*
X79264047Y-62952380D01*
X79168809Y-63000000D01*
X79073571Y-63095238D01*
X79025952Y-63285714D01*
X79025952Y-63619047D01*
X79073571Y-63809523D01*
X79168809Y-63904761D01*
X79264047Y-63952380D01*
X79454523Y-63952380D01*
X79549761Y-63904761D01*
X79645000Y-63809523D01*
X79692619Y-63619047D01*
X79692619Y-63285714D01*
X79645000Y-63095238D01*
X79549761Y-63000000D01*
X79454523Y-62952380D01*
X82216428Y-66492380D02*
X82216428Y-65492380D01*
X81883095Y-66206666D01*
X81549761Y-65492380D01*
X81549761Y-66492380D01*
X80883095Y-65492380D02*
X80692619Y-65492380D01*
X80597380Y-65540000D01*
X80502142Y-65635238D01*
X80454523Y-65825714D01*
X80454523Y-66159047D01*
X80502142Y-66349523D01*
X80597380Y-66444761D01*
X80692619Y-66492380D01*
X80883095Y-66492380D01*
X80978333Y-66444761D01*
X81073571Y-66349523D01*
X81121190Y-66159047D01*
X81121190Y-65825714D01*
X81073571Y-65635238D01*
X80978333Y-65540000D01*
X80883095Y-65492380D01*
X80073571Y-66444761D02*
X79930714Y-66492380D01*
X79692619Y-66492380D01*
X79597380Y-66444761D01*
X79549761Y-66397142D01*
X79502142Y-66301904D01*
X79502142Y-66206666D01*
X79549761Y-66111428D01*
X79597380Y-66063809D01*
X79692619Y-66016190D01*
X79883095Y-65968571D01*
X79978333Y-65920952D01*
X80025952Y-65873333D01*
X80073571Y-65778095D01*
X80073571Y-65682857D01*
X80025952Y-65587619D01*
X79978333Y-65540000D01*
X79883095Y-65492380D01*
X79645000Y-65492380D01*
X79502142Y-65540000D01*
X79073571Y-66492380D02*
X79073571Y-65492380D01*
X81930714Y-68984761D02*
X81787857Y-69032380D01*
X81549761Y-69032380D01*
X81454523Y-68984761D01*
X81406904Y-68937142D01*
X81359285Y-68841904D01*
X81359285Y-68746666D01*
X81406904Y-68651428D01*
X81454523Y-68603809D01*
X81549761Y-68556190D01*
X81740238Y-68508571D01*
X81835476Y-68460952D01*
X81883095Y-68413333D01*
X81930714Y-68318095D01*
X81930714Y-68222857D01*
X81883095Y-68127619D01*
X81835476Y-68080000D01*
X81740238Y-68032380D01*
X81502142Y-68032380D01*
X81359285Y-68080000D01*
X80359285Y-68937142D02*
X80406904Y-68984761D01*
X80549761Y-69032380D01*
X80645000Y-69032380D01*
X80787857Y-68984761D01*
X80883095Y-68889523D01*
X80930714Y-68794285D01*
X80978333Y-68603809D01*
X80978333Y-68460952D01*
X80930714Y-68270476D01*
X80883095Y-68175238D01*
X80787857Y-68080000D01*
X80645000Y-68032380D01*
X80549761Y-68032380D01*
X80406904Y-68080000D01*
X80359285Y-68127619D01*
X79930714Y-69032380D02*
X79930714Y-68032380D01*
X79359285Y-69032380D02*
X79787857Y-68460952D01*
X79359285Y-68032380D02*
X79930714Y-68603809D01*
X81978333Y-70572380D02*
X81645000Y-71572380D01*
X81311666Y-70572380D01*
X80406904Y-71477142D02*
X80454523Y-71524761D01*
X80597380Y-71572380D01*
X80692619Y-71572380D01*
X80835476Y-71524761D01*
X80930714Y-71429523D01*
X80978333Y-71334285D01*
X81025952Y-71143809D01*
X81025952Y-71000952D01*
X80978333Y-70810476D01*
X80930714Y-70715238D01*
X80835476Y-70620000D01*
X80692619Y-70572380D01*
X80597380Y-70572380D01*
X80454523Y-70620000D01*
X80406904Y-70667619D01*
X79406904Y-71477142D02*
X79454523Y-71524761D01*
X79597380Y-71572380D01*
X79692619Y-71572380D01*
X79835476Y-71524761D01*
X79930714Y-71429523D01*
X79978333Y-71334285D01*
X80025952Y-71143809D01*
X80025952Y-71000952D01*
X79978333Y-70810476D01*
X79930714Y-70715238D01*
X79835476Y-70620000D01*
X79692619Y-70572380D01*
X79597380Y-70572380D01*
X79454523Y-70620000D01*
X79406904Y-70667619D01*
D11*
G04 #@! TO.C,SW_RST1*
X90345000Y-58020000D02*
X91845000Y-58020000D01*
X94345000Y-59270000D02*
X94345000Y-63770000D01*
X91845000Y-65020000D02*
X90345000Y-65020000D01*
X87845000Y-63770000D02*
X87845000Y-59270000D01*
G04 #@! TO.C,J2*
X76835000Y-71815000D02*
X77945000Y-71815000D01*
X77945000Y-71815000D02*
X77945000Y-70485000D01*
X66745000Y-71815000D02*
X66745000Y-56455000D01*
X66745000Y-56455000D02*
X75375000Y-56455000D01*
X75375000Y-71815000D02*
X75375000Y-56455000D01*
X66745000Y-71815000D02*
X75375000Y-71815000D01*
X66745000Y-59055000D02*
X75375000Y-59055000D01*
X66745000Y-61595000D02*
X75375000Y-61595000D01*
X66745000Y-64135000D02*
X75375000Y-64135000D01*
X66745000Y-66675000D02*
X75375000Y-66675000D01*
X66745000Y-69215000D02*
X75375000Y-69215000D01*
X75375000Y-57425000D02*
X75785000Y-57425000D01*
X75375000Y-58145000D02*
X75785000Y-58145000D01*
X75375000Y-59965000D02*
X75785000Y-59965000D01*
X75375000Y-60685000D02*
X75785000Y-60685000D01*
X75375000Y-62505000D02*
X75785000Y-62505000D01*
X75375000Y-63225000D02*
X75785000Y-63225000D01*
X75375000Y-65045000D02*
X75785000Y-65045000D01*
X75375000Y-65765000D02*
X75785000Y-65765000D01*
X75375000Y-67585000D02*
X75785000Y-67585000D01*
X75375000Y-68305000D02*
X75785000Y-68305000D01*
X75375000Y-70125000D02*
X75725000Y-70125000D01*
X75375000Y-70845000D02*
X75725000Y-70845000D01*
X66745000Y-69333100D02*
X75375000Y-69333100D01*
X66745000Y-69451195D02*
X75375000Y-69451195D01*
X66745000Y-69569290D02*
X75375000Y-69569290D01*
X66745000Y-69687385D02*
X75375000Y-69687385D01*
X66745000Y-69805480D02*
X75375000Y-69805480D01*
X66745000Y-69923575D02*
X75375000Y-69923575D01*
X66745000Y-70041670D02*
X75375000Y-70041670D01*
X66745000Y-70159765D02*
X75375000Y-70159765D01*
X66745000Y-70277860D02*
X75375000Y-70277860D01*
X66745000Y-70395955D02*
X75375000Y-70395955D01*
X66745000Y-70514050D02*
X75375000Y-70514050D01*
X66745000Y-70632145D02*
X75375000Y-70632145D01*
X66745000Y-70750240D02*
X75375000Y-70750240D01*
X66745000Y-70868335D02*
X75375000Y-70868335D01*
X66745000Y-70986430D02*
X75375000Y-70986430D01*
X66745000Y-71104525D02*
X75375000Y-71104525D01*
X66745000Y-71222620D02*
X75375000Y-71222620D01*
X66745000Y-71340715D02*
X75375000Y-71340715D01*
X66745000Y-71458810D02*
X75375000Y-71458810D01*
X66745000Y-71576905D02*
X75375000Y-71576905D01*
X66745000Y-71695000D02*
X75375000Y-71695000D01*
D10*
G04 #@! TO.C,J1*
X92015000Y-49840000D02*
X92015000Y-48190000D01*
X84515000Y-49840000D02*
X84515000Y-48190000D01*
X84515000Y-49840000D02*
X86515000Y-49840000D01*
X92015000Y-45790000D02*
X92015000Y-44840000D01*
X90015000Y-49840000D02*
X92015000Y-49840000D01*
X84515000Y-44840000D02*
X84515000Y-45790000D01*
X92015000Y-44840000D02*
X84515000Y-44840000D01*
D11*
G04 #@! TO.C,C1*
X115148024Y-55056242D02*
X115148024Y-55398776D01*
X114128024Y-55056242D02*
X114128024Y-55398776D01*
G04 #@! TO.C,C2*
X117053024Y-55056242D02*
X117053024Y-55398776D01*
X116033024Y-55056242D02*
X116033024Y-55398776D01*
G04 #@! TO.C,C3*
X117938024Y-55056242D02*
X117938024Y-55398776D01*
X118958024Y-55056242D02*
X118958024Y-55398776D01*
G04 #@! TO.C,C4*
X133573733Y-57025000D02*
X133916267Y-57025000D01*
X133573733Y-56005000D02*
X133916267Y-56005000D01*
G04 #@! TO.C,C5*
X133573733Y-54100000D02*
X133916267Y-54100000D01*
X133573733Y-55120000D02*
X133916267Y-55120000D01*
G04 #@! TO.C,C6*
X126536267Y-74420000D02*
X126193733Y-74420000D01*
X126536267Y-75440000D02*
X126193733Y-75440000D01*
G04 #@! TO.C,C7*
X119791267Y-66800000D02*
X119448733Y-66800000D01*
X119791267Y-67820000D02*
X119448733Y-67820000D01*
G04 #@! TO.C,D1*
X101100000Y-53677500D02*
X101100000Y-49617500D01*
X103370000Y-53677500D02*
X101100000Y-53677500D01*
X103370000Y-49617500D02*
X103370000Y-53677500D01*
G04 #@! TO.C,F1*
X97290000Y-52817500D02*
X97290000Y-48757500D01*
X97290000Y-48757500D02*
X99560000Y-48757500D01*
X99560000Y-48757500D02*
X99560000Y-52817500D01*
G04 #@! TO.C,R1*
X117698733Y-72265000D02*
X118041267Y-72265000D01*
X117698733Y-71245000D02*
X118041267Y-71245000D01*
G04 #@! TO.C,R2*
X117698733Y-73150000D02*
X118041267Y-73150000D01*
X117698733Y-74170000D02*
X118041267Y-74170000D01*
G04 #@! TO.C,R3*
X119505000Y-49358733D02*
X119505000Y-49701267D01*
X120525000Y-49358733D02*
X120525000Y-49701267D01*
G04 #@! TO.C,R4*
X122430000Y-56343733D02*
X122430000Y-56686267D01*
X121410000Y-56343733D02*
X121410000Y-56686267D01*
G04 #@! TO.C,R5*
X129415000Y-49358733D02*
X129415000Y-49701267D01*
X128395000Y-49358733D02*
X128395000Y-49701267D01*
G04 #@! TO.C,R6*
X123950000Y-49358733D02*
X123950000Y-49701267D01*
X124970000Y-49358733D02*
X124970000Y-49701267D01*
D10*
G04 #@! TO.C,U1*
X123730000Y-71850000D02*
X123730000Y-71275000D01*
X134080000Y-71850000D02*
X134080000Y-71175000D01*
X134080000Y-61500000D02*
X134080000Y-62175000D01*
X123730000Y-61500000D02*
X123730000Y-62175000D01*
X123730000Y-71850000D02*
X124405000Y-71850000D01*
X123730000Y-61500000D02*
X124405000Y-61500000D01*
X134080000Y-61500000D02*
X133405000Y-61500000D01*
X134080000Y-71850000D02*
X133405000Y-71850000D01*
X123730000Y-71275000D02*
X122455000Y-71275000D01*
D11*
G04 #@! TO.C,Y1*
X131002197Y-54937886D02*
X131002197Y-56287886D01*
X129252197Y-54937886D02*
X129252197Y-56287886D01*
G04 #@! TO.C,SW_RST1*
D10*
X95749761Y-58448571D02*
X95797380Y-58591428D01*
X95797380Y-58829523D01*
X95749761Y-58924761D01*
X95702142Y-58972380D01*
X95606904Y-59020000D01*
X95511666Y-59020000D01*
X95416428Y-58972380D01*
X95368809Y-58924761D01*
X95321190Y-58829523D01*
X95273571Y-58639047D01*
X95225952Y-58543809D01*
X95178333Y-58496190D01*
X95083095Y-58448571D01*
X94987857Y-58448571D01*
X94892619Y-58496190D01*
X94845000Y-58543809D01*
X94797380Y-58639047D01*
X94797380Y-58877142D01*
X94845000Y-59020000D01*
X94797380Y-59353333D02*
X95797380Y-59591428D01*
X95083095Y-59781904D01*
X95797380Y-59972380D01*
X94797380Y-60210476D01*
X95892619Y-60353333D02*
X95892619Y-61115238D01*
X95797380Y-61924761D02*
X95321190Y-61591428D01*
X95797380Y-61353333D02*
X94797380Y-61353333D01*
X94797380Y-61734285D01*
X94845000Y-61829523D01*
X94892619Y-61877142D01*
X94987857Y-61924761D01*
X95130714Y-61924761D01*
X95225952Y-61877142D01*
X95273571Y-61829523D01*
X95321190Y-61734285D01*
X95321190Y-61353333D01*
X95749761Y-62305714D02*
X95797380Y-62448571D01*
X95797380Y-62686666D01*
X95749761Y-62781904D01*
X95702142Y-62829523D01*
X95606904Y-62877142D01*
X95511666Y-62877142D01*
X95416428Y-62829523D01*
X95368809Y-62781904D01*
X95321190Y-62686666D01*
X95273571Y-62496190D01*
X95225952Y-62400952D01*
X95178333Y-62353333D01*
X95083095Y-62305714D01*
X94987857Y-62305714D01*
X94892619Y-62353333D01*
X94845000Y-62400952D01*
X94797380Y-62496190D01*
X94797380Y-62734285D01*
X94845000Y-62877142D01*
X94797380Y-63162857D02*
X94797380Y-63734285D01*
X95797380Y-63448571D02*
X94797380Y-63448571D01*
X95797380Y-64591428D02*
X95797380Y-64020000D01*
X95797380Y-64305714D02*
X94797380Y-64305714D01*
X94940238Y-64210476D01*
X95035476Y-64115238D01*
X95083095Y-64020000D01*
G04 #@! TO.C,J2*
X72788333Y-72707380D02*
X72788333Y-73421666D01*
X72835952Y-73564523D01*
X72931190Y-73659761D01*
X73074047Y-73707380D01*
X73169285Y-73707380D01*
X72359761Y-72802619D02*
X72312142Y-72755000D01*
X72216904Y-72707380D01*
X71978809Y-72707380D01*
X71883571Y-72755000D01*
X71835952Y-72802619D01*
X71788333Y-72897857D01*
X71788333Y-72993095D01*
X71835952Y-73135952D01*
X72407380Y-73707380D01*
X71788333Y-73707380D01*
G04 #@! TO.C,J1*
X85423333Y-50887380D02*
X85423333Y-51601666D01*
X85470952Y-51744523D01*
X85566190Y-51839761D01*
X85709047Y-51887380D01*
X85804285Y-51887380D01*
X84423333Y-51887380D02*
X84994761Y-51887380D01*
X84709047Y-51887380D02*
X84709047Y-50887380D01*
X84804285Y-51030238D01*
X84899523Y-51125476D01*
X84994761Y-51173095D01*
G04 #@! TO.C,C1*
X115292142Y-57618333D02*
X115339761Y-57570714D01*
X115387380Y-57427857D01*
X115387380Y-57332619D01*
X115339761Y-57189761D01*
X115244523Y-57094523D01*
X115149285Y-57046904D01*
X114958809Y-56999285D01*
X114815952Y-56999285D01*
X114625476Y-57046904D01*
X114530238Y-57094523D01*
X114435000Y-57189761D01*
X114387380Y-57332619D01*
X114387380Y-57427857D01*
X114435000Y-57570714D01*
X114482619Y-57618333D01*
X115387380Y-58570714D02*
X115387380Y-57999285D01*
X115387380Y-58285000D02*
X114387380Y-58285000D01*
X114530238Y-58189761D01*
X114625476Y-58094523D01*
X114673095Y-57999285D01*
G04 #@! TO.C,C2*
X117197142Y-57618333D02*
X117244761Y-57570714D01*
X117292380Y-57427857D01*
X117292380Y-57332619D01*
X117244761Y-57189761D01*
X117149523Y-57094523D01*
X117054285Y-57046904D01*
X116863809Y-56999285D01*
X116720952Y-56999285D01*
X116530476Y-57046904D01*
X116435238Y-57094523D01*
X116340000Y-57189761D01*
X116292380Y-57332619D01*
X116292380Y-57427857D01*
X116340000Y-57570714D01*
X116387619Y-57618333D01*
X116387619Y-57999285D02*
X116340000Y-58046904D01*
X116292380Y-58142142D01*
X116292380Y-58380238D01*
X116340000Y-58475476D01*
X116387619Y-58523095D01*
X116482857Y-58570714D01*
X116578095Y-58570714D01*
X116720952Y-58523095D01*
X117292380Y-57951666D01*
X117292380Y-58570714D01*
G04 #@! TO.C,C3*
X119102142Y-57618333D02*
X119149761Y-57570714D01*
X119197380Y-57427857D01*
X119197380Y-57332619D01*
X119149761Y-57189761D01*
X119054523Y-57094523D01*
X118959285Y-57046904D01*
X118768809Y-56999285D01*
X118625952Y-56999285D01*
X118435476Y-57046904D01*
X118340238Y-57094523D01*
X118245000Y-57189761D01*
X118197380Y-57332619D01*
X118197380Y-57427857D01*
X118245000Y-57570714D01*
X118292619Y-57618333D01*
X118197380Y-57951666D02*
X118197380Y-58570714D01*
X118578333Y-58237380D01*
X118578333Y-58380238D01*
X118625952Y-58475476D01*
X118673571Y-58523095D01*
X118768809Y-58570714D01*
X119006904Y-58570714D01*
X119102142Y-58523095D01*
X119149761Y-58475476D01*
X119197380Y-58380238D01*
X119197380Y-58094523D01*
X119149761Y-57999285D01*
X119102142Y-57951666D01*
G04 #@! TO.C,C4*
X136691666Y-56872142D02*
X136739285Y-56919761D01*
X136882142Y-56967380D01*
X136977380Y-56967380D01*
X137120238Y-56919761D01*
X137215476Y-56824523D01*
X137263095Y-56729285D01*
X137310714Y-56538809D01*
X137310714Y-56395952D01*
X137263095Y-56205476D01*
X137215476Y-56110238D01*
X137120238Y-56015000D01*
X136977380Y-55967380D01*
X136882142Y-55967380D01*
X136739285Y-56015000D01*
X136691666Y-56062619D01*
X135834523Y-56300714D02*
X135834523Y-56967380D01*
X136072619Y-55919761D02*
X136310714Y-56634047D01*
X135691666Y-56634047D01*
G04 #@! TO.C,C5*
X136691666Y-54967142D02*
X136739285Y-55014761D01*
X136882142Y-55062380D01*
X136977380Y-55062380D01*
X137120238Y-55014761D01*
X137215476Y-54919523D01*
X137263095Y-54824285D01*
X137310714Y-54633809D01*
X137310714Y-54490952D01*
X137263095Y-54300476D01*
X137215476Y-54205238D01*
X137120238Y-54110000D01*
X136977380Y-54062380D01*
X136882142Y-54062380D01*
X136739285Y-54110000D01*
X136691666Y-54157619D01*
X135786904Y-54062380D02*
X136263095Y-54062380D01*
X136310714Y-54538571D01*
X136263095Y-54490952D01*
X136167857Y-54443333D01*
X135929761Y-54443333D01*
X135834523Y-54490952D01*
X135786904Y-54538571D01*
X135739285Y-54633809D01*
X135739285Y-54871904D01*
X135786904Y-54967142D01*
X135834523Y-55014761D01*
X135929761Y-55062380D01*
X136167857Y-55062380D01*
X136263095Y-55014761D01*
X136310714Y-54967142D01*
G04 #@! TO.C,C6*
X129071666Y-75287142D02*
X129119285Y-75334761D01*
X129262142Y-75382380D01*
X129357380Y-75382380D01*
X129500238Y-75334761D01*
X129595476Y-75239523D01*
X129643095Y-75144285D01*
X129690714Y-74953809D01*
X129690714Y-74810952D01*
X129643095Y-74620476D01*
X129595476Y-74525238D01*
X129500238Y-74430000D01*
X129357380Y-74382380D01*
X129262142Y-74382380D01*
X129119285Y-74430000D01*
X129071666Y-74477619D01*
X128214523Y-74382380D02*
X128405000Y-74382380D01*
X128500238Y-74430000D01*
X128547857Y-74477619D01*
X128643095Y-74620476D01*
X128690714Y-74810952D01*
X128690714Y-75191904D01*
X128643095Y-75287142D01*
X128595476Y-75334761D01*
X128500238Y-75382380D01*
X128309761Y-75382380D01*
X128214523Y-75334761D01*
X128166904Y-75287142D01*
X128119285Y-75191904D01*
X128119285Y-74953809D01*
X128166904Y-74858571D01*
X128214523Y-74810952D01*
X128309761Y-74763333D01*
X128500238Y-74763333D01*
X128595476Y-74810952D01*
X128643095Y-74858571D01*
X128690714Y-74953809D01*
G04 #@! TO.C,C7*
X117006666Y-67667142D02*
X117054285Y-67714761D01*
X117197142Y-67762380D01*
X117292380Y-67762380D01*
X117435238Y-67714761D01*
X117530476Y-67619523D01*
X117578095Y-67524285D01*
X117625714Y-67333809D01*
X117625714Y-67190952D01*
X117578095Y-67000476D01*
X117530476Y-66905238D01*
X117435238Y-66810000D01*
X117292380Y-66762380D01*
X117197142Y-66762380D01*
X117054285Y-66810000D01*
X117006666Y-66857619D01*
X116673333Y-66762380D02*
X116006666Y-66762380D01*
X116435238Y-67762380D01*
G04 #@! TO.C,D1*
X104507380Y-50479404D02*
X103507380Y-50479404D01*
X103507380Y-50717500D01*
X103555000Y-50860357D01*
X103650238Y-50955595D01*
X103745476Y-51003214D01*
X103935952Y-51050833D01*
X104078809Y-51050833D01*
X104269285Y-51003214D01*
X104364523Y-50955595D01*
X104459761Y-50860357D01*
X104507380Y-50717500D01*
X104507380Y-50479404D01*
X104507380Y-52003214D02*
X104507380Y-51431785D01*
X104507380Y-51717500D02*
X103507380Y-51717500D01*
X103650238Y-51622261D01*
X103745476Y-51527023D01*
X103793095Y-51431785D01*
G04 #@! TO.C,F1*
X96533571Y-50884166D02*
X96533571Y-50550833D01*
X97057380Y-50550833D02*
X96057380Y-50550833D01*
X96057380Y-51027023D01*
X97057380Y-51931785D02*
X97057380Y-51360357D01*
X97057380Y-51646071D02*
X96057380Y-51646071D01*
X96200238Y-51550833D01*
X96295476Y-51455595D01*
X96343095Y-51360357D01*
G04 #@! TO.C,R1*
X115101666Y-72207380D02*
X115435000Y-71731190D01*
X115673095Y-72207380D02*
X115673095Y-71207380D01*
X115292142Y-71207380D01*
X115196904Y-71255000D01*
X115149285Y-71302619D01*
X115101666Y-71397857D01*
X115101666Y-71540714D01*
X115149285Y-71635952D01*
X115196904Y-71683571D01*
X115292142Y-71731190D01*
X115673095Y-71731190D01*
X114149285Y-72207380D02*
X114720714Y-72207380D01*
X114435000Y-72207380D02*
X114435000Y-71207380D01*
X114530238Y-71350238D01*
X114625476Y-71445476D01*
X114720714Y-71493095D01*
G04 #@! TO.C,R2*
X115101666Y-74112380D02*
X115435000Y-73636190D01*
X115673095Y-74112380D02*
X115673095Y-73112380D01*
X115292142Y-73112380D01*
X115196904Y-73160000D01*
X115149285Y-73207619D01*
X115101666Y-73302857D01*
X115101666Y-73445714D01*
X115149285Y-73540952D01*
X115196904Y-73588571D01*
X115292142Y-73636190D01*
X115673095Y-73636190D01*
X114720714Y-73207619D02*
X114673095Y-73160000D01*
X114577857Y-73112380D01*
X114339761Y-73112380D01*
X114244523Y-73160000D01*
X114196904Y-73207619D01*
X114149285Y-73302857D01*
X114149285Y-73398095D01*
X114196904Y-73540952D01*
X114768333Y-74112380D01*
X114149285Y-74112380D01*
G04 #@! TO.C,R3*
X119037380Y-47458333D02*
X118561190Y-47125000D01*
X119037380Y-46886904D02*
X118037380Y-46886904D01*
X118037380Y-47267857D01*
X118085000Y-47363095D01*
X118132619Y-47410714D01*
X118227857Y-47458333D01*
X118370714Y-47458333D01*
X118465952Y-47410714D01*
X118513571Y-47363095D01*
X118561190Y-47267857D01*
X118561190Y-46886904D01*
X118037380Y-47791666D02*
X118037380Y-48410714D01*
X118418333Y-48077380D01*
X118418333Y-48220238D01*
X118465952Y-48315476D01*
X118513571Y-48363095D01*
X118608809Y-48410714D01*
X118846904Y-48410714D01*
X118942142Y-48363095D01*
X118989761Y-48315476D01*
X119037380Y-48220238D01*
X119037380Y-47934523D01*
X118989761Y-47839285D01*
X118942142Y-47791666D01*
G04 #@! TO.C,R4*
X120942380Y-57618333D02*
X120466190Y-57285000D01*
X120942380Y-57046904D02*
X119942380Y-57046904D01*
X119942380Y-57427857D01*
X119990000Y-57523095D01*
X120037619Y-57570714D01*
X120132857Y-57618333D01*
X120275714Y-57618333D01*
X120370952Y-57570714D01*
X120418571Y-57523095D01*
X120466190Y-57427857D01*
X120466190Y-57046904D01*
X120275714Y-58475476D02*
X120942380Y-58475476D01*
X119894761Y-58237380D02*
X120609047Y-57999285D01*
X120609047Y-58618333D01*
G04 #@! TO.C,R5*
X127927380Y-47458333D02*
X127451190Y-47125000D01*
X127927380Y-46886904D02*
X126927380Y-46886904D01*
X126927380Y-47267857D01*
X126975000Y-47363095D01*
X127022619Y-47410714D01*
X127117857Y-47458333D01*
X127260714Y-47458333D01*
X127355952Y-47410714D01*
X127403571Y-47363095D01*
X127451190Y-47267857D01*
X127451190Y-46886904D01*
X126927380Y-48363095D02*
X126927380Y-47886904D01*
X127403571Y-47839285D01*
X127355952Y-47886904D01*
X127308333Y-47982142D01*
X127308333Y-48220238D01*
X127355952Y-48315476D01*
X127403571Y-48363095D01*
X127498809Y-48410714D01*
X127736904Y-48410714D01*
X127832142Y-48363095D01*
X127879761Y-48315476D01*
X127927380Y-48220238D01*
X127927380Y-47982142D01*
X127879761Y-47886904D01*
X127832142Y-47839285D01*
G04 #@! TO.C,R6*
X123482380Y-47458333D02*
X123006190Y-47125000D01*
X123482380Y-46886904D02*
X122482380Y-46886904D01*
X122482380Y-47267857D01*
X122530000Y-47363095D01*
X122577619Y-47410714D01*
X122672857Y-47458333D01*
X122815714Y-47458333D01*
X122910952Y-47410714D01*
X122958571Y-47363095D01*
X123006190Y-47267857D01*
X123006190Y-46886904D01*
X122482380Y-48315476D02*
X122482380Y-48125000D01*
X122530000Y-48029761D01*
X122577619Y-47982142D01*
X122720476Y-47886904D01*
X122910952Y-47839285D01*
X123291904Y-47839285D01*
X123387142Y-47886904D01*
X123434761Y-47934523D01*
X123482380Y-48029761D01*
X123482380Y-48220238D01*
X123434761Y-48315476D01*
X123387142Y-48363095D01*
X123291904Y-48410714D01*
X123053809Y-48410714D01*
X122958571Y-48363095D01*
X122910952Y-48315476D01*
X122863333Y-48220238D01*
X122863333Y-48029761D01*
X122910952Y-47934523D01*
X122958571Y-47886904D01*
X123053809Y-47839285D01*
G04 #@! TO.C,U1*
X134072380Y-73533095D02*
X134881904Y-73533095D01*
X134977142Y-73580714D01*
X135024761Y-73628333D01*
X135072380Y-73723571D01*
X135072380Y-73914047D01*
X135024761Y-74009285D01*
X134977142Y-74056904D01*
X134881904Y-74104523D01*
X134072380Y-74104523D01*
X135072380Y-75104523D02*
X135072380Y-74533095D01*
X135072380Y-74818809D02*
X134072380Y-74818809D01*
X134215238Y-74723571D01*
X134310476Y-74628333D01*
X134358095Y-74533095D01*
G04 #@! TO.C,Y1*
X128103387Y-55136695D02*
X128579577Y-55136695D01*
X127579577Y-54803362D02*
X128103387Y-55136695D01*
X127579577Y-55470028D01*
X128579577Y-56327171D02*
X128579577Y-55755743D01*
X128579577Y-56041457D02*
X127579577Y-56041457D01*
X127722435Y-55946219D01*
X127817673Y-55850981D01*
X127865292Y-55755743D01*
G04 #@! TD*
M02*
