G04 #@! TF.GenerationSoftware,KiCad,Pcbnew,(5.0.0)*
G04 #@! TF.CreationDate,2018-12-24T02:24:05+09:00*
G04 #@! TF.ProjectId,mykeyboard,6D796B6579626F6172642E6B69636164,rev?*
G04 #@! TF.SameCoordinates,Original*
G04 #@! TF.FileFunction,Soldermask,Bot*
G04 #@! TF.FilePolarity,Negative*
%FSLAX46Y46*%
G04 Gerber Fmt 4.6, Leading zero omitted, Abs format (unit mm)*
G04 Created by KiCad (PCBNEW (5.0.0)) date 12/24/18 02:24:05*
%MOMM*%
%LPD*%
G01*
G04 APERTURE LIST*
%ADD10C,3.600000*%
%ADD11C,4.400000*%
%ADD12C,2.600000*%
%ADD13C,2.400000*%
%ADD14O,2.100000X2.100000*%
%ADD15R,2.100000X2.100000*%
%ADD16R,3.000000X2.300000*%
%ADD17R,0.800000X2.800000*%
%ADD18C,0.100000*%
%ADD19C,1.350000*%
%ADD20C,1.825000*%
%ADD21R,1.900000X0.950000*%
%ADD22R,0.950000X1.900000*%
%ADD23R,2.200000X1.400000*%
G04 APERTURE END LIST*
D10*
G04 #@! TO.C,*
X70485000Y-90170000D03*
G04 #@! TD*
G04 #@! TO.C,*
X70485000Y-50165000D03*
G04 #@! TD*
D11*
G04 #@! TO.C,SW_DOWN1*
X105410000Y-83185000D03*
D12*
X101600000Y-80645000D03*
X107950000Y-78105000D03*
G04 #@! TD*
D11*
G04 #@! TO.C,SW_LEFT1*
X86360000Y-83185000D03*
D12*
X82550000Y-80645000D03*
X88900000Y-78105000D03*
G04 #@! TD*
D11*
G04 #@! TO.C,SW_RIGHT1*
X124460000Y-83185000D03*
D12*
X120650000Y-80645000D03*
X127000000Y-78105000D03*
G04 #@! TD*
D11*
G04 #@! TO.C,SW_UP1*
X105410000Y-64135000D03*
D12*
X101600000Y-61595000D03*
X107950000Y-59055000D03*
G04 #@! TD*
D13*
G04 #@! TO.C,SW_RST1*
X93345000Y-58270000D03*
X88845000Y-58270000D03*
X93345000Y-64770000D03*
X88845000Y-64770000D03*
G04 #@! TD*
D14*
G04 #@! TO.C,J2*
X76835000Y-57785000D03*
X76835000Y-60325000D03*
X76835000Y-62865000D03*
X76835000Y-65405000D03*
X76835000Y-67945000D03*
D15*
X76835000Y-70485000D03*
G04 #@! TD*
D16*
G04 #@! TO.C,J1*
X92865000Y-46990000D03*
X83665000Y-46990000D03*
D17*
X86965000Y-50190000D03*
X87615000Y-50190000D03*
X88265000Y-50190000D03*
X88915000Y-50190000D03*
X89565000Y-50190000D03*
G04 #@! TD*
D18*
G04 #@! TO.C,C1*
G36*
X115008605Y-55379134D02*
X115041367Y-55383994D01*
X115073495Y-55392042D01*
X115104680Y-55403200D01*
X115134620Y-55417361D01*
X115163029Y-55434388D01*
X115189632Y-55454118D01*
X115214173Y-55476360D01*
X115236415Y-55500901D01*
X115256145Y-55527504D01*
X115273172Y-55555913D01*
X115287333Y-55585853D01*
X115298491Y-55617038D01*
X115306539Y-55649166D01*
X115311399Y-55681928D01*
X115313024Y-55715009D01*
X115313024Y-56490009D01*
X115311399Y-56523090D01*
X115306539Y-56555852D01*
X115298491Y-56587980D01*
X115287333Y-56619165D01*
X115273172Y-56649105D01*
X115256145Y-56677514D01*
X115236415Y-56704117D01*
X115214173Y-56728658D01*
X115189632Y-56750900D01*
X115163029Y-56770630D01*
X115134620Y-56787657D01*
X115104680Y-56801818D01*
X115073495Y-56812976D01*
X115041367Y-56821024D01*
X115008605Y-56825884D01*
X114975524Y-56827509D01*
X114300524Y-56827509D01*
X114267443Y-56825884D01*
X114234681Y-56821024D01*
X114202553Y-56812976D01*
X114171368Y-56801818D01*
X114141428Y-56787657D01*
X114113019Y-56770630D01*
X114086416Y-56750900D01*
X114061875Y-56728658D01*
X114039633Y-56704117D01*
X114019903Y-56677514D01*
X114002876Y-56649105D01*
X113988715Y-56619165D01*
X113977557Y-56587980D01*
X113969509Y-56555852D01*
X113964649Y-56523090D01*
X113963024Y-56490009D01*
X113963024Y-55715009D01*
X113964649Y-55681928D01*
X113969509Y-55649166D01*
X113977557Y-55617038D01*
X113988715Y-55585853D01*
X114002876Y-55555913D01*
X114019903Y-55527504D01*
X114039633Y-55500901D01*
X114061875Y-55476360D01*
X114086416Y-55454118D01*
X114113019Y-55434388D01*
X114141428Y-55417361D01*
X114171368Y-55403200D01*
X114202553Y-55392042D01*
X114234681Y-55383994D01*
X114267443Y-55379134D01*
X114300524Y-55377509D01*
X114975524Y-55377509D01*
X115008605Y-55379134D01*
X115008605Y-55379134D01*
G37*
D19*
X114638024Y-56102509D03*
D18*
G36*
X115008605Y-53629134D02*
X115041367Y-53633994D01*
X115073495Y-53642042D01*
X115104680Y-53653200D01*
X115134620Y-53667361D01*
X115163029Y-53684388D01*
X115189632Y-53704118D01*
X115214173Y-53726360D01*
X115236415Y-53750901D01*
X115256145Y-53777504D01*
X115273172Y-53805913D01*
X115287333Y-53835853D01*
X115298491Y-53867038D01*
X115306539Y-53899166D01*
X115311399Y-53931928D01*
X115313024Y-53965009D01*
X115313024Y-54740009D01*
X115311399Y-54773090D01*
X115306539Y-54805852D01*
X115298491Y-54837980D01*
X115287333Y-54869165D01*
X115273172Y-54899105D01*
X115256145Y-54927514D01*
X115236415Y-54954117D01*
X115214173Y-54978658D01*
X115189632Y-55000900D01*
X115163029Y-55020630D01*
X115134620Y-55037657D01*
X115104680Y-55051818D01*
X115073495Y-55062976D01*
X115041367Y-55071024D01*
X115008605Y-55075884D01*
X114975524Y-55077509D01*
X114300524Y-55077509D01*
X114267443Y-55075884D01*
X114234681Y-55071024D01*
X114202553Y-55062976D01*
X114171368Y-55051818D01*
X114141428Y-55037657D01*
X114113019Y-55020630D01*
X114086416Y-55000900D01*
X114061875Y-54978658D01*
X114039633Y-54954117D01*
X114019903Y-54927514D01*
X114002876Y-54899105D01*
X113988715Y-54869165D01*
X113977557Y-54837980D01*
X113969509Y-54805852D01*
X113964649Y-54773090D01*
X113963024Y-54740009D01*
X113963024Y-53965009D01*
X113964649Y-53931928D01*
X113969509Y-53899166D01*
X113977557Y-53867038D01*
X113988715Y-53835853D01*
X114002876Y-53805913D01*
X114019903Y-53777504D01*
X114039633Y-53750901D01*
X114061875Y-53726360D01*
X114086416Y-53704118D01*
X114113019Y-53684388D01*
X114141428Y-53667361D01*
X114171368Y-53653200D01*
X114202553Y-53642042D01*
X114234681Y-53633994D01*
X114267443Y-53629134D01*
X114300524Y-53627509D01*
X114975524Y-53627509D01*
X115008605Y-53629134D01*
X115008605Y-53629134D01*
G37*
D19*
X114638024Y-54352509D03*
G04 #@! TD*
D18*
G04 #@! TO.C,C2*
G36*
X116913605Y-55379134D02*
X116946367Y-55383994D01*
X116978495Y-55392042D01*
X117009680Y-55403200D01*
X117039620Y-55417361D01*
X117068029Y-55434388D01*
X117094632Y-55454118D01*
X117119173Y-55476360D01*
X117141415Y-55500901D01*
X117161145Y-55527504D01*
X117178172Y-55555913D01*
X117192333Y-55585853D01*
X117203491Y-55617038D01*
X117211539Y-55649166D01*
X117216399Y-55681928D01*
X117218024Y-55715009D01*
X117218024Y-56490009D01*
X117216399Y-56523090D01*
X117211539Y-56555852D01*
X117203491Y-56587980D01*
X117192333Y-56619165D01*
X117178172Y-56649105D01*
X117161145Y-56677514D01*
X117141415Y-56704117D01*
X117119173Y-56728658D01*
X117094632Y-56750900D01*
X117068029Y-56770630D01*
X117039620Y-56787657D01*
X117009680Y-56801818D01*
X116978495Y-56812976D01*
X116946367Y-56821024D01*
X116913605Y-56825884D01*
X116880524Y-56827509D01*
X116205524Y-56827509D01*
X116172443Y-56825884D01*
X116139681Y-56821024D01*
X116107553Y-56812976D01*
X116076368Y-56801818D01*
X116046428Y-56787657D01*
X116018019Y-56770630D01*
X115991416Y-56750900D01*
X115966875Y-56728658D01*
X115944633Y-56704117D01*
X115924903Y-56677514D01*
X115907876Y-56649105D01*
X115893715Y-56619165D01*
X115882557Y-56587980D01*
X115874509Y-56555852D01*
X115869649Y-56523090D01*
X115868024Y-56490009D01*
X115868024Y-55715009D01*
X115869649Y-55681928D01*
X115874509Y-55649166D01*
X115882557Y-55617038D01*
X115893715Y-55585853D01*
X115907876Y-55555913D01*
X115924903Y-55527504D01*
X115944633Y-55500901D01*
X115966875Y-55476360D01*
X115991416Y-55454118D01*
X116018019Y-55434388D01*
X116046428Y-55417361D01*
X116076368Y-55403200D01*
X116107553Y-55392042D01*
X116139681Y-55383994D01*
X116172443Y-55379134D01*
X116205524Y-55377509D01*
X116880524Y-55377509D01*
X116913605Y-55379134D01*
X116913605Y-55379134D01*
G37*
D19*
X116543024Y-56102509D03*
D18*
G36*
X116913605Y-53629134D02*
X116946367Y-53633994D01*
X116978495Y-53642042D01*
X117009680Y-53653200D01*
X117039620Y-53667361D01*
X117068029Y-53684388D01*
X117094632Y-53704118D01*
X117119173Y-53726360D01*
X117141415Y-53750901D01*
X117161145Y-53777504D01*
X117178172Y-53805913D01*
X117192333Y-53835853D01*
X117203491Y-53867038D01*
X117211539Y-53899166D01*
X117216399Y-53931928D01*
X117218024Y-53965009D01*
X117218024Y-54740009D01*
X117216399Y-54773090D01*
X117211539Y-54805852D01*
X117203491Y-54837980D01*
X117192333Y-54869165D01*
X117178172Y-54899105D01*
X117161145Y-54927514D01*
X117141415Y-54954117D01*
X117119173Y-54978658D01*
X117094632Y-55000900D01*
X117068029Y-55020630D01*
X117039620Y-55037657D01*
X117009680Y-55051818D01*
X116978495Y-55062976D01*
X116946367Y-55071024D01*
X116913605Y-55075884D01*
X116880524Y-55077509D01*
X116205524Y-55077509D01*
X116172443Y-55075884D01*
X116139681Y-55071024D01*
X116107553Y-55062976D01*
X116076368Y-55051818D01*
X116046428Y-55037657D01*
X116018019Y-55020630D01*
X115991416Y-55000900D01*
X115966875Y-54978658D01*
X115944633Y-54954117D01*
X115924903Y-54927514D01*
X115907876Y-54899105D01*
X115893715Y-54869165D01*
X115882557Y-54837980D01*
X115874509Y-54805852D01*
X115869649Y-54773090D01*
X115868024Y-54740009D01*
X115868024Y-53965009D01*
X115869649Y-53931928D01*
X115874509Y-53899166D01*
X115882557Y-53867038D01*
X115893715Y-53835853D01*
X115907876Y-53805913D01*
X115924903Y-53777504D01*
X115944633Y-53750901D01*
X115966875Y-53726360D01*
X115991416Y-53704118D01*
X116018019Y-53684388D01*
X116046428Y-53667361D01*
X116076368Y-53653200D01*
X116107553Y-53642042D01*
X116139681Y-53633994D01*
X116172443Y-53629134D01*
X116205524Y-53627509D01*
X116880524Y-53627509D01*
X116913605Y-53629134D01*
X116913605Y-53629134D01*
G37*
D19*
X116543024Y-54352509D03*
G04 #@! TD*
D18*
G04 #@! TO.C,C3*
G36*
X118818605Y-53629134D02*
X118851367Y-53633994D01*
X118883495Y-53642042D01*
X118914680Y-53653200D01*
X118944620Y-53667361D01*
X118973029Y-53684388D01*
X118999632Y-53704118D01*
X119024173Y-53726360D01*
X119046415Y-53750901D01*
X119066145Y-53777504D01*
X119083172Y-53805913D01*
X119097333Y-53835853D01*
X119108491Y-53867038D01*
X119116539Y-53899166D01*
X119121399Y-53931928D01*
X119123024Y-53965009D01*
X119123024Y-54740009D01*
X119121399Y-54773090D01*
X119116539Y-54805852D01*
X119108491Y-54837980D01*
X119097333Y-54869165D01*
X119083172Y-54899105D01*
X119066145Y-54927514D01*
X119046415Y-54954117D01*
X119024173Y-54978658D01*
X118999632Y-55000900D01*
X118973029Y-55020630D01*
X118944620Y-55037657D01*
X118914680Y-55051818D01*
X118883495Y-55062976D01*
X118851367Y-55071024D01*
X118818605Y-55075884D01*
X118785524Y-55077509D01*
X118110524Y-55077509D01*
X118077443Y-55075884D01*
X118044681Y-55071024D01*
X118012553Y-55062976D01*
X117981368Y-55051818D01*
X117951428Y-55037657D01*
X117923019Y-55020630D01*
X117896416Y-55000900D01*
X117871875Y-54978658D01*
X117849633Y-54954117D01*
X117829903Y-54927514D01*
X117812876Y-54899105D01*
X117798715Y-54869165D01*
X117787557Y-54837980D01*
X117779509Y-54805852D01*
X117774649Y-54773090D01*
X117773024Y-54740009D01*
X117773024Y-53965009D01*
X117774649Y-53931928D01*
X117779509Y-53899166D01*
X117787557Y-53867038D01*
X117798715Y-53835853D01*
X117812876Y-53805913D01*
X117829903Y-53777504D01*
X117849633Y-53750901D01*
X117871875Y-53726360D01*
X117896416Y-53704118D01*
X117923019Y-53684388D01*
X117951428Y-53667361D01*
X117981368Y-53653200D01*
X118012553Y-53642042D01*
X118044681Y-53633994D01*
X118077443Y-53629134D01*
X118110524Y-53627509D01*
X118785524Y-53627509D01*
X118818605Y-53629134D01*
X118818605Y-53629134D01*
G37*
D19*
X118448024Y-54352509D03*
D18*
G36*
X118818605Y-55379134D02*
X118851367Y-55383994D01*
X118883495Y-55392042D01*
X118914680Y-55403200D01*
X118944620Y-55417361D01*
X118973029Y-55434388D01*
X118999632Y-55454118D01*
X119024173Y-55476360D01*
X119046415Y-55500901D01*
X119066145Y-55527504D01*
X119083172Y-55555913D01*
X119097333Y-55585853D01*
X119108491Y-55617038D01*
X119116539Y-55649166D01*
X119121399Y-55681928D01*
X119123024Y-55715009D01*
X119123024Y-56490009D01*
X119121399Y-56523090D01*
X119116539Y-56555852D01*
X119108491Y-56587980D01*
X119097333Y-56619165D01*
X119083172Y-56649105D01*
X119066145Y-56677514D01*
X119046415Y-56704117D01*
X119024173Y-56728658D01*
X118999632Y-56750900D01*
X118973029Y-56770630D01*
X118944620Y-56787657D01*
X118914680Y-56801818D01*
X118883495Y-56812976D01*
X118851367Y-56821024D01*
X118818605Y-56825884D01*
X118785524Y-56827509D01*
X118110524Y-56827509D01*
X118077443Y-56825884D01*
X118044681Y-56821024D01*
X118012553Y-56812976D01*
X117981368Y-56801818D01*
X117951428Y-56787657D01*
X117923019Y-56770630D01*
X117896416Y-56750900D01*
X117871875Y-56728658D01*
X117849633Y-56704117D01*
X117829903Y-56677514D01*
X117812876Y-56649105D01*
X117798715Y-56619165D01*
X117787557Y-56587980D01*
X117779509Y-56555852D01*
X117774649Y-56523090D01*
X117773024Y-56490009D01*
X117773024Y-55715009D01*
X117774649Y-55681928D01*
X117779509Y-55649166D01*
X117787557Y-55617038D01*
X117798715Y-55585853D01*
X117812876Y-55555913D01*
X117829903Y-55527504D01*
X117849633Y-55500901D01*
X117871875Y-55476360D01*
X117896416Y-55454118D01*
X117923019Y-55434388D01*
X117951428Y-55417361D01*
X117981368Y-55403200D01*
X118012553Y-55392042D01*
X118044681Y-55383994D01*
X118077443Y-55379134D01*
X118110524Y-55377509D01*
X118785524Y-55377509D01*
X118818605Y-55379134D01*
X118818605Y-55379134D01*
G37*
D19*
X118448024Y-56102509D03*
G04 #@! TD*
D18*
G04 #@! TO.C,C4*
G36*
X133290581Y-55841625D02*
X133323343Y-55846485D01*
X133355471Y-55854533D01*
X133386656Y-55865691D01*
X133416596Y-55879852D01*
X133445005Y-55896879D01*
X133471608Y-55916609D01*
X133496149Y-55938851D01*
X133518391Y-55963392D01*
X133538121Y-55989995D01*
X133555148Y-56018404D01*
X133569309Y-56048344D01*
X133580467Y-56079529D01*
X133588515Y-56111657D01*
X133593375Y-56144419D01*
X133595000Y-56177500D01*
X133595000Y-56852500D01*
X133593375Y-56885581D01*
X133588515Y-56918343D01*
X133580467Y-56950471D01*
X133569309Y-56981656D01*
X133555148Y-57011596D01*
X133538121Y-57040005D01*
X133518391Y-57066608D01*
X133496149Y-57091149D01*
X133471608Y-57113391D01*
X133445005Y-57133121D01*
X133416596Y-57150148D01*
X133386656Y-57164309D01*
X133355471Y-57175467D01*
X133323343Y-57183515D01*
X133290581Y-57188375D01*
X133257500Y-57190000D01*
X132482500Y-57190000D01*
X132449419Y-57188375D01*
X132416657Y-57183515D01*
X132384529Y-57175467D01*
X132353344Y-57164309D01*
X132323404Y-57150148D01*
X132294995Y-57133121D01*
X132268392Y-57113391D01*
X132243851Y-57091149D01*
X132221609Y-57066608D01*
X132201879Y-57040005D01*
X132184852Y-57011596D01*
X132170691Y-56981656D01*
X132159533Y-56950471D01*
X132151485Y-56918343D01*
X132146625Y-56885581D01*
X132145000Y-56852500D01*
X132145000Y-56177500D01*
X132146625Y-56144419D01*
X132151485Y-56111657D01*
X132159533Y-56079529D01*
X132170691Y-56048344D01*
X132184852Y-56018404D01*
X132201879Y-55989995D01*
X132221609Y-55963392D01*
X132243851Y-55938851D01*
X132268392Y-55916609D01*
X132294995Y-55896879D01*
X132323404Y-55879852D01*
X132353344Y-55865691D01*
X132384529Y-55854533D01*
X132416657Y-55846485D01*
X132449419Y-55841625D01*
X132482500Y-55840000D01*
X133257500Y-55840000D01*
X133290581Y-55841625D01*
X133290581Y-55841625D01*
G37*
D19*
X132870000Y-56515000D03*
D18*
G36*
X135040581Y-55841625D02*
X135073343Y-55846485D01*
X135105471Y-55854533D01*
X135136656Y-55865691D01*
X135166596Y-55879852D01*
X135195005Y-55896879D01*
X135221608Y-55916609D01*
X135246149Y-55938851D01*
X135268391Y-55963392D01*
X135288121Y-55989995D01*
X135305148Y-56018404D01*
X135319309Y-56048344D01*
X135330467Y-56079529D01*
X135338515Y-56111657D01*
X135343375Y-56144419D01*
X135345000Y-56177500D01*
X135345000Y-56852500D01*
X135343375Y-56885581D01*
X135338515Y-56918343D01*
X135330467Y-56950471D01*
X135319309Y-56981656D01*
X135305148Y-57011596D01*
X135288121Y-57040005D01*
X135268391Y-57066608D01*
X135246149Y-57091149D01*
X135221608Y-57113391D01*
X135195005Y-57133121D01*
X135166596Y-57150148D01*
X135136656Y-57164309D01*
X135105471Y-57175467D01*
X135073343Y-57183515D01*
X135040581Y-57188375D01*
X135007500Y-57190000D01*
X134232500Y-57190000D01*
X134199419Y-57188375D01*
X134166657Y-57183515D01*
X134134529Y-57175467D01*
X134103344Y-57164309D01*
X134073404Y-57150148D01*
X134044995Y-57133121D01*
X134018392Y-57113391D01*
X133993851Y-57091149D01*
X133971609Y-57066608D01*
X133951879Y-57040005D01*
X133934852Y-57011596D01*
X133920691Y-56981656D01*
X133909533Y-56950471D01*
X133901485Y-56918343D01*
X133896625Y-56885581D01*
X133895000Y-56852500D01*
X133895000Y-56177500D01*
X133896625Y-56144419D01*
X133901485Y-56111657D01*
X133909533Y-56079529D01*
X133920691Y-56048344D01*
X133934852Y-56018404D01*
X133951879Y-55989995D01*
X133971609Y-55963392D01*
X133993851Y-55938851D01*
X134018392Y-55916609D01*
X134044995Y-55896879D01*
X134073404Y-55879852D01*
X134103344Y-55865691D01*
X134134529Y-55854533D01*
X134166657Y-55846485D01*
X134199419Y-55841625D01*
X134232500Y-55840000D01*
X135007500Y-55840000D01*
X135040581Y-55841625D01*
X135040581Y-55841625D01*
G37*
D19*
X134620000Y-56515000D03*
G04 #@! TD*
D18*
G04 #@! TO.C,C5*
G36*
X135040581Y-53936625D02*
X135073343Y-53941485D01*
X135105471Y-53949533D01*
X135136656Y-53960691D01*
X135166596Y-53974852D01*
X135195005Y-53991879D01*
X135221608Y-54011609D01*
X135246149Y-54033851D01*
X135268391Y-54058392D01*
X135288121Y-54084995D01*
X135305148Y-54113404D01*
X135319309Y-54143344D01*
X135330467Y-54174529D01*
X135338515Y-54206657D01*
X135343375Y-54239419D01*
X135345000Y-54272500D01*
X135345000Y-54947500D01*
X135343375Y-54980581D01*
X135338515Y-55013343D01*
X135330467Y-55045471D01*
X135319309Y-55076656D01*
X135305148Y-55106596D01*
X135288121Y-55135005D01*
X135268391Y-55161608D01*
X135246149Y-55186149D01*
X135221608Y-55208391D01*
X135195005Y-55228121D01*
X135166596Y-55245148D01*
X135136656Y-55259309D01*
X135105471Y-55270467D01*
X135073343Y-55278515D01*
X135040581Y-55283375D01*
X135007500Y-55285000D01*
X134232500Y-55285000D01*
X134199419Y-55283375D01*
X134166657Y-55278515D01*
X134134529Y-55270467D01*
X134103344Y-55259309D01*
X134073404Y-55245148D01*
X134044995Y-55228121D01*
X134018392Y-55208391D01*
X133993851Y-55186149D01*
X133971609Y-55161608D01*
X133951879Y-55135005D01*
X133934852Y-55106596D01*
X133920691Y-55076656D01*
X133909533Y-55045471D01*
X133901485Y-55013343D01*
X133896625Y-54980581D01*
X133895000Y-54947500D01*
X133895000Y-54272500D01*
X133896625Y-54239419D01*
X133901485Y-54206657D01*
X133909533Y-54174529D01*
X133920691Y-54143344D01*
X133934852Y-54113404D01*
X133951879Y-54084995D01*
X133971609Y-54058392D01*
X133993851Y-54033851D01*
X134018392Y-54011609D01*
X134044995Y-53991879D01*
X134073404Y-53974852D01*
X134103344Y-53960691D01*
X134134529Y-53949533D01*
X134166657Y-53941485D01*
X134199419Y-53936625D01*
X134232500Y-53935000D01*
X135007500Y-53935000D01*
X135040581Y-53936625D01*
X135040581Y-53936625D01*
G37*
D19*
X134620000Y-54610000D03*
D18*
G36*
X133290581Y-53936625D02*
X133323343Y-53941485D01*
X133355471Y-53949533D01*
X133386656Y-53960691D01*
X133416596Y-53974852D01*
X133445005Y-53991879D01*
X133471608Y-54011609D01*
X133496149Y-54033851D01*
X133518391Y-54058392D01*
X133538121Y-54084995D01*
X133555148Y-54113404D01*
X133569309Y-54143344D01*
X133580467Y-54174529D01*
X133588515Y-54206657D01*
X133593375Y-54239419D01*
X133595000Y-54272500D01*
X133595000Y-54947500D01*
X133593375Y-54980581D01*
X133588515Y-55013343D01*
X133580467Y-55045471D01*
X133569309Y-55076656D01*
X133555148Y-55106596D01*
X133538121Y-55135005D01*
X133518391Y-55161608D01*
X133496149Y-55186149D01*
X133471608Y-55208391D01*
X133445005Y-55228121D01*
X133416596Y-55245148D01*
X133386656Y-55259309D01*
X133355471Y-55270467D01*
X133323343Y-55278515D01*
X133290581Y-55283375D01*
X133257500Y-55285000D01*
X132482500Y-55285000D01*
X132449419Y-55283375D01*
X132416657Y-55278515D01*
X132384529Y-55270467D01*
X132353344Y-55259309D01*
X132323404Y-55245148D01*
X132294995Y-55228121D01*
X132268392Y-55208391D01*
X132243851Y-55186149D01*
X132221609Y-55161608D01*
X132201879Y-55135005D01*
X132184852Y-55106596D01*
X132170691Y-55076656D01*
X132159533Y-55045471D01*
X132151485Y-55013343D01*
X132146625Y-54980581D01*
X132145000Y-54947500D01*
X132145000Y-54272500D01*
X132146625Y-54239419D01*
X132151485Y-54206657D01*
X132159533Y-54174529D01*
X132170691Y-54143344D01*
X132184852Y-54113404D01*
X132201879Y-54084995D01*
X132221609Y-54058392D01*
X132243851Y-54033851D01*
X132268392Y-54011609D01*
X132294995Y-53991879D01*
X132323404Y-53974852D01*
X132353344Y-53960691D01*
X132384529Y-53949533D01*
X132416657Y-53941485D01*
X132449419Y-53936625D01*
X132482500Y-53935000D01*
X133257500Y-53935000D01*
X133290581Y-53936625D01*
X133290581Y-53936625D01*
G37*
D19*
X132870000Y-54610000D03*
G04 #@! TD*
D18*
G04 #@! TO.C,C6*
G36*
X127660581Y-74256625D02*
X127693343Y-74261485D01*
X127725471Y-74269533D01*
X127756656Y-74280691D01*
X127786596Y-74294852D01*
X127815005Y-74311879D01*
X127841608Y-74331609D01*
X127866149Y-74353851D01*
X127888391Y-74378392D01*
X127908121Y-74404995D01*
X127925148Y-74433404D01*
X127939309Y-74463344D01*
X127950467Y-74494529D01*
X127958515Y-74526657D01*
X127963375Y-74559419D01*
X127965000Y-74592500D01*
X127965000Y-75267500D01*
X127963375Y-75300581D01*
X127958515Y-75333343D01*
X127950467Y-75365471D01*
X127939309Y-75396656D01*
X127925148Y-75426596D01*
X127908121Y-75455005D01*
X127888391Y-75481608D01*
X127866149Y-75506149D01*
X127841608Y-75528391D01*
X127815005Y-75548121D01*
X127786596Y-75565148D01*
X127756656Y-75579309D01*
X127725471Y-75590467D01*
X127693343Y-75598515D01*
X127660581Y-75603375D01*
X127627500Y-75605000D01*
X126852500Y-75605000D01*
X126819419Y-75603375D01*
X126786657Y-75598515D01*
X126754529Y-75590467D01*
X126723344Y-75579309D01*
X126693404Y-75565148D01*
X126664995Y-75548121D01*
X126638392Y-75528391D01*
X126613851Y-75506149D01*
X126591609Y-75481608D01*
X126571879Y-75455005D01*
X126554852Y-75426596D01*
X126540691Y-75396656D01*
X126529533Y-75365471D01*
X126521485Y-75333343D01*
X126516625Y-75300581D01*
X126515000Y-75267500D01*
X126515000Y-74592500D01*
X126516625Y-74559419D01*
X126521485Y-74526657D01*
X126529533Y-74494529D01*
X126540691Y-74463344D01*
X126554852Y-74433404D01*
X126571879Y-74404995D01*
X126591609Y-74378392D01*
X126613851Y-74353851D01*
X126638392Y-74331609D01*
X126664995Y-74311879D01*
X126693404Y-74294852D01*
X126723344Y-74280691D01*
X126754529Y-74269533D01*
X126786657Y-74261485D01*
X126819419Y-74256625D01*
X126852500Y-74255000D01*
X127627500Y-74255000D01*
X127660581Y-74256625D01*
X127660581Y-74256625D01*
G37*
D19*
X127240000Y-74930000D03*
D18*
G36*
X125910581Y-74256625D02*
X125943343Y-74261485D01*
X125975471Y-74269533D01*
X126006656Y-74280691D01*
X126036596Y-74294852D01*
X126065005Y-74311879D01*
X126091608Y-74331609D01*
X126116149Y-74353851D01*
X126138391Y-74378392D01*
X126158121Y-74404995D01*
X126175148Y-74433404D01*
X126189309Y-74463344D01*
X126200467Y-74494529D01*
X126208515Y-74526657D01*
X126213375Y-74559419D01*
X126215000Y-74592500D01*
X126215000Y-75267500D01*
X126213375Y-75300581D01*
X126208515Y-75333343D01*
X126200467Y-75365471D01*
X126189309Y-75396656D01*
X126175148Y-75426596D01*
X126158121Y-75455005D01*
X126138391Y-75481608D01*
X126116149Y-75506149D01*
X126091608Y-75528391D01*
X126065005Y-75548121D01*
X126036596Y-75565148D01*
X126006656Y-75579309D01*
X125975471Y-75590467D01*
X125943343Y-75598515D01*
X125910581Y-75603375D01*
X125877500Y-75605000D01*
X125102500Y-75605000D01*
X125069419Y-75603375D01*
X125036657Y-75598515D01*
X125004529Y-75590467D01*
X124973344Y-75579309D01*
X124943404Y-75565148D01*
X124914995Y-75548121D01*
X124888392Y-75528391D01*
X124863851Y-75506149D01*
X124841609Y-75481608D01*
X124821879Y-75455005D01*
X124804852Y-75426596D01*
X124790691Y-75396656D01*
X124779533Y-75365471D01*
X124771485Y-75333343D01*
X124766625Y-75300581D01*
X124765000Y-75267500D01*
X124765000Y-74592500D01*
X124766625Y-74559419D01*
X124771485Y-74526657D01*
X124779533Y-74494529D01*
X124790691Y-74463344D01*
X124804852Y-74433404D01*
X124821879Y-74404995D01*
X124841609Y-74378392D01*
X124863851Y-74353851D01*
X124888392Y-74331609D01*
X124914995Y-74311879D01*
X124943404Y-74294852D01*
X124973344Y-74280691D01*
X125004529Y-74269533D01*
X125036657Y-74261485D01*
X125069419Y-74256625D01*
X125102500Y-74255000D01*
X125877500Y-74255000D01*
X125910581Y-74256625D01*
X125910581Y-74256625D01*
G37*
D19*
X125490000Y-74930000D03*
G04 #@! TD*
D18*
G04 #@! TO.C,C7*
G36*
X120915581Y-66636625D02*
X120948343Y-66641485D01*
X120980471Y-66649533D01*
X121011656Y-66660691D01*
X121041596Y-66674852D01*
X121070005Y-66691879D01*
X121096608Y-66711609D01*
X121121149Y-66733851D01*
X121143391Y-66758392D01*
X121163121Y-66784995D01*
X121180148Y-66813404D01*
X121194309Y-66843344D01*
X121205467Y-66874529D01*
X121213515Y-66906657D01*
X121218375Y-66939419D01*
X121220000Y-66972500D01*
X121220000Y-67647500D01*
X121218375Y-67680581D01*
X121213515Y-67713343D01*
X121205467Y-67745471D01*
X121194309Y-67776656D01*
X121180148Y-67806596D01*
X121163121Y-67835005D01*
X121143391Y-67861608D01*
X121121149Y-67886149D01*
X121096608Y-67908391D01*
X121070005Y-67928121D01*
X121041596Y-67945148D01*
X121011656Y-67959309D01*
X120980471Y-67970467D01*
X120948343Y-67978515D01*
X120915581Y-67983375D01*
X120882500Y-67985000D01*
X120107500Y-67985000D01*
X120074419Y-67983375D01*
X120041657Y-67978515D01*
X120009529Y-67970467D01*
X119978344Y-67959309D01*
X119948404Y-67945148D01*
X119919995Y-67928121D01*
X119893392Y-67908391D01*
X119868851Y-67886149D01*
X119846609Y-67861608D01*
X119826879Y-67835005D01*
X119809852Y-67806596D01*
X119795691Y-67776656D01*
X119784533Y-67745471D01*
X119776485Y-67713343D01*
X119771625Y-67680581D01*
X119770000Y-67647500D01*
X119770000Y-66972500D01*
X119771625Y-66939419D01*
X119776485Y-66906657D01*
X119784533Y-66874529D01*
X119795691Y-66843344D01*
X119809852Y-66813404D01*
X119826879Y-66784995D01*
X119846609Y-66758392D01*
X119868851Y-66733851D01*
X119893392Y-66711609D01*
X119919995Y-66691879D01*
X119948404Y-66674852D01*
X119978344Y-66660691D01*
X120009529Y-66649533D01*
X120041657Y-66641485D01*
X120074419Y-66636625D01*
X120107500Y-66635000D01*
X120882500Y-66635000D01*
X120915581Y-66636625D01*
X120915581Y-66636625D01*
G37*
D19*
X120495000Y-67310000D03*
D18*
G36*
X119165581Y-66636625D02*
X119198343Y-66641485D01*
X119230471Y-66649533D01*
X119261656Y-66660691D01*
X119291596Y-66674852D01*
X119320005Y-66691879D01*
X119346608Y-66711609D01*
X119371149Y-66733851D01*
X119393391Y-66758392D01*
X119413121Y-66784995D01*
X119430148Y-66813404D01*
X119444309Y-66843344D01*
X119455467Y-66874529D01*
X119463515Y-66906657D01*
X119468375Y-66939419D01*
X119470000Y-66972500D01*
X119470000Y-67647500D01*
X119468375Y-67680581D01*
X119463515Y-67713343D01*
X119455467Y-67745471D01*
X119444309Y-67776656D01*
X119430148Y-67806596D01*
X119413121Y-67835005D01*
X119393391Y-67861608D01*
X119371149Y-67886149D01*
X119346608Y-67908391D01*
X119320005Y-67928121D01*
X119291596Y-67945148D01*
X119261656Y-67959309D01*
X119230471Y-67970467D01*
X119198343Y-67978515D01*
X119165581Y-67983375D01*
X119132500Y-67985000D01*
X118357500Y-67985000D01*
X118324419Y-67983375D01*
X118291657Y-67978515D01*
X118259529Y-67970467D01*
X118228344Y-67959309D01*
X118198404Y-67945148D01*
X118169995Y-67928121D01*
X118143392Y-67908391D01*
X118118851Y-67886149D01*
X118096609Y-67861608D01*
X118076879Y-67835005D01*
X118059852Y-67806596D01*
X118045691Y-67776656D01*
X118034533Y-67745471D01*
X118026485Y-67713343D01*
X118021625Y-67680581D01*
X118020000Y-67647500D01*
X118020000Y-66972500D01*
X118021625Y-66939419D01*
X118026485Y-66906657D01*
X118034533Y-66874529D01*
X118045691Y-66843344D01*
X118059852Y-66813404D01*
X118076879Y-66784995D01*
X118096609Y-66758392D01*
X118118851Y-66733851D01*
X118143392Y-66711609D01*
X118169995Y-66691879D01*
X118198404Y-66674852D01*
X118228344Y-66660691D01*
X118259529Y-66649533D01*
X118291657Y-66641485D01*
X118324419Y-66636625D01*
X118357500Y-66635000D01*
X119132500Y-66635000D01*
X119165581Y-66636625D01*
X119165581Y-66636625D01*
G37*
D19*
X118745000Y-67310000D03*
G04 #@! TD*
D18*
G04 #@! TO.C,D1*
G36*
X103021207Y-48819042D02*
X103052287Y-48823652D01*
X103082766Y-48831287D01*
X103112350Y-48841872D01*
X103140754Y-48855306D01*
X103167704Y-48871459D01*
X103192942Y-48890177D01*
X103216223Y-48911277D01*
X103237323Y-48934558D01*
X103256041Y-48959796D01*
X103272194Y-48986746D01*
X103285628Y-49015150D01*
X103296213Y-49044734D01*
X103303848Y-49075213D01*
X103308458Y-49106293D01*
X103310000Y-49137676D01*
X103310000Y-50322324D01*
X103308458Y-50353707D01*
X103303848Y-50384787D01*
X103296213Y-50415266D01*
X103285628Y-50444850D01*
X103272194Y-50473254D01*
X103256041Y-50500204D01*
X103237323Y-50525442D01*
X103216223Y-50548723D01*
X103192942Y-50569823D01*
X103167704Y-50588541D01*
X103140754Y-50604694D01*
X103112350Y-50618128D01*
X103082766Y-50628713D01*
X103052287Y-50636348D01*
X103021207Y-50640958D01*
X102989824Y-50642500D01*
X101480176Y-50642500D01*
X101448793Y-50640958D01*
X101417713Y-50636348D01*
X101387234Y-50628713D01*
X101357650Y-50618128D01*
X101329246Y-50604694D01*
X101302296Y-50588541D01*
X101277058Y-50569823D01*
X101253777Y-50548723D01*
X101232677Y-50525442D01*
X101213959Y-50500204D01*
X101197806Y-50473254D01*
X101184372Y-50444850D01*
X101173787Y-50415266D01*
X101166152Y-50384787D01*
X101161542Y-50353707D01*
X101160000Y-50322324D01*
X101160000Y-49137676D01*
X101161542Y-49106293D01*
X101166152Y-49075213D01*
X101173787Y-49044734D01*
X101184372Y-49015150D01*
X101197806Y-48986746D01*
X101213959Y-48959796D01*
X101232677Y-48934558D01*
X101253777Y-48911277D01*
X101277058Y-48890177D01*
X101302296Y-48871459D01*
X101329246Y-48855306D01*
X101357650Y-48841872D01*
X101387234Y-48831287D01*
X101417713Y-48823652D01*
X101448793Y-48819042D01*
X101480176Y-48817500D01*
X102989824Y-48817500D01*
X103021207Y-48819042D01*
X103021207Y-48819042D01*
G37*
D20*
X102235000Y-49730000D03*
D18*
G36*
X103021207Y-51794042D02*
X103052287Y-51798652D01*
X103082766Y-51806287D01*
X103112350Y-51816872D01*
X103140754Y-51830306D01*
X103167704Y-51846459D01*
X103192942Y-51865177D01*
X103216223Y-51886277D01*
X103237323Y-51909558D01*
X103256041Y-51934796D01*
X103272194Y-51961746D01*
X103285628Y-51990150D01*
X103296213Y-52019734D01*
X103303848Y-52050213D01*
X103308458Y-52081293D01*
X103310000Y-52112676D01*
X103310000Y-53297324D01*
X103308458Y-53328707D01*
X103303848Y-53359787D01*
X103296213Y-53390266D01*
X103285628Y-53419850D01*
X103272194Y-53448254D01*
X103256041Y-53475204D01*
X103237323Y-53500442D01*
X103216223Y-53523723D01*
X103192942Y-53544823D01*
X103167704Y-53563541D01*
X103140754Y-53579694D01*
X103112350Y-53593128D01*
X103082766Y-53603713D01*
X103052287Y-53611348D01*
X103021207Y-53615958D01*
X102989824Y-53617500D01*
X101480176Y-53617500D01*
X101448793Y-53615958D01*
X101417713Y-53611348D01*
X101387234Y-53603713D01*
X101357650Y-53593128D01*
X101329246Y-53579694D01*
X101302296Y-53563541D01*
X101277058Y-53544823D01*
X101253777Y-53523723D01*
X101232677Y-53500442D01*
X101213959Y-53475204D01*
X101197806Y-53448254D01*
X101184372Y-53419850D01*
X101173787Y-53390266D01*
X101166152Y-53359787D01*
X101161542Y-53328707D01*
X101160000Y-53297324D01*
X101160000Y-52112676D01*
X101161542Y-52081293D01*
X101166152Y-52050213D01*
X101173787Y-52019734D01*
X101184372Y-51990150D01*
X101197806Y-51961746D01*
X101213959Y-51934796D01*
X101232677Y-51909558D01*
X101253777Y-51886277D01*
X101277058Y-51865177D01*
X101302296Y-51846459D01*
X101329246Y-51830306D01*
X101357650Y-51816872D01*
X101387234Y-51806287D01*
X101417713Y-51798652D01*
X101448793Y-51794042D01*
X101480176Y-51792500D01*
X102989824Y-51792500D01*
X103021207Y-51794042D01*
X103021207Y-51794042D01*
G37*
D20*
X102235000Y-52705000D03*
G04 #@! TD*
D18*
G04 #@! TO.C,F1*
G36*
X99211207Y-48819042D02*
X99242287Y-48823652D01*
X99272766Y-48831287D01*
X99302350Y-48841872D01*
X99330754Y-48855306D01*
X99357704Y-48871459D01*
X99382942Y-48890177D01*
X99406223Y-48911277D01*
X99427323Y-48934558D01*
X99446041Y-48959796D01*
X99462194Y-48986746D01*
X99475628Y-49015150D01*
X99486213Y-49044734D01*
X99493848Y-49075213D01*
X99498458Y-49106293D01*
X99500000Y-49137676D01*
X99500000Y-50322324D01*
X99498458Y-50353707D01*
X99493848Y-50384787D01*
X99486213Y-50415266D01*
X99475628Y-50444850D01*
X99462194Y-50473254D01*
X99446041Y-50500204D01*
X99427323Y-50525442D01*
X99406223Y-50548723D01*
X99382942Y-50569823D01*
X99357704Y-50588541D01*
X99330754Y-50604694D01*
X99302350Y-50618128D01*
X99272766Y-50628713D01*
X99242287Y-50636348D01*
X99211207Y-50640958D01*
X99179824Y-50642500D01*
X97670176Y-50642500D01*
X97638793Y-50640958D01*
X97607713Y-50636348D01*
X97577234Y-50628713D01*
X97547650Y-50618128D01*
X97519246Y-50604694D01*
X97492296Y-50588541D01*
X97467058Y-50569823D01*
X97443777Y-50548723D01*
X97422677Y-50525442D01*
X97403959Y-50500204D01*
X97387806Y-50473254D01*
X97374372Y-50444850D01*
X97363787Y-50415266D01*
X97356152Y-50384787D01*
X97351542Y-50353707D01*
X97350000Y-50322324D01*
X97350000Y-49137676D01*
X97351542Y-49106293D01*
X97356152Y-49075213D01*
X97363787Y-49044734D01*
X97374372Y-49015150D01*
X97387806Y-48986746D01*
X97403959Y-48959796D01*
X97422677Y-48934558D01*
X97443777Y-48911277D01*
X97467058Y-48890177D01*
X97492296Y-48871459D01*
X97519246Y-48855306D01*
X97547650Y-48841872D01*
X97577234Y-48831287D01*
X97607713Y-48823652D01*
X97638793Y-48819042D01*
X97670176Y-48817500D01*
X99179824Y-48817500D01*
X99211207Y-48819042D01*
X99211207Y-48819042D01*
G37*
D20*
X98425000Y-49730000D03*
D18*
G36*
X99211207Y-51794042D02*
X99242287Y-51798652D01*
X99272766Y-51806287D01*
X99302350Y-51816872D01*
X99330754Y-51830306D01*
X99357704Y-51846459D01*
X99382942Y-51865177D01*
X99406223Y-51886277D01*
X99427323Y-51909558D01*
X99446041Y-51934796D01*
X99462194Y-51961746D01*
X99475628Y-51990150D01*
X99486213Y-52019734D01*
X99493848Y-52050213D01*
X99498458Y-52081293D01*
X99500000Y-52112676D01*
X99500000Y-53297324D01*
X99498458Y-53328707D01*
X99493848Y-53359787D01*
X99486213Y-53390266D01*
X99475628Y-53419850D01*
X99462194Y-53448254D01*
X99446041Y-53475204D01*
X99427323Y-53500442D01*
X99406223Y-53523723D01*
X99382942Y-53544823D01*
X99357704Y-53563541D01*
X99330754Y-53579694D01*
X99302350Y-53593128D01*
X99272766Y-53603713D01*
X99242287Y-53611348D01*
X99211207Y-53615958D01*
X99179824Y-53617500D01*
X97670176Y-53617500D01*
X97638793Y-53615958D01*
X97607713Y-53611348D01*
X97577234Y-53603713D01*
X97547650Y-53593128D01*
X97519246Y-53579694D01*
X97492296Y-53563541D01*
X97467058Y-53544823D01*
X97443777Y-53523723D01*
X97422677Y-53500442D01*
X97403959Y-53475204D01*
X97387806Y-53448254D01*
X97374372Y-53419850D01*
X97363787Y-53390266D01*
X97356152Y-53359787D01*
X97351542Y-53328707D01*
X97350000Y-53297324D01*
X97350000Y-52112676D01*
X97351542Y-52081293D01*
X97356152Y-52050213D01*
X97363787Y-52019734D01*
X97374372Y-51990150D01*
X97387806Y-51961746D01*
X97403959Y-51934796D01*
X97422677Y-51909558D01*
X97443777Y-51886277D01*
X97467058Y-51865177D01*
X97492296Y-51846459D01*
X97519246Y-51830306D01*
X97547650Y-51816872D01*
X97577234Y-51806287D01*
X97607713Y-51798652D01*
X97638793Y-51794042D01*
X97670176Y-51792500D01*
X99179824Y-51792500D01*
X99211207Y-51794042D01*
X99211207Y-51794042D01*
G37*
D20*
X98425000Y-52705000D03*
G04 #@! TD*
D18*
G04 #@! TO.C,R1*
G36*
X117415581Y-71081625D02*
X117448343Y-71086485D01*
X117480471Y-71094533D01*
X117511656Y-71105691D01*
X117541596Y-71119852D01*
X117570005Y-71136879D01*
X117596608Y-71156609D01*
X117621149Y-71178851D01*
X117643391Y-71203392D01*
X117663121Y-71229995D01*
X117680148Y-71258404D01*
X117694309Y-71288344D01*
X117705467Y-71319529D01*
X117713515Y-71351657D01*
X117718375Y-71384419D01*
X117720000Y-71417500D01*
X117720000Y-72092500D01*
X117718375Y-72125581D01*
X117713515Y-72158343D01*
X117705467Y-72190471D01*
X117694309Y-72221656D01*
X117680148Y-72251596D01*
X117663121Y-72280005D01*
X117643391Y-72306608D01*
X117621149Y-72331149D01*
X117596608Y-72353391D01*
X117570005Y-72373121D01*
X117541596Y-72390148D01*
X117511656Y-72404309D01*
X117480471Y-72415467D01*
X117448343Y-72423515D01*
X117415581Y-72428375D01*
X117382500Y-72430000D01*
X116607500Y-72430000D01*
X116574419Y-72428375D01*
X116541657Y-72423515D01*
X116509529Y-72415467D01*
X116478344Y-72404309D01*
X116448404Y-72390148D01*
X116419995Y-72373121D01*
X116393392Y-72353391D01*
X116368851Y-72331149D01*
X116346609Y-72306608D01*
X116326879Y-72280005D01*
X116309852Y-72251596D01*
X116295691Y-72221656D01*
X116284533Y-72190471D01*
X116276485Y-72158343D01*
X116271625Y-72125581D01*
X116270000Y-72092500D01*
X116270000Y-71417500D01*
X116271625Y-71384419D01*
X116276485Y-71351657D01*
X116284533Y-71319529D01*
X116295691Y-71288344D01*
X116309852Y-71258404D01*
X116326879Y-71229995D01*
X116346609Y-71203392D01*
X116368851Y-71178851D01*
X116393392Y-71156609D01*
X116419995Y-71136879D01*
X116448404Y-71119852D01*
X116478344Y-71105691D01*
X116509529Y-71094533D01*
X116541657Y-71086485D01*
X116574419Y-71081625D01*
X116607500Y-71080000D01*
X117382500Y-71080000D01*
X117415581Y-71081625D01*
X117415581Y-71081625D01*
G37*
D19*
X116995000Y-71755000D03*
D18*
G36*
X119165581Y-71081625D02*
X119198343Y-71086485D01*
X119230471Y-71094533D01*
X119261656Y-71105691D01*
X119291596Y-71119852D01*
X119320005Y-71136879D01*
X119346608Y-71156609D01*
X119371149Y-71178851D01*
X119393391Y-71203392D01*
X119413121Y-71229995D01*
X119430148Y-71258404D01*
X119444309Y-71288344D01*
X119455467Y-71319529D01*
X119463515Y-71351657D01*
X119468375Y-71384419D01*
X119470000Y-71417500D01*
X119470000Y-72092500D01*
X119468375Y-72125581D01*
X119463515Y-72158343D01*
X119455467Y-72190471D01*
X119444309Y-72221656D01*
X119430148Y-72251596D01*
X119413121Y-72280005D01*
X119393391Y-72306608D01*
X119371149Y-72331149D01*
X119346608Y-72353391D01*
X119320005Y-72373121D01*
X119291596Y-72390148D01*
X119261656Y-72404309D01*
X119230471Y-72415467D01*
X119198343Y-72423515D01*
X119165581Y-72428375D01*
X119132500Y-72430000D01*
X118357500Y-72430000D01*
X118324419Y-72428375D01*
X118291657Y-72423515D01*
X118259529Y-72415467D01*
X118228344Y-72404309D01*
X118198404Y-72390148D01*
X118169995Y-72373121D01*
X118143392Y-72353391D01*
X118118851Y-72331149D01*
X118096609Y-72306608D01*
X118076879Y-72280005D01*
X118059852Y-72251596D01*
X118045691Y-72221656D01*
X118034533Y-72190471D01*
X118026485Y-72158343D01*
X118021625Y-72125581D01*
X118020000Y-72092500D01*
X118020000Y-71417500D01*
X118021625Y-71384419D01*
X118026485Y-71351657D01*
X118034533Y-71319529D01*
X118045691Y-71288344D01*
X118059852Y-71258404D01*
X118076879Y-71229995D01*
X118096609Y-71203392D01*
X118118851Y-71178851D01*
X118143392Y-71156609D01*
X118169995Y-71136879D01*
X118198404Y-71119852D01*
X118228344Y-71105691D01*
X118259529Y-71094533D01*
X118291657Y-71086485D01*
X118324419Y-71081625D01*
X118357500Y-71080000D01*
X119132500Y-71080000D01*
X119165581Y-71081625D01*
X119165581Y-71081625D01*
G37*
D19*
X118745000Y-71755000D03*
G04 #@! TD*
D18*
G04 #@! TO.C,R2*
G36*
X119165581Y-72986625D02*
X119198343Y-72991485D01*
X119230471Y-72999533D01*
X119261656Y-73010691D01*
X119291596Y-73024852D01*
X119320005Y-73041879D01*
X119346608Y-73061609D01*
X119371149Y-73083851D01*
X119393391Y-73108392D01*
X119413121Y-73134995D01*
X119430148Y-73163404D01*
X119444309Y-73193344D01*
X119455467Y-73224529D01*
X119463515Y-73256657D01*
X119468375Y-73289419D01*
X119470000Y-73322500D01*
X119470000Y-73997500D01*
X119468375Y-74030581D01*
X119463515Y-74063343D01*
X119455467Y-74095471D01*
X119444309Y-74126656D01*
X119430148Y-74156596D01*
X119413121Y-74185005D01*
X119393391Y-74211608D01*
X119371149Y-74236149D01*
X119346608Y-74258391D01*
X119320005Y-74278121D01*
X119291596Y-74295148D01*
X119261656Y-74309309D01*
X119230471Y-74320467D01*
X119198343Y-74328515D01*
X119165581Y-74333375D01*
X119132500Y-74335000D01*
X118357500Y-74335000D01*
X118324419Y-74333375D01*
X118291657Y-74328515D01*
X118259529Y-74320467D01*
X118228344Y-74309309D01*
X118198404Y-74295148D01*
X118169995Y-74278121D01*
X118143392Y-74258391D01*
X118118851Y-74236149D01*
X118096609Y-74211608D01*
X118076879Y-74185005D01*
X118059852Y-74156596D01*
X118045691Y-74126656D01*
X118034533Y-74095471D01*
X118026485Y-74063343D01*
X118021625Y-74030581D01*
X118020000Y-73997500D01*
X118020000Y-73322500D01*
X118021625Y-73289419D01*
X118026485Y-73256657D01*
X118034533Y-73224529D01*
X118045691Y-73193344D01*
X118059852Y-73163404D01*
X118076879Y-73134995D01*
X118096609Y-73108392D01*
X118118851Y-73083851D01*
X118143392Y-73061609D01*
X118169995Y-73041879D01*
X118198404Y-73024852D01*
X118228344Y-73010691D01*
X118259529Y-72999533D01*
X118291657Y-72991485D01*
X118324419Y-72986625D01*
X118357500Y-72985000D01*
X119132500Y-72985000D01*
X119165581Y-72986625D01*
X119165581Y-72986625D01*
G37*
D19*
X118745000Y-73660000D03*
D18*
G36*
X117415581Y-72986625D02*
X117448343Y-72991485D01*
X117480471Y-72999533D01*
X117511656Y-73010691D01*
X117541596Y-73024852D01*
X117570005Y-73041879D01*
X117596608Y-73061609D01*
X117621149Y-73083851D01*
X117643391Y-73108392D01*
X117663121Y-73134995D01*
X117680148Y-73163404D01*
X117694309Y-73193344D01*
X117705467Y-73224529D01*
X117713515Y-73256657D01*
X117718375Y-73289419D01*
X117720000Y-73322500D01*
X117720000Y-73997500D01*
X117718375Y-74030581D01*
X117713515Y-74063343D01*
X117705467Y-74095471D01*
X117694309Y-74126656D01*
X117680148Y-74156596D01*
X117663121Y-74185005D01*
X117643391Y-74211608D01*
X117621149Y-74236149D01*
X117596608Y-74258391D01*
X117570005Y-74278121D01*
X117541596Y-74295148D01*
X117511656Y-74309309D01*
X117480471Y-74320467D01*
X117448343Y-74328515D01*
X117415581Y-74333375D01*
X117382500Y-74335000D01*
X116607500Y-74335000D01*
X116574419Y-74333375D01*
X116541657Y-74328515D01*
X116509529Y-74320467D01*
X116478344Y-74309309D01*
X116448404Y-74295148D01*
X116419995Y-74278121D01*
X116393392Y-74258391D01*
X116368851Y-74236149D01*
X116346609Y-74211608D01*
X116326879Y-74185005D01*
X116309852Y-74156596D01*
X116295691Y-74126656D01*
X116284533Y-74095471D01*
X116276485Y-74063343D01*
X116271625Y-74030581D01*
X116270000Y-73997500D01*
X116270000Y-73322500D01*
X116271625Y-73289419D01*
X116276485Y-73256657D01*
X116284533Y-73224529D01*
X116295691Y-73193344D01*
X116309852Y-73163404D01*
X116326879Y-73134995D01*
X116346609Y-73108392D01*
X116368851Y-73083851D01*
X116393392Y-73061609D01*
X116419995Y-73041879D01*
X116448404Y-73024852D01*
X116478344Y-73010691D01*
X116509529Y-72999533D01*
X116541657Y-72991485D01*
X116574419Y-72986625D01*
X116607500Y-72985000D01*
X117382500Y-72985000D01*
X117415581Y-72986625D01*
X117415581Y-72986625D01*
G37*
D19*
X116995000Y-73660000D03*
G04 #@! TD*
D18*
G04 #@! TO.C,R3*
G36*
X120385581Y-47931625D02*
X120418343Y-47936485D01*
X120450471Y-47944533D01*
X120481656Y-47955691D01*
X120511596Y-47969852D01*
X120540005Y-47986879D01*
X120566608Y-48006609D01*
X120591149Y-48028851D01*
X120613391Y-48053392D01*
X120633121Y-48079995D01*
X120650148Y-48108404D01*
X120664309Y-48138344D01*
X120675467Y-48169529D01*
X120683515Y-48201657D01*
X120688375Y-48234419D01*
X120690000Y-48267500D01*
X120690000Y-49042500D01*
X120688375Y-49075581D01*
X120683515Y-49108343D01*
X120675467Y-49140471D01*
X120664309Y-49171656D01*
X120650148Y-49201596D01*
X120633121Y-49230005D01*
X120613391Y-49256608D01*
X120591149Y-49281149D01*
X120566608Y-49303391D01*
X120540005Y-49323121D01*
X120511596Y-49340148D01*
X120481656Y-49354309D01*
X120450471Y-49365467D01*
X120418343Y-49373515D01*
X120385581Y-49378375D01*
X120352500Y-49380000D01*
X119677500Y-49380000D01*
X119644419Y-49378375D01*
X119611657Y-49373515D01*
X119579529Y-49365467D01*
X119548344Y-49354309D01*
X119518404Y-49340148D01*
X119489995Y-49323121D01*
X119463392Y-49303391D01*
X119438851Y-49281149D01*
X119416609Y-49256608D01*
X119396879Y-49230005D01*
X119379852Y-49201596D01*
X119365691Y-49171656D01*
X119354533Y-49140471D01*
X119346485Y-49108343D01*
X119341625Y-49075581D01*
X119340000Y-49042500D01*
X119340000Y-48267500D01*
X119341625Y-48234419D01*
X119346485Y-48201657D01*
X119354533Y-48169529D01*
X119365691Y-48138344D01*
X119379852Y-48108404D01*
X119396879Y-48079995D01*
X119416609Y-48053392D01*
X119438851Y-48028851D01*
X119463392Y-48006609D01*
X119489995Y-47986879D01*
X119518404Y-47969852D01*
X119548344Y-47955691D01*
X119579529Y-47944533D01*
X119611657Y-47936485D01*
X119644419Y-47931625D01*
X119677500Y-47930000D01*
X120352500Y-47930000D01*
X120385581Y-47931625D01*
X120385581Y-47931625D01*
G37*
D19*
X120015000Y-48655000D03*
D18*
G36*
X120385581Y-49681625D02*
X120418343Y-49686485D01*
X120450471Y-49694533D01*
X120481656Y-49705691D01*
X120511596Y-49719852D01*
X120540005Y-49736879D01*
X120566608Y-49756609D01*
X120591149Y-49778851D01*
X120613391Y-49803392D01*
X120633121Y-49829995D01*
X120650148Y-49858404D01*
X120664309Y-49888344D01*
X120675467Y-49919529D01*
X120683515Y-49951657D01*
X120688375Y-49984419D01*
X120690000Y-50017500D01*
X120690000Y-50792500D01*
X120688375Y-50825581D01*
X120683515Y-50858343D01*
X120675467Y-50890471D01*
X120664309Y-50921656D01*
X120650148Y-50951596D01*
X120633121Y-50980005D01*
X120613391Y-51006608D01*
X120591149Y-51031149D01*
X120566608Y-51053391D01*
X120540005Y-51073121D01*
X120511596Y-51090148D01*
X120481656Y-51104309D01*
X120450471Y-51115467D01*
X120418343Y-51123515D01*
X120385581Y-51128375D01*
X120352500Y-51130000D01*
X119677500Y-51130000D01*
X119644419Y-51128375D01*
X119611657Y-51123515D01*
X119579529Y-51115467D01*
X119548344Y-51104309D01*
X119518404Y-51090148D01*
X119489995Y-51073121D01*
X119463392Y-51053391D01*
X119438851Y-51031149D01*
X119416609Y-51006608D01*
X119396879Y-50980005D01*
X119379852Y-50951596D01*
X119365691Y-50921656D01*
X119354533Y-50890471D01*
X119346485Y-50858343D01*
X119341625Y-50825581D01*
X119340000Y-50792500D01*
X119340000Y-50017500D01*
X119341625Y-49984419D01*
X119346485Y-49951657D01*
X119354533Y-49919529D01*
X119365691Y-49888344D01*
X119379852Y-49858404D01*
X119396879Y-49829995D01*
X119416609Y-49803392D01*
X119438851Y-49778851D01*
X119463392Y-49756609D01*
X119489995Y-49736879D01*
X119518404Y-49719852D01*
X119548344Y-49705691D01*
X119579529Y-49694533D01*
X119611657Y-49686485D01*
X119644419Y-49681625D01*
X119677500Y-49680000D01*
X120352500Y-49680000D01*
X120385581Y-49681625D01*
X120385581Y-49681625D01*
G37*
D19*
X120015000Y-50405000D03*
G04 #@! TD*
D18*
G04 #@! TO.C,R4*
G36*
X122290581Y-56666625D02*
X122323343Y-56671485D01*
X122355471Y-56679533D01*
X122386656Y-56690691D01*
X122416596Y-56704852D01*
X122445005Y-56721879D01*
X122471608Y-56741609D01*
X122496149Y-56763851D01*
X122518391Y-56788392D01*
X122538121Y-56814995D01*
X122555148Y-56843404D01*
X122569309Y-56873344D01*
X122580467Y-56904529D01*
X122588515Y-56936657D01*
X122593375Y-56969419D01*
X122595000Y-57002500D01*
X122595000Y-57777500D01*
X122593375Y-57810581D01*
X122588515Y-57843343D01*
X122580467Y-57875471D01*
X122569309Y-57906656D01*
X122555148Y-57936596D01*
X122538121Y-57965005D01*
X122518391Y-57991608D01*
X122496149Y-58016149D01*
X122471608Y-58038391D01*
X122445005Y-58058121D01*
X122416596Y-58075148D01*
X122386656Y-58089309D01*
X122355471Y-58100467D01*
X122323343Y-58108515D01*
X122290581Y-58113375D01*
X122257500Y-58115000D01*
X121582500Y-58115000D01*
X121549419Y-58113375D01*
X121516657Y-58108515D01*
X121484529Y-58100467D01*
X121453344Y-58089309D01*
X121423404Y-58075148D01*
X121394995Y-58058121D01*
X121368392Y-58038391D01*
X121343851Y-58016149D01*
X121321609Y-57991608D01*
X121301879Y-57965005D01*
X121284852Y-57936596D01*
X121270691Y-57906656D01*
X121259533Y-57875471D01*
X121251485Y-57843343D01*
X121246625Y-57810581D01*
X121245000Y-57777500D01*
X121245000Y-57002500D01*
X121246625Y-56969419D01*
X121251485Y-56936657D01*
X121259533Y-56904529D01*
X121270691Y-56873344D01*
X121284852Y-56843404D01*
X121301879Y-56814995D01*
X121321609Y-56788392D01*
X121343851Y-56763851D01*
X121368392Y-56741609D01*
X121394995Y-56721879D01*
X121423404Y-56704852D01*
X121453344Y-56690691D01*
X121484529Y-56679533D01*
X121516657Y-56671485D01*
X121549419Y-56666625D01*
X121582500Y-56665000D01*
X122257500Y-56665000D01*
X122290581Y-56666625D01*
X122290581Y-56666625D01*
G37*
D19*
X121920000Y-57390000D03*
D18*
G36*
X122290581Y-54916625D02*
X122323343Y-54921485D01*
X122355471Y-54929533D01*
X122386656Y-54940691D01*
X122416596Y-54954852D01*
X122445005Y-54971879D01*
X122471608Y-54991609D01*
X122496149Y-55013851D01*
X122518391Y-55038392D01*
X122538121Y-55064995D01*
X122555148Y-55093404D01*
X122569309Y-55123344D01*
X122580467Y-55154529D01*
X122588515Y-55186657D01*
X122593375Y-55219419D01*
X122595000Y-55252500D01*
X122595000Y-56027500D01*
X122593375Y-56060581D01*
X122588515Y-56093343D01*
X122580467Y-56125471D01*
X122569309Y-56156656D01*
X122555148Y-56186596D01*
X122538121Y-56215005D01*
X122518391Y-56241608D01*
X122496149Y-56266149D01*
X122471608Y-56288391D01*
X122445005Y-56308121D01*
X122416596Y-56325148D01*
X122386656Y-56339309D01*
X122355471Y-56350467D01*
X122323343Y-56358515D01*
X122290581Y-56363375D01*
X122257500Y-56365000D01*
X121582500Y-56365000D01*
X121549419Y-56363375D01*
X121516657Y-56358515D01*
X121484529Y-56350467D01*
X121453344Y-56339309D01*
X121423404Y-56325148D01*
X121394995Y-56308121D01*
X121368392Y-56288391D01*
X121343851Y-56266149D01*
X121321609Y-56241608D01*
X121301879Y-56215005D01*
X121284852Y-56186596D01*
X121270691Y-56156656D01*
X121259533Y-56125471D01*
X121251485Y-56093343D01*
X121246625Y-56060581D01*
X121245000Y-56027500D01*
X121245000Y-55252500D01*
X121246625Y-55219419D01*
X121251485Y-55186657D01*
X121259533Y-55154529D01*
X121270691Y-55123344D01*
X121284852Y-55093404D01*
X121301879Y-55064995D01*
X121321609Y-55038392D01*
X121343851Y-55013851D01*
X121368392Y-54991609D01*
X121394995Y-54971879D01*
X121423404Y-54954852D01*
X121453344Y-54940691D01*
X121484529Y-54929533D01*
X121516657Y-54921485D01*
X121549419Y-54916625D01*
X121582500Y-54915000D01*
X122257500Y-54915000D01*
X122290581Y-54916625D01*
X122290581Y-54916625D01*
G37*
D19*
X121920000Y-55640000D03*
G04 #@! TD*
D18*
G04 #@! TO.C,R5*
G36*
X129275581Y-49681625D02*
X129308343Y-49686485D01*
X129340471Y-49694533D01*
X129371656Y-49705691D01*
X129401596Y-49719852D01*
X129430005Y-49736879D01*
X129456608Y-49756609D01*
X129481149Y-49778851D01*
X129503391Y-49803392D01*
X129523121Y-49829995D01*
X129540148Y-49858404D01*
X129554309Y-49888344D01*
X129565467Y-49919529D01*
X129573515Y-49951657D01*
X129578375Y-49984419D01*
X129580000Y-50017500D01*
X129580000Y-50792500D01*
X129578375Y-50825581D01*
X129573515Y-50858343D01*
X129565467Y-50890471D01*
X129554309Y-50921656D01*
X129540148Y-50951596D01*
X129523121Y-50980005D01*
X129503391Y-51006608D01*
X129481149Y-51031149D01*
X129456608Y-51053391D01*
X129430005Y-51073121D01*
X129401596Y-51090148D01*
X129371656Y-51104309D01*
X129340471Y-51115467D01*
X129308343Y-51123515D01*
X129275581Y-51128375D01*
X129242500Y-51130000D01*
X128567500Y-51130000D01*
X128534419Y-51128375D01*
X128501657Y-51123515D01*
X128469529Y-51115467D01*
X128438344Y-51104309D01*
X128408404Y-51090148D01*
X128379995Y-51073121D01*
X128353392Y-51053391D01*
X128328851Y-51031149D01*
X128306609Y-51006608D01*
X128286879Y-50980005D01*
X128269852Y-50951596D01*
X128255691Y-50921656D01*
X128244533Y-50890471D01*
X128236485Y-50858343D01*
X128231625Y-50825581D01*
X128230000Y-50792500D01*
X128230000Y-50017500D01*
X128231625Y-49984419D01*
X128236485Y-49951657D01*
X128244533Y-49919529D01*
X128255691Y-49888344D01*
X128269852Y-49858404D01*
X128286879Y-49829995D01*
X128306609Y-49803392D01*
X128328851Y-49778851D01*
X128353392Y-49756609D01*
X128379995Y-49736879D01*
X128408404Y-49719852D01*
X128438344Y-49705691D01*
X128469529Y-49694533D01*
X128501657Y-49686485D01*
X128534419Y-49681625D01*
X128567500Y-49680000D01*
X129242500Y-49680000D01*
X129275581Y-49681625D01*
X129275581Y-49681625D01*
G37*
D19*
X128905000Y-50405000D03*
D18*
G36*
X129275581Y-47931625D02*
X129308343Y-47936485D01*
X129340471Y-47944533D01*
X129371656Y-47955691D01*
X129401596Y-47969852D01*
X129430005Y-47986879D01*
X129456608Y-48006609D01*
X129481149Y-48028851D01*
X129503391Y-48053392D01*
X129523121Y-48079995D01*
X129540148Y-48108404D01*
X129554309Y-48138344D01*
X129565467Y-48169529D01*
X129573515Y-48201657D01*
X129578375Y-48234419D01*
X129580000Y-48267500D01*
X129580000Y-49042500D01*
X129578375Y-49075581D01*
X129573515Y-49108343D01*
X129565467Y-49140471D01*
X129554309Y-49171656D01*
X129540148Y-49201596D01*
X129523121Y-49230005D01*
X129503391Y-49256608D01*
X129481149Y-49281149D01*
X129456608Y-49303391D01*
X129430005Y-49323121D01*
X129401596Y-49340148D01*
X129371656Y-49354309D01*
X129340471Y-49365467D01*
X129308343Y-49373515D01*
X129275581Y-49378375D01*
X129242500Y-49380000D01*
X128567500Y-49380000D01*
X128534419Y-49378375D01*
X128501657Y-49373515D01*
X128469529Y-49365467D01*
X128438344Y-49354309D01*
X128408404Y-49340148D01*
X128379995Y-49323121D01*
X128353392Y-49303391D01*
X128328851Y-49281149D01*
X128306609Y-49256608D01*
X128286879Y-49230005D01*
X128269852Y-49201596D01*
X128255691Y-49171656D01*
X128244533Y-49140471D01*
X128236485Y-49108343D01*
X128231625Y-49075581D01*
X128230000Y-49042500D01*
X128230000Y-48267500D01*
X128231625Y-48234419D01*
X128236485Y-48201657D01*
X128244533Y-48169529D01*
X128255691Y-48138344D01*
X128269852Y-48108404D01*
X128286879Y-48079995D01*
X128306609Y-48053392D01*
X128328851Y-48028851D01*
X128353392Y-48006609D01*
X128379995Y-47986879D01*
X128408404Y-47969852D01*
X128438344Y-47955691D01*
X128469529Y-47944533D01*
X128501657Y-47936485D01*
X128534419Y-47931625D01*
X128567500Y-47930000D01*
X129242500Y-47930000D01*
X129275581Y-47931625D01*
X129275581Y-47931625D01*
G37*
D19*
X128905000Y-48655000D03*
G04 #@! TD*
D18*
G04 #@! TO.C,R6*
G36*
X124830581Y-47931625D02*
X124863343Y-47936485D01*
X124895471Y-47944533D01*
X124926656Y-47955691D01*
X124956596Y-47969852D01*
X124985005Y-47986879D01*
X125011608Y-48006609D01*
X125036149Y-48028851D01*
X125058391Y-48053392D01*
X125078121Y-48079995D01*
X125095148Y-48108404D01*
X125109309Y-48138344D01*
X125120467Y-48169529D01*
X125128515Y-48201657D01*
X125133375Y-48234419D01*
X125135000Y-48267500D01*
X125135000Y-49042500D01*
X125133375Y-49075581D01*
X125128515Y-49108343D01*
X125120467Y-49140471D01*
X125109309Y-49171656D01*
X125095148Y-49201596D01*
X125078121Y-49230005D01*
X125058391Y-49256608D01*
X125036149Y-49281149D01*
X125011608Y-49303391D01*
X124985005Y-49323121D01*
X124956596Y-49340148D01*
X124926656Y-49354309D01*
X124895471Y-49365467D01*
X124863343Y-49373515D01*
X124830581Y-49378375D01*
X124797500Y-49380000D01*
X124122500Y-49380000D01*
X124089419Y-49378375D01*
X124056657Y-49373515D01*
X124024529Y-49365467D01*
X123993344Y-49354309D01*
X123963404Y-49340148D01*
X123934995Y-49323121D01*
X123908392Y-49303391D01*
X123883851Y-49281149D01*
X123861609Y-49256608D01*
X123841879Y-49230005D01*
X123824852Y-49201596D01*
X123810691Y-49171656D01*
X123799533Y-49140471D01*
X123791485Y-49108343D01*
X123786625Y-49075581D01*
X123785000Y-49042500D01*
X123785000Y-48267500D01*
X123786625Y-48234419D01*
X123791485Y-48201657D01*
X123799533Y-48169529D01*
X123810691Y-48138344D01*
X123824852Y-48108404D01*
X123841879Y-48079995D01*
X123861609Y-48053392D01*
X123883851Y-48028851D01*
X123908392Y-48006609D01*
X123934995Y-47986879D01*
X123963404Y-47969852D01*
X123993344Y-47955691D01*
X124024529Y-47944533D01*
X124056657Y-47936485D01*
X124089419Y-47931625D01*
X124122500Y-47930000D01*
X124797500Y-47930000D01*
X124830581Y-47931625D01*
X124830581Y-47931625D01*
G37*
D19*
X124460000Y-48655000D03*
D18*
G36*
X124830581Y-49681625D02*
X124863343Y-49686485D01*
X124895471Y-49694533D01*
X124926656Y-49705691D01*
X124956596Y-49719852D01*
X124985005Y-49736879D01*
X125011608Y-49756609D01*
X125036149Y-49778851D01*
X125058391Y-49803392D01*
X125078121Y-49829995D01*
X125095148Y-49858404D01*
X125109309Y-49888344D01*
X125120467Y-49919529D01*
X125128515Y-49951657D01*
X125133375Y-49984419D01*
X125135000Y-50017500D01*
X125135000Y-50792500D01*
X125133375Y-50825581D01*
X125128515Y-50858343D01*
X125120467Y-50890471D01*
X125109309Y-50921656D01*
X125095148Y-50951596D01*
X125078121Y-50980005D01*
X125058391Y-51006608D01*
X125036149Y-51031149D01*
X125011608Y-51053391D01*
X124985005Y-51073121D01*
X124956596Y-51090148D01*
X124926656Y-51104309D01*
X124895471Y-51115467D01*
X124863343Y-51123515D01*
X124830581Y-51128375D01*
X124797500Y-51130000D01*
X124122500Y-51130000D01*
X124089419Y-51128375D01*
X124056657Y-51123515D01*
X124024529Y-51115467D01*
X123993344Y-51104309D01*
X123963404Y-51090148D01*
X123934995Y-51073121D01*
X123908392Y-51053391D01*
X123883851Y-51031149D01*
X123861609Y-51006608D01*
X123841879Y-50980005D01*
X123824852Y-50951596D01*
X123810691Y-50921656D01*
X123799533Y-50890471D01*
X123791485Y-50858343D01*
X123786625Y-50825581D01*
X123785000Y-50792500D01*
X123785000Y-50017500D01*
X123786625Y-49984419D01*
X123791485Y-49951657D01*
X123799533Y-49919529D01*
X123810691Y-49888344D01*
X123824852Y-49858404D01*
X123841879Y-49829995D01*
X123861609Y-49803392D01*
X123883851Y-49778851D01*
X123908392Y-49756609D01*
X123934995Y-49736879D01*
X123963404Y-49719852D01*
X123993344Y-49705691D01*
X124024529Y-49694533D01*
X124056657Y-49686485D01*
X124089419Y-49681625D01*
X124122500Y-49680000D01*
X124797500Y-49680000D01*
X124830581Y-49681625D01*
X124830581Y-49681625D01*
G37*
D19*
X124460000Y-50405000D03*
G04 #@! TD*
D21*
G04 #@! TO.C,U1*
X123205000Y-70675000D03*
X123205000Y-69875000D03*
X123205000Y-69075000D03*
X123205000Y-68275000D03*
X123205000Y-67475000D03*
X123205000Y-66675000D03*
X123205000Y-65875000D03*
X123205000Y-65075000D03*
X123205000Y-64275000D03*
X123205000Y-63475000D03*
X123205000Y-62675000D03*
D22*
X124905000Y-60975000D03*
X125705000Y-60975000D03*
X126505000Y-60975000D03*
X127305000Y-60975000D03*
X128105000Y-60975000D03*
X128905000Y-60975000D03*
X129705000Y-60975000D03*
X130505000Y-60975000D03*
X131305000Y-60975000D03*
X132105000Y-60975000D03*
X132905000Y-60975000D03*
D21*
X134605000Y-62675000D03*
X134605000Y-63475000D03*
X134605000Y-64275000D03*
X134605000Y-65075000D03*
X134605000Y-65875000D03*
X134605000Y-66675000D03*
X134605000Y-67475000D03*
X134605000Y-68275000D03*
X134605000Y-69075000D03*
X134605000Y-69875000D03*
X134605000Y-70675000D03*
D22*
X132905000Y-72375000D03*
X132105000Y-72375000D03*
X131305000Y-72375000D03*
X130505000Y-72375000D03*
X129705000Y-72375000D03*
X128905000Y-72375000D03*
X128105000Y-72375000D03*
X127305000Y-72375000D03*
X126505000Y-72375000D03*
X125705000Y-72375000D03*
X124905000Y-72375000D03*
G04 #@! TD*
D23*
G04 #@! TO.C,Y1*
X130127197Y-56862886D03*
X130127197Y-54362886D03*
G04 #@! TD*
D10*
G04 #@! TO.C,*
X140335000Y-50165000D03*
G04 #@! TD*
G04 #@! TO.C,*
X140335000Y-90170000D03*
G04 #@! TD*
M02*
