G04 #@! TF.GenerationSoftware,KiCad,Pcbnew,(5.0.0)*
G04 #@! TF.CreationDate,2018-12-24T02:24:05+09:00*
G04 #@! TF.ProjectId,mykeyboard,6D796B6579626F6172642E6B69636164,rev?*
G04 #@! TF.SameCoordinates,Original*
G04 #@! TF.FileFunction,Soldermask,Top*
G04 #@! TF.FilePolarity,Negative*
%FSLAX46Y46*%
G04 Gerber Fmt 4.6, Leading zero omitted, Abs format (unit mm)*
G04 Created by KiCad (PCBNEW (5.0.0)) date 12/24/18 02:24:05*
%MOMM*%
%LPD*%
G01*
G04 APERTURE LIST*
%ADD10C,3.600000*%
%ADD11C,4.400000*%
%ADD12C,2.600000*%
%ADD13C,0.100000*%
%ADD14C,1.350000*%
%ADD15C,2.400000*%
%ADD16O,2.100000X2.100000*%
%ADD17R,2.100000X2.100000*%
G04 APERTURE END LIST*
D10*
G04 #@! TO.C,*
X70485000Y-90170000D03*
G04 #@! TD*
G04 #@! TO.C,*
X70485000Y-50165000D03*
G04 #@! TD*
D11*
G04 #@! TO.C,SW_DOWN1*
X105410000Y-83185000D03*
D12*
X101600000Y-80645000D03*
X107950000Y-78105000D03*
G04 #@! TD*
D11*
G04 #@! TO.C,SW_LEFT1*
X86360000Y-83185000D03*
D12*
X82550000Y-80645000D03*
X88900000Y-78105000D03*
G04 #@! TD*
D11*
G04 #@! TO.C,SW_RIGHT1*
X124460000Y-83185000D03*
D12*
X120650000Y-80645000D03*
X127000000Y-78105000D03*
G04 #@! TD*
D11*
G04 #@! TO.C,SW_UP1*
X105410000Y-64135000D03*
D12*
X101600000Y-61595000D03*
X107950000Y-59055000D03*
G04 #@! TD*
D13*
G04 #@! TO.C,D2*
G36*
X122925581Y-50076625D02*
X122958343Y-50081485D01*
X122990471Y-50089533D01*
X123021656Y-50100691D01*
X123051596Y-50114852D01*
X123080005Y-50131879D01*
X123106608Y-50151609D01*
X123131149Y-50173851D01*
X123153391Y-50198392D01*
X123173121Y-50224995D01*
X123190148Y-50253404D01*
X123204309Y-50283344D01*
X123215467Y-50314529D01*
X123223515Y-50346657D01*
X123228375Y-50379419D01*
X123230000Y-50412500D01*
X123230000Y-51187500D01*
X123228375Y-51220581D01*
X123223515Y-51253343D01*
X123215467Y-51285471D01*
X123204309Y-51316656D01*
X123190148Y-51346596D01*
X123173121Y-51375005D01*
X123153391Y-51401608D01*
X123131149Y-51426149D01*
X123106608Y-51448391D01*
X123080005Y-51468121D01*
X123051596Y-51485148D01*
X123021656Y-51499309D01*
X122990471Y-51510467D01*
X122958343Y-51518515D01*
X122925581Y-51523375D01*
X122892500Y-51525000D01*
X122217500Y-51525000D01*
X122184419Y-51523375D01*
X122151657Y-51518515D01*
X122119529Y-51510467D01*
X122088344Y-51499309D01*
X122058404Y-51485148D01*
X122029995Y-51468121D01*
X122003392Y-51448391D01*
X121978851Y-51426149D01*
X121956609Y-51401608D01*
X121936879Y-51375005D01*
X121919852Y-51346596D01*
X121905691Y-51316656D01*
X121894533Y-51285471D01*
X121886485Y-51253343D01*
X121881625Y-51220581D01*
X121880000Y-51187500D01*
X121880000Y-50412500D01*
X121881625Y-50379419D01*
X121886485Y-50346657D01*
X121894533Y-50314529D01*
X121905691Y-50283344D01*
X121919852Y-50253404D01*
X121936879Y-50224995D01*
X121956609Y-50198392D01*
X121978851Y-50173851D01*
X122003392Y-50151609D01*
X122029995Y-50131879D01*
X122058404Y-50114852D01*
X122088344Y-50100691D01*
X122119529Y-50089533D01*
X122151657Y-50081485D01*
X122184419Y-50076625D01*
X122217500Y-50075000D01*
X122892500Y-50075000D01*
X122925581Y-50076625D01*
X122925581Y-50076625D01*
G37*
D14*
X122555000Y-50800000D03*
D13*
G36*
X122925581Y-51826625D02*
X122958343Y-51831485D01*
X122990471Y-51839533D01*
X123021656Y-51850691D01*
X123051596Y-51864852D01*
X123080005Y-51881879D01*
X123106608Y-51901609D01*
X123131149Y-51923851D01*
X123153391Y-51948392D01*
X123173121Y-51974995D01*
X123190148Y-52003404D01*
X123204309Y-52033344D01*
X123215467Y-52064529D01*
X123223515Y-52096657D01*
X123228375Y-52129419D01*
X123230000Y-52162500D01*
X123230000Y-52937500D01*
X123228375Y-52970581D01*
X123223515Y-53003343D01*
X123215467Y-53035471D01*
X123204309Y-53066656D01*
X123190148Y-53096596D01*
X123173121Y-53125005D01*
X123153391Y-53151608D01*
X123131149Y-53176149D01*
X123106608Y-53198391D01*
X123080005Y-53218121D01*
X123051596Y-53235148D01*
X123021656Y-53249309D01*
X122990471Y-53260467D01*
X122958343Y-53268515D01*
X122925581Y-53273375D01*
X122892500Y-53275000D01*
X122217500Y-53275000D01*
X122184419Y-53273375D01*
X122151657Y-53268515D01*
X122119529Y-53260467D01*
X122088344Y-53249309D01*
X122058404Y-53235148D01*
X122029995Y-53218121D01*
X122003392Y-53198391D01*
X121978851Y-53176149D01*
X121956609Y-53151608D01*
X121936879Y-53125005D01*
X121919852Y-53096596D01*
X121905691Y-53066656D01*
X121894533Y-53035471D01*
X121886485Y-53003343D01*
X121881625Y-52970581D01*
X121880000Y-52937500D01*
X121880000Y-52162500D01*
X121881625Y-52129419D01*
X121886485Y-52096657D01*
X121894533Y-52064529D01*
X121905691Y-52033344D01*
X121919852Y-52003404D01*
X121936879Y-51974995D01*
X121956609Y-51948392D01*
X121978851Y-51923851D01*
X122003392Y-51901609D01*
X122029995Y-51881879D01*
X122058404Y-51864852D01*
X122088344Y-51850691D01*
X122119529Y-51839533D01*
X122151657Y-51831485D01*
X122184419Y-51826625D01*
X122217500Y-51825000D01*
X122892500Y-51825000D01*
X122925581Y-51826625D01*
X122925581Y-51826625D01*
G37*
D14*
X122555000Y-52550000D03*
G04 #@! TD*
D13*
G04 #@! TO.C,D3*
G36*
X131815581Y-50076625D02*
X131848343Y-50081485D01*
X131880471Y-50089533D01*
X131911656Y-50100691D01*
X131941596Y-50114852D01*
X131970005Y-50131879D01*
X131996608Y-50151609D01*
X132021149Y-50173851D01*
X132043391Y-50198392D01*
X132063121Y-50224995D01*
X132080148Y-50253404D01*
X132094309Y-50283344D01*
X132105467Y-50314529D01*
X132113515Y-50346657D01*
X132118375Y-50379419D01*
X132120000Y-50412500D01*
X132120000Y-51187500D01*
X132118375Y-51220581D01*
X132113515Y-51253343D01*
X132105467Y-51285471D01*
X132094309Y-51316656D01*
X132080148Y-51346596D01*
X132063121Y-51375005D01*
X132043391Y-51401608D01*
X132021149Y-51426149D01*
X131996608Y-51448391D01*
X131970005Y-51468121D01*
X131941596Y-51485148D01*
X131911656Y-51499309D01*
X131880471Y-51510467D01*
X131848343Y-51518515D01*
X131815581Y-51523375D01*
X131782500Y-51525000D01*
X131107500Y-51525000D01*
X131074419Y-51523375D01*
X131041657Y-51518515D01*
X131009529Y-51510467D01*
X130978344Y-51499309D01*
X130948404Y-51485148D01*
X130919995Y-51468121D01*
X130893392Y-51448391D01*
X130868851Y-51426149D01*
X130846609Y-51401608D01*
X130826879Y-51375005D01*
X130809852Y-51346596D01*
X130795691Y-51316656D01*
X130784533Y-51285471D01*
X130776485Y-51253343D01*
X130771625Y-51220581D01*
X130770000Y-51187500D01*
X130770000Y-50412500D01*
X130771625Y-50379419D01*
X130776485Y-50346657D01*
X130784533Y-50314529D01*
X130795691Y-50283344D01*
X130809852Y-50253404D01*
X130826879Y-50224995D01*
X130846609Y-50198392D01*
X130868851Y-50173851D01*
X130893392Y-50151609D01*
X130919995Y-50131879D01*
X130948404Y-50114852D01*
X130978344Y-50100691D01*
X131009529Y-50089533D01*
X131041657Y-50081485D01*
X131074419Y-50076625D01*
X131107500Y-50075000D01*
X131782500Y-50075000D01*
X131815581Y-50076625D01*
X131815581Y-50076625D01*
G37*
D14*
X131445000Y-50800000D03*
D13*
G36*
X131815581Y-51826625D02*
X131848343Y-51831485D01*
X131880471Y-51839533D01*
X131911656Y-51850691D01*
X131941596Y-51864852D01*
X131970005Y-51881879D01*
X131996608Y-51901609D01*
X132021149Y-51923851D01*
X132043391Y-51948392D01*
X132063121Y-51974995D01*
X132080148Y-52003404D01*
X132094309Y-52033344D01*
X132105467Y-52064529D01*
X132113515Y-52096657D01*
X132118375Y-52129419D01*
X132120000Y-52162500D01*
X132120000Y-52937500D01*
X132118375Y-52970581D01*
X132113515Y-53003343D01*
X132105467Y-53035471D01*
X132094309Y-53066656D01*
X132080148Y-53096596D01*
X132063121Y-53125005D01*
X132043391Y-53151608D01*
X132021149Y-53176149D01*
X131996608Y-53198391D01*
X131970005Y-53218121D01*
X131941596Y-53235148D01*
X131911656Y-53249309D01*
X131880471Y-53260467D01*
X131848343Y-53268515D01*
X131815581Y-53273375D01*
X131782500Y-53275000D01*
X131107500Y-53275000D01*
X131074419Y-53273375D01*
X131041657Y-53268515D01*
X131009529Y-53260467D01*
X130978344Y-53249309D01*
X130948404Y-53235148D01*
X130919995Y-53218121D01*
X130893392Y-53198391D01*
X130868851Y-53176149D01*
X130846609Y-53151608D01*
X130826879Y-53125005D01*
X130809852Y-53096596D01*
X130795691Y-53066656D01*
X130784533Y-53035471D01*
X130776485Y-53003343D01*
X130771625Y-52970581D01*
X130770000Y-52937500D01*
X130770000Y-52162500D01*
X130771625Y-52129419D01*
X130776485Y-52096657D01*
X130784533Y-52064529D01*
X130795691Y-52033344D01*
X130809852Y-52003404D01*
X130826879Y-51974995D01*
X130846609Y-51948392D01*
X130868851Y-51923851D01*
X130893392Y-51901609D01*
X130919995Y-51881879D01*
X130948404Y-51864852D01*
X130978344Y-51850691D01*
X131009529Y-51839533D01*
X131041657Y-51831485D01*
X131074419Y-51826625D01*
X131107500Y-51825000D01*
X131782500Y-51825000D01*
X131815581Y-51826625D01*
X131815581Y-51826625D01*
G37*
D14*
X131445000Y-52550000D03*
G04 #@! TD*
D13*
G04 #@! TO.C,D4*
G36*
X127370581Y-50076625D02*
X127403343Y-50081485D01*
X127435471Y-50089533D01*
X127466656Y-50100691D01*
X127496596Y-50114852D01*
X127525005Y-50131879D01*
X127551608Y-50151609D01*
X127576149Y-50173851D01*
X127598391Y-50198392D01*
X127618121Y-50224995D01*
X127635148Y-50253404D01*
X127649309Y-50283344D01*
X127660467Y-50314529D01*
X127668515Y-50346657D01*
X127673375Y-50379419D01*
X127675000Y-50412500D01*
X127675000Y-51187500D01*
X127673375Y-51220581D01*
X127668515Y-51253343D01*
X127660467Y-51285471D01*
X127649309Y-51316656D01*
X127635148Y-51346596D01*
X127618121Y-51375005D01*
X127598391Y-51401608D01*
X127576149Y-51426149D01*
X127551608Y-51448391D01*
X127525005Y-51468121D01*
X127496596Y-51485148D01*
X127466656Y-51499309D01*
X127435471Y-51510467D01*
X127403343Y-51518515D01*
X127370581Y-51523375D01*
X127337500Y-51525000D01*
X126662500Y-51525000D01*
X126629419Y-51523375D01*
X126596657Y-51518515D01*
X126564529Y-51510467D01*
X126533344Y-51499309D01*
X126503404Y-51485148D01*
X126474995Y-51468121D01*
X126448392Y-51448391D01*
X126423851Y-51426149D01*
X126401609Y-51401608D01*
X126381879Y-51375005D01*
X126364852Y-51346596D01*
X126350691Y-51316656D01*
X126339533Y-51285471D01*
X126331485Y-51253343D01*
X126326625Y-51220581D01*
X126325000Y-51187500D01*
X126325000Y-50412500D01*
X126326625Y-50379419D01*
X126331485Y-50346657D01*
X126339533Y-50314529D01*
X126350691Y-50283344D01*
X126364852Y-50253404D01*
X126381879Y-50224995D01*
X126401609Y-50198392D01*
X126423851Y-50173851D01*
X126448392Y-50151609D01*
X126474995Y-50131879D01*
X126503404Y-50114852D01*
X126533344Y-50100691D01*
X126564529Y-50089533D01*
X126596657Y-50081485D01*
X126629419Y-50076625D01*
X126662500Y-50075000D01*
X127337500Y-50075000D01*
X127370581Y-50076625D01*
X127370581Y-50076625D01*
G37*
D14*
X127000000Y-50800000D03*
D13*
G36*
X127370581Y-51826625D02*
X127403343Y-51831485D01*
X127435471Y-51839533D01*
X127466656Y-51850691D01*
X127496596Y-51864852D01*
X127525005Y-51881879D01*
X127551608Y-51901609D01*
X127576149Y-51923851D01*
X127598391Y-51948392D01*
X127618121Y-51974995D01*
X127635148Y-52003404D01*
X127649309Y-52033344D01*
X127660467Y-52064529D01*
X127668515Y-52096657D01*
X127673375Y-52129419D01*
X127675000Y-52162500D01*
X127675000Y-52937500D01*
X127673375Y-52970581D01*
X127668515Y-53003343D01*
X127660467Y-53035471D01*
X127649309Y-53066656D01*
X127635148Y-53096596D01*
X127618121Y-53125005D01*
X127598391Y-53151608D01*
X127576149Y-53176149D01*
X127551608Y-53198391D01*
X127525005Y-53218121D01*
X127496596Y-53235148D01*
X127466656Y-53249309D01*
X127435471Y-53260467D01*
X127403343Y-53268515D01*
X127370581Y-53273375D01*
X127337500Y-53275000D01*
X126662500Y-53275000D01*
X126629419Y-53273375D01*
X126596657Y-53268515D01*
X126564529Y-53260467D01*
X126533344Y-53249309D01*
X126503404Y-53235148D01*
X126474995Y-53218121D01*
X126448392Y-53198391D01*
X126423851Y-53176149D01*
X126401609Y-53151608D01*
X126381879Y-53125005D01*
X126364852Y-53096596D01*
X126350691Y-53066656D01*
X126339533Y-53035471D01*
X126331485Y-53003343D01*
X126326625Y-52970581D01*
X126325000Y-52937500D01*
X126325000Y-52162500D01*
X126326625Y-52129419D01*
X126331485Y-52096657D01*
X126339533Y-52064529D01*
X126350691Y-52033344D01*
X126364852Y-52003404D01*
X126381879Y-51974995D01*
X126401609Y-51948392D01*
X126423851Y-51923851D01*
X126448392Y-51901609D01*
X126474995Y-51881879D01*
X126503404Y-51864852D01*
X126533344Y-51850691D01*
X126564529Y-51839533D01*
X126596657Y-51831485D01*
X126629419Y-51826625D01*
X126662500Y-51825000D01*
X127337500Y-51825000D01*
X127370581Y-51826625D01*
X127370581Y-51826625D01*
G37*
D14*
X127000000Y-52550000D03*
G04 #@! TD*
D15*
G04 #@! TO.C,SW_RST1*
X93345000Y-58270000D03*
X88845000Y-58270000D03*
X93345000Y-64770000D03*
X88845000Y-64770000D03*
G04 #@! TD*
D16*
G04 #@! TO.C,J2*
X76835000Y-57785000D03*
X76835000Y-60325000D03*
X76835000Y-62865000D03*
X76835000Y-65405000D03*
X76835000Y-67945000D03*
D17*
X76835000Y-70485000D03*
G04 #@! TD*
D10*
G04 #@! TO.C,*
X140335000Y-50165000D03*
G04 #@! TD*
G04 #@! TO.C,*
X140335000Y-90170000D03*
G04 #@! TD*
M02*
